<ttFont>
    <TTGlyph name="A" xMin="12" yMin="11" xMax="1181" yMax="1426">
      <contour>
        <pt x="830" y="971" on="1"/>
        <pt x="830" y="1136" on="0"/>
        <pt x="803" y="1136" on="1"/>
        <pt x="802" y="1136" on="0"/>
        <pt x="532" y="635" on="0"/>
        <pt x="532" y="605" on="1"/>
        <pt x="532" y="596" on="0"/>
        <pt x="688" y="596" on="1"/>
        <pt x="787" y="594" on="1"/>
        <pt x="869" y="594" on="0"/>
        <pt x="869" y="632" on="1"/>
        <pt x="866" y="653" on="0"/>
        <pt x="866" y="662" on="1"/>
        <pt x="862" y="692" on="1"/>
        <pt x="858" y="722" on="0"/>
        <pt x="858" y="730" on="1"/>
        <pt x="854" y="760" on="1"/>
        <pt x="851" y="783" on="0"/>
        <pt x="851" y="790" on="1"/>
        <pt x="841" y="873" on="1"/>
        <pt x="838" y="895" on="1"/>
        <pt x="830" y="956" on="0"/>
      </contour>
      <contour>
        <pt x="775" y="1426" on="0"/>
        <pt x="943" y="1426" on="0"/>
        <pt x="987" y="1383" on="0"/>
        <pt x="1025" y="1224" on="0"/>
        <pt x="1181" y="85" on="0"/>
        <pt x="1181" y="72" on="1"/>
        <pt x="1181" y="13" on="0"/>
        <pt x="995" y="13" on="0"/>
        <pt x="955" y="56" on="1"/>
        <pt x="937" y="76" on="0"/>
        <pt x="898" y="356" on="0"/>
        <pt x="892" y="369" on="1"/>
        <pt x="874" y="406" on="0"/>
        <pt x="771" y="406" on="1"/>
        <pt x="474" y="406" on="0"/>
        <pt x="404" y="354" on="0"/>
        <pt x="272" y="78" on="0"/>
        <pt x="265" y="69" on="1"/>
        <pt x="221" y="11" on="0"/>
        <pt x="98" y="11" on="1"/>
        <pt x="53" y="11" on="1"/>
        <pt x="12" y="11" on="0"/>
        <pt x="12" y="58" on="0"/>
        <pt x="100" y="234" on="1"/>
        <pt x="518" y="1071" on="0"/>
        <pt x="588" y="1179" on="1"/>
        <pt x="717" y="1379" on="0"/>
        <pt x="725" y="1386" on="1"/>
      </contour>
    </TTGlyph>
    <TTGlyph name="AE" xMin="191" yMin="119" xMax="1805" yMax="1371">
      <contour>
        <pt x="1046" y="1032" on="1"/>
        <pt x="1045" y="1032" on="0"/>
        <pt x="1045" y="1034" on="1"/>
        <pt x="1045" y="1043" on="0"/>
        <pt x="1068" y="1098" on="1"/>
        <pt x="1092" y="1156" on="0"/>
        <pt x="1101" y="1194" on="1"/>
        <pt x="1101" y="1208" on="0"/>
        <pt x="1083" y="1208" on="1"/>
        <pt x="1072" y="1208" on="1"/>
        <pt x="1001" y="1208" on="0"/>
        <pt x="973" y="1147" on="1"/>
        <pt x="920" y="1030" on="0"/>
        <pt x="844" y="908" on="1"/>
        <pt x="702" y="680" on="1"/>
        <pt x="646" y="578" on="1"/>
        <pt x="710" y="568" on="1"/>
        <pt x="714" y="559" on="0"/>
        <pt x="813" y="559" on="1"/>
        <pt x="846" y="559" on="0"/>
        <pt x="890" y="560" on="1"/>
      </contour>
      <contour>
        <pt x="1619" y="248" on="0"/>
        <pt x="1619" y="151" on="0"/>
        <pt x="1545" y="123" on="0"/>
        <pt x="1446" y="123" on="1"/>
        <pt x="1073" y="123" on="0"/>
        <pt x="982" y="157" on="1"/>
        <pt x="926" y="178" on="0"/>
        <pt x="899" y="222" on="0"/>
        <pt x="899" y="392" on="0"/>
        <pt x="883" y="407" on="1"/>
        <pt x="866" y="422" on="0"/>
        <pt x="674" y="422" on="0"/>
        <pt x="596" y="382" on="0"/>
        <pt x="418" y="170" on="0"/>
        <pt x="337" y="119" on="0"/>
        <pt x="228" y="119" on="1"/>
        <pt x="191" y="119" on="0"/>
        <pt x="191" y="144" on="1"/>
        <pt x="191" y="223" on="0"/>
        <pt x="722" y="1001" on="1"/>
        <pt x="886" y="1241" on="0"/>
        <pt x="1017" y="1339" on="0"/>
        <pt x="1123" y="1351" on="1"/>
        <pt x="1306" y="1371" on="0"/>
        <pt x="1695" y="1371" on="0"/>
        <pt x="1729" y="1364" on="1"/>
        <pt x="1805" y="1349" on="0"/>
        <pt x="1805" y="1302" on="1"/>
        <pt x="1805" y="1223" on="0"/>
        <pt x="1721" y="1205" on="1"/>
        <pt x="1693" y="1199" on="0"/>
        <pt x="1394" y="1191" on="0"/>
        <pt x="1321" y="1151" on="0"/>
        <pt x="1310" y="1131" on="1"/>
        <pt x="1278" y="1074" on="0"/>
        <pt x="1278" y="953" on="1"/>
        <pt x="1278" y="890" on="0"/>
        <pt x="1333" y="857" on="0"/>
        <pt x="1441" y="857" on="1"/>
        <pt x="1515" y="855" on="1"/>
        <pt x="1552" y="854" on="0"/>
        <pt x="1588" y="854" on="1"/>
        <pt x="1679" y="854" on="0"/>
        <pt x="1679" y="801" on="1"/>
        <pt x="1679" y="725" on="0"/>
        <pt x="1587" y="670" on="0"/>
        <pt x="1291" y="645" on="0"/>
        <pt x="1259" y="617" on="1"/>
        <pt x="1211" y="575" on="0"/>
        <pt x="1211" y="403" on="1"/>
        <pt x="1211" y="309" on="0"/>
        <pt x="1248" y="276" on="0"/>
        <pt x="1381" y="276" on="1"/>
        <pt x="1507" y="280" on="1"/>
        <pt x="1594" y="280" on="0"/>
      </contour>
    </TTGlyph>
    <TTGlyph name="Aacute" xMin="18" yMin="46" xMax="1216" yMax="1958">
      <contour>
        <pt x="815" y="1182" on="1"/>
        <pt x="813" y="1182" on="1"/>
        <pt x="811" y="1182" on="0"/>
        <pt x="773" y="1099" on="0"/>
        <pt x="757" y="1069" on="1"/>
        <pt x="548" y="681" on="0"/>
        <pt x="548" y="652" on="1"/>
        <pt x="548" y="641" on="0"/>
        <pt x="701" y="641" on="1"/>
        <pt x="784" y="639" on="1"/>
        <pt x="807" y="639" on="1"/>
        <pt x="814" y="640" on="1"/>
        <pt x="829" y="640" on="1"/>
        <pt x="849" y="643" on="0"/>
        <pt x="856" y="643" on="1"/>
        <pt x="883" y="643" on="0"/>
        <pt x="883" y="674" on="1"/>
        <pt x="883" y="681" on="1"/>
        <pt x="882" y="688" on="1"/>
        <pt x="882" y="723" on="0"/>
        <pt x="869" y="782" on="0"/>
        <pt x="855" y="887" on="0"/>
        <pt x="852" y="904" on="1"/>
        <pt x="846" y="949" on="1"/>
        <pt x="835" y="1032" on="0"/>
        <pt x="835" y="1039" on="1"/>
        <pt x="826" y="1114" on="1"/>
        <pt x="826" y="1182" on="0"/>
      </contour>
      <contour>
        <pt x="788" y="1623" on="1"/>
        <pt x="751" y="1623" on="0"/>
        <pt x="751" y="1645" on="1"/>
        <pt x="751" y="1654" on="1"/>
        <pt x="751" y="1713" on="0"/>
        <pt x="915" y="1897" on="1"/>
        <pt x="960" y="1948" on="0"/>
        <pt x="1014" y="1948" on="1"/>
        <pt x="1050" y="1954" on="0"/>
        <pt x="1064" y="1954" on="1"/>
        <pt x="1102" y="1958" on="1"/>
        <pt x="1163" y="1958" on="1"/>
        <pt x="1195" y="1958" on="0"/>
        <pt x="1195" y="1931" on="1"/>
        <pt x="1195" y="1886" on="0"/>
        <pt x="1114" y="1805" on="1"/>
        <pt x="939" y="1630" on="0"/>
        <pt x="870" y="1630" on="1"/>
        <pt x="852" y="1627" on="0"/>
        <pt x="845" y="1627" on="1"/>
        <pt x="794" y="1623" on="1"/>
      </contour>
      <contour>
        <pt x="809" y="1493" on="0"/>
        <pt x="958" y="1493" on="0"/>
        <pt x="976" y="1461" on="1"/>
        <pt x="1042" y="1344" on="0"/>
        <pt x="1105" y="870" on="1"/>
        <pt x="1128" y="696" on="0"/>
        <pt x="1216" y="138" on="0"/>
        <pt x="1216" y="126" on="1"/>
        <pt x="1216" y="104" on="1"/>
        <pt x="1216" y="48" on="0"/>
        <pt x="1146" y="48" on="1"/>
        <pt x="1038" y="48" on="0"/>
        <pt x="985" y="107" on="1"/>
        <pt x="963" y="131" on="0"/>
        <pt x="920" y="404" on="0"/>
        <pt x="909" y="420" on="1"/>
        <pt x="883" y="456" on="0"/>
        <pt x="780" y="456" on="1"/>
        <pt x="526" y="456" on="0"/>
        <pt x="458" y="422" on="1"/>
        <pt x="420" y="403" on="0"/>
        <pt x="317" y="186" on="1"/>
        <pt x="282" y="111" on="0"/>
        <pt x="269" y="96" on="1"/>
        <pt x="226" y="46" on="0"/>
        <pt x="70" y="46" on="1"/>
        <pt x="18" y="46" on="0"/>
        <pt x="18" y="64" on="1"/>
        <pt x="18" y="83" on="1"/>
        <pt x="18" y="111" on="0"/>
        <pt x="84" y="240" on="1"/>
        <pt x="551" y="1156" on="0"/>
        <pt x="696" y="1391" on="1"/>
        <pt x="732" y="1450" on="0"/>
      </contour>
    </TTGlyph>
    <TTGlyph name="Acircumflex" xMin="21" yMin="32" xMax="1219" yMax="1933">
      <contour>
        <pt x="830" y="1081" on="0"/>
        <pt x="830" y="1156" on="0"/>
        <pt x="819" y="1156" on="1"/>
        <pt x="817" y="1156" on="1"/>
        <pt x="804" y="1130" on="1"/>
        <pt x="792" y="1103" on="1"/>
        <pt x="778" y="1077" on="0"/>
        <pt x="701" y="923" on="0"/>
        <pt x="556" y="654" on="0"/>
        <pt x="556" y="636" on="1"/>
        <pt x="556" y="626" on="0"/>
        <pt x="707" y="626" on="1"/>
        <pt x="788" y="624" on="1"/>
        <pt x="810" y="624" on="1"/>
        <pt x="817" y="625" on="1"/>
        <pt x="838" y="626" on="1"/>
        <pt x="852" y="628" on="0"/>
        <pt x="859" y="628" on="1"/>
        <pt x="886" y="628" on="0"/>
        <pt x="886" y="658" on="1"/>
        <pt x="835" y="1046" on="1"/>
      </contour>
      <contour>
        <pt x="592" y="1608" on="1"/>
        <pt x="592" y="1622" on="1"/>
        <pt x="592" y="1671" on="0"/>
        <pt x="800" y="1847" on="1"/>
        <pt x="902" y="1933" on="0"/>
        <pt x="955" y="1933" on="1"/>
        <pt x="963" y="1933" on="1"/>
        <pt x="1016" y="1933" on="0"/>
        <pt x="1072" y="1867" on="1"/>
        <pt x="1213" y="1700" on="0"/>
        <pt x="1213" y="1648" on="1"/>
        <pt x="1213" y="1632" on="1"/>
        <pt x="1213" y="1594" on="0"/>
        <pt x="1084" y="1594" on="0"/>
        <pt x="1026" y="1652" on="1"/>
        <pt x="931" y="1747" on="0"/>
        <pt x="921" y="1747" on="0"/>
        <pt x="837" y="1681" on="0"/>
        <pt x="714" y="1593" on="0"/>
        <pt x="646" y="1593" on="1"/>
        <pt x="630" y="1593" on="1"/>
        <pt x="592" y="1593" on="0"/>
      </contour>
      <contour>
        <pt x="811" y="1471" on="0"/>
        <pt x="963" y="1471" on="0"/>
        <pt x="1003" y="1401" on="0"/>
        <pt x="1056" y="1185" on="1"/>
        <pt x="1065" y="1146" on="0"/>
        <pt x="1095" y="923" on="0"/>
        <pt x="1107" y="850" on="1"/>
        <pt x="1135" y="665" on="1"/>
        <pt x="1142" y="619" on="0"/>
        <pt x="1154" y="531" on="0"/>
        <pt x="1166" y="455" on="1"/>
        <pt x="1174" y="404" on="1"/>
        <pt x="1181" y="352" on="0"/>
        <pt x="1219" y="110" on="0"/>
        <pt x="1219" y="108" on="1"/>
        <pt x="1219" y="87" on="1"/>
        <pt x="1219" y="34" on="0"/>
        <pt x="1148" y="34" on="1"/>
        <pt x="1034" y="34" on="0"/>
        <pt x="986" y="90" on="1"/>
        <pt x="966" y="114" on="0"/>
        <pt x="924" y="385" on="0"/>
        <pt x="911" y="403" on="1"/>
        <pt x="886" y="437" on="0"/>
        <pt x="783" y="437" on="1"/>
        <pt x="522" y="437" on="0"/>
        <pt x="463" y="405" on="1"/>
        <pt x="423" y="383" on="0"/>
        <pt x="289" y="94" on="0"/>
        <pt x="274" y="79" on="1"/>
        <pt x="231" y="32" on="0"/>
        <pt x="75" y="32" on="1"/>
        <pt x="21" y="32" on="0"/>
        <pt x="21" y="49" on="1"/>
        <pt x="21" y="67" on="1"/>
        <pt x="21" y="92" on="0"/>
        <pt x="87" y="221" on="1"/>
        <pt x="532" y="1093" on="0"/>
        <pt x="701" y="1368" on="1"/>
        <pt x="737" y="1427" on="0"/>
      </contour>
    </TTGlyph>
    <TTGlyph name="Adieresis" xMin="30" yMin="36" xMax="1248" yMax="1852">
      <contour>
        <pt x="828" y="1159" on="1"/>
        <pt x="826" y="1159" on="1"/>
        <pt x="825" y="1159" on="0"/>
        <pt x="790" y="1084" on="0"/>
        <pt x="566" y="667" on="0"/>
        <pt x="566" y="645" on="1"/>
        <pt x="566" y="640" on="1"/>
        <pt x="566" y="629" on="0"/>
        <pt x="716" y="629" on="1"/>
        <pt x="813" y="627" on="1"/>
        <pt x="895" y="627" on="0"/>
        <pt x="895" y="655" on="1"/>
        <pt x="895" y="668" on="1"/>
        <pt x="894" y="675" on="1"/>
        <pt x="894" y="679" on="0"/>
        <pt x="874" y="829" on="1"/>
        <pt x="871" y="851" on="1"/>
        <pt x="869" y="861" on="0"/>
        <pt x="852" y="979" on="0"/>
        <pt x="852" y="990" on="1"/>
        <pt x="842" y="1071" on="1"/>
        <pt x="842" y="1159" on="0"/>
      </contour>
      <contour>
        <pt x="734" y="1608" on="1"/>
        <pt x="697" y="1608" on="1"/>
        <pt x="682" y="1611" on="0"/>
        <pt x="676" y="1611" on="1"/>
        <pt x="604" y="1611" on="0"/>
        <pt x="604" y="1693" on="1"/>
        <pt x="604" y="1714" on="1"/>
        <pt x="605" y="1718" on="1"/>
        <pt x="605" y="1727" on="1"/>
        <pt x="607" y="1735" on="0"/>
        <pt x="607" y="1739" on="1"/>
        <pt x="607" y="1783" on="0"/>
        <pt x="654" y="1830" on="1"/>
        <pt x="676" y="1852" on="0"/>
        <pt x="731" y="1852" on="1"/>
        <pt x="752" y="1852" on="1"/>
        <pt x="799" y="1852" on="0"/>
        <pt x="850" y="1810" on="0"/>
        <pt x="850" y="1782" on="1"/>
        <pt x="852" y="1774" on="0"/>
        <pt x="852" y="1770" on="1"/>
        <pt x="853" y="1753" on="1"/>
        <pt x="853" y="1749" on="1"/>
        <pt x="852" y="1745" on="1"/>
        <pt x="852" y="1687" on="0"/>
        <pt x="786" y="1608" on="0"/>
      </contour>
      <contour>
        <pt x="1248" y="1769" on="1"/>
        <pt x="1248" y="1737" on="1"/>
        <pt x="1248" y="1678" on="0"/>
        <pt x="1180" y="1610" on="0"/>
        <pt x="1142" y="1610" on="1"/>
        <pt x="1118" y="1607" on="1"/>
        <pt x="1101" y="1607" on="1"/>
        <pt x="1000" y="1607" on="0"/>
        <pt x="1000" y="1697" on="1"/>
        <pt x="1000" y="1714" on="1"/>
        <pt x="1000" y="1780" on="0"/>
        <pt x="1047" y="1827" on="1"/>
        <pt x="1072" y="1852" on="0"/>
        <pt x="1135" y="1852" on="1"/>
        <pt x="1143" y="1852" on="1"/>
        <pt x="1248" y="1852" on="0"/>
      </contour>
      <contour>
        <pt x="819" y="1474" on="0"/>
        <pt x="975" y="1474" on="0"/>
        <pt x="991" y="1443" on="1"/>
        <pt x="1014" y="1398" on="0"/>
        <pt x="1066" y="1188" on="1"/>
        <pt x="1067" y="1185" on="0"/>
        <pt x="1090" y="1034" on="1"/>
        <pt x="1102" y="957" on="1"/>
        <pt x="1109" y="905" on="0"/>
        <pt x="1130" y="774" on="0"/>
        <pt x="1156" y="589" on="0"/>
        <pt x="1229" y="114" on="0"/>
        <pt x="1229" y="111" on="1"/>
        <pt x="1229" y="90" on="1"/>
        <pt x="1229" y="37" on="0"/>
        <pt x="1158" y="37" on="1"/>
        <pt x="1043" y="37" on="0"/>
        <pt x="995" y="93" on="1"/>
        <pt x="975" y="117" on="0"/>
        <pt x="932" y="392" on="0"/>
        <pt x="921" y="407" on="1"/>
        <pt x="896" y="441" on="0"/>
        <pt x="792" y="441" on="1"/>
        <pt x="536" y="441" on="0"/>
        <pt x="472" y="408" on="1"/>
        <pt x="444" y="394" on="0"/>
        <pt x="378" y="267" on="1"/>
        <pt x="332" y="172" on="1"/>
        <pt x="293" y="91" on="0"/>
        <pt x="284" y="82" on="1"/>
        <pt x="242" y="36" on="0"/>
        <pt x="107" y="36" on="1"/>
        <pt x="63" y="36" on="1"/>
        <pt x="30" y="36" on="0"/>
        <pt x="30" y="103" on="0"/>
        <pt x="108" y="247" on="1"/>
        <pt x="327" y="651" on="0"/>
        <pt x="484" y="1007" on="0"/>
        <pt x="711" y="1372" on="1"/>
        <pt x="749" y="1433" on="0"/>
      </contour>
    </TTGlyph>
    <TTGlyph name="Agrave" xMin="22" yMin="48" xMax="1221" yMax="1952">
      <contour>
        <pt x="821" y="1171" on="1"/>
        <pt x="818" y="1171" on="1"/>
        <pt x="809" y="1152" on="1"/>
        <pt x="803" y="1139" on="0"/>
        <pt x="796" y="1125" on="1"/>
        <pt x="770" y="1073" on="1"/>
        <pt x="558" y="679" on="0"/>
        <pt x="558" y="656" on="1"/>
        <pt x="558" y="651" on="1"/>
        <pt x="558" y="641" on="0"/>
        <pt x="716" y="641" on="1"/>
        <pt x="797" y="639" on="1"/>
        <pt x="812" y="639" on="1"/>
        <pt x="888" y="639" on="0"/>
        <pt x="888" y="673" on="1"/>
        <pt x="887" y="680" on="1"/>
        <pt x="887" y="687" on="1"/>
        <pt x="855" y="921" on="1"/>
        <pt x="851" y="935" on="0"/>
        <pt x="851" y="950" on="1"/>
        <pt x="836" y="1068" on="1"/>
        <pt x="836" y="1171" on="0"/>
      </contour>
      <contour>
        <pt x="1008" y="1647" on="1"/>
        <pt x="1008" y="1613" on="0"/>
        <pt x="957" y="1613" on="1"/>
        <pt x="951" y="1614" on="1"/>
        <pt x="939" y="1614" on="1"/>
        <pt x="916" y="1616" on="1"/>
        <pt x="854" y="1616" on="0"/>
        <pt x="793" y="1685" on="1"/>
        <pt x="642" y="1855" on="0"/>
        <pt x="642" y="1906" on="1"/>
        <pt x="642" y="1911" on="1"/>
        <pt x="642" y="1952" on="0"/>
        <pt x="693" y="1952" on="1"/>
        <pt x="756" y="1952" on="1"/>
        <pt x="792" y="1946" on="0"/>
        <pt x="808" y="1946" on="1"/>
        <pt x="866" y="1946" on="0"/>
        <pt x="900" y="1895" on="1"/>
        <pt x="1010" y="1730" on="0"/>
        <pt x="1010" y="1662" on="1"/>
        <pt x="1008" y="1652" on="0"/>
      </contour>
      <contour>
        <pt x="813" y="1486" on="0"/>
        <pt x="966" y="1486" on="0"/>
        <pt x="999" y="1426" on="0"/>
        <pt x="1052" y="1225" on="1"/>
        <pt x="1152" y="575" on="1"/>
        <pt x="1221" y="126" on="0"/>
        <pt x="1221" y="123" on="1"/>
        <pt x="1221" y="102" on="1"/>
        <pt x="1221" y="49" on="0"/>
        <pt x="1150" y="49" on="1"/>
        <pt x="1035" y="49" on="0"/>
        <pt x="987" y="105" on="1"/>
        <pt x="970" y="126" on="0"/>
        <pt x="921" y="409" on="0"/>
        <pt x="913" y="419" on="1"/>
        <pt x="889" y="452" on="0"/>
        <pt x="784" y="452" on="1"/>
        <pt x="527" y="452" on="0"/>
        <pt x="465" y="420" on="1"/>
        <pt x="425" y="399" on="0"/>
        <pt x="347" y="231" on="1"/>
        <pt x="324" y="184" on="1"/>
        <pt x="284" y="103" on="0"/>
        <pt x="276" y="94" on="1"/>
        <pt x="233" y="48" on="0"/>
        <pt x="99" y="48" on="1"/>
        <pt x="55" y="48" on="1"/>
        <pt x="22" y="48" on="0"/>
        <pt x="22" y="82" on="1"/>
        <pt x="22" y="105" on="0"/>
        <pt x="77" y="213" on="1"/>
        <pt x="515" y="1070" on="0"/>
        <pt x="703" y="1384" on="1"/>
        <pt x="737" y="1440" on="0"/>
      </contour>
    </TTGlyph>
    <TTGlyph name="Aring" xMin="26" yMin="52" xMax="1234" yMax="2009">
      <contour>
        <pt x="903" y="1908" on="0"/>
        <pt x="877" y="1908" on="0"/>
        <pt x="821" y="1852" on="0"/>
        <pt x="821" y="1826" on="1"/>
        <pt x="818" y="1807" on="1"/>
        <pt x="818" y="1791" on="1"/>
        <pt x="819" y="1788" on="1"/>
        <pt x="819" y="1781" on="1"/>
        <pt x="822" y="1772" on="0"/>
        <pt x="822" y="1769" on="1"/>
        <pt x="822" y="1715" on="0"/>
        <pt x="882" y="1715" on="1"/>
        <pt x="901" y="1712" on="1"/>
        <pt x="908" y="1712" on="1"/>
        <pt x="911" y="1713" on="1"/>
        <pt x="918" y="1713" on="1"/>
        <pt x="930" y="1715" on="1"/>
        <pt x="953" y="1715" on="0"/>
        <pt x="1012" y="1774" on="0"/>
        <pt x="1012" y="1809" on="1"/>
        <pt x="1012" y="1836" on="1"/>
        <pt x="1009" y="1845" on="0"/>
        <pt x="1009" y="1851" on="1"/>
        <pt x="1009" y="1908" on="0"/>
        <pt x="951" y="1908" on="1"/>
        <pt x="935" y="1911" on="1"/>
        <pt x="912" y="1911" on="1"/>
      </contour>
      <contour>
        <pt x="911" y="688" on="1"/>
        <pt x="911" y="701" on="1"/>
        <pt x="902" y="769" on="1"/>
        <pt x="899" y="782" on="0"/>
        <pt x="899" y="785" on="1"/>
        <pt x="887" y="868" on="1"/>
        <pt x="881" y="914" on="1"/>
        <pt x="868" y="997" on="1"/>
        <pt x="862" y="1043" on="1"/>
        <pt x="848" y="1155" on="0"/>
        <pt x="848" y="1219" on="0"/>
        <pt x="838" y="1219" on="1"/>
        <pt x="836" y="1219" on="0"/>
        <pt x="567" y="680" on="0"/>
        <pt x="567" y="678" on="1"/>
        <pt x="567" y="668" on="0"/>
        <pt x="726" y="668" on="1"/>
        <pt x="803" y="666" on="1"/>
        <pt x="841" y="666" on="1"/>
        <pt x="884" y="670" on="1"/>
        <pt x="911" y="670" on="0"/>
      </contour>
      <contour>
        <pt x="1123" y="1835" on="1"/>
        <pt x="1123" y="1822" on="1"/>
        <pt x="1123" y="1745" on="0"/>
        <pt x="993" y="1615" on="0"/>
        <pt x="897" y="1615" on="1"/>
        <pt x="890" y="1615" on="1"/>
        <pt x="883" y="1616" on="1"/>
        <pt x="809" y="1616" on="0"/>
        <pt x="707" y="1718" on="0"/>
        <pt x="707" y="1782" on="1"/>
        <pt x="707" y="1801" on="1"/>
        <pt x="707" y="1878" on="0"/>
        <pt x="838" y="2009" on="0"/>
        <pt x="920" y="2009" on="1"/>
        <pt x="947" y="2009" on="1"/>
        <pt x="1019" y="2009" on="0"/>
        <pt x="1123" y="1905" on="0"/>
      </contour>
      <contour>
        <pt x="774" y="1509" on="0"/>
        <pt x="965" y="1509" on="0"/>
        <pt x="982" y="1485" on="1"/>
        <pt x="1013" y="1442" on="0"/>
        <pt x="1068" y="1235" on="1"/>
        <pt x="1073" y="1215" on="0"/>
        <pt x="1136" y="800" on="0"/>
        <pt x="1143" y="757" on="1"/>
        <pt x="1155" y="674" on="1"/>
        <pt x="1165" y="603" on="0"/>
        <pt x="1234" y="191" on="0"/>
        <pt x="1234" y="149" on="1"/>
        <pt x="1234" y="57" on="0"/>
        <pt x="1184" y="57" on="1"/>
        <pt x="1158" y="57" on="0"/>
        <pt x="1021" y="108" on="0"/>
        <pt x="991" y="150" on="0"/>
        <pt x="953" y="444" on="0"/>
        <pt x="925" y="486" on="0"/>
        <pt x="826" y="486" on="1"/>
        <pt x="518" y="486" on="0"/>
        <pt x="456" y="435" on="1"/>
        <pt x="429" y="413" on="0"/>
        <pt x="295" y="107" on="0"/>
        <pt x="274" y="90" on="1"/>
        <pt x="228" y="52" on="0"/>
        <pt x="26" y="52" on="0"/>
        <pt x="26" y="80" on="1"/>
        <pt x="26" y="116" on="0"/>
        <pt x="88" y="237" on="1"/>
        <pt x="264" y="581" on="0"/>
        <pt x="296" y="657" on="1"/>
        <pt x="411" y="927" on="0"/>
        <pt x="490" y="1062" on="1"/>
        <pt x="677" y="1380" on="0"/>
      </contour>
    </TTGlyph>
    <TTGlyph name="Atilde" xMin="16" yMin="19" xMax="1277" yMax="1839">
      <contour>
        <pt x="814" y="1142" on="1"/>
        <pt x="812" y="1142" on="1"/>
        <pt x="811" y="1142" on="0"/>
        <pt x="776" y="1067" on="0"/>
        <pt x="552" y="650" on="0"/>
        <pt x="552" y="628" on="1"/>
        <pt x="552" y="623" on="1"/>
        <pt x="552" y="612" on="0"/>
        <pt x="702" y="612" on="1"/>
        <pt x="799" y="610" on="1"/>
        <pt x="881" y="610" on="0"/>
        <pt x="881" y="638" on="1"/>
        <pt x="881" y="651" on="1"/>
        <pt x="880" y="658" on="1"/>
        <pt x="880" y="662" on="0"/>
        <pt x="860" y="812" on="1"/>
        <pt x="857" y="834" on="1"/>
        <pt x="854" y="848" on="1"/>
        <pt x="848" y="892" on="1"/>
        <pt x="838" y="962" on="0"/>
        <pt x="838" y="973" on="1"/>
        <pt x="828" y="1054" on="1"/>
        <pt x="828" y="1142" on="0"/>
      </contour>
      <contour>
        <pt x="781" y="1839" on="1"/>
        <pt x="817" y="1839" on="1"/>
        <pt x="863" y="1839" on="0"/>
        <pt x="1018" y="1753" on="0"/>
        <pt x="1087" y="1753" on="0"/>
        <pt x="1188" y="1823" on="0"/>
        <pt x="1277" y="1823" on="0"/>
        <pt x="1277" y="1789" on="1"/>
        <pt x="1277" y="1780" on="1"/>
        <pt x="1277" y="1713" on="0"/>
        <pt x="1136" y="1593" on="0"/>
        <pt x="1056" y="1593" on="1"/>
        <pt x="1037" y="1593" on="1"/>
        <pt x="985" y="1593" on="0"/>
        <pt x="816" y="1682" on="0"/>
        <pt x="749" y="1682" on="0"/>
        <pt x="660" y="1607" on="0"/>
        <pt x="597" y="1607" on="1"/>
        <pt x="560" y="1607" on="0"/>
        <pt x="560" y="1639" on="1"/>
        <pt x="560" y="1716" on="0"/>
        <pt x="705" y="1839" on="0"/>
      </contour>
      <contour>
        <pt x="807" y="1457" on="0"/>
        <pt x="961" y="1457" on="0"/>
        <pt x="977" y="1426" on="1"/>
        <pt x="1000" y="1381" on="0"/>
        <pt x="1052" y="1171" on="1"/>
        <pt x="1053" y="1168" on="0"/>
        <pt x="1076" y="1017" on="1"/>
        <pt x="1088" y="940" on="1"/>
        <pt x="1095" y="888" on="0"/>
        <pt x="1103" y="837" on="1"/>
        <pt x="1107" y="811" on="1"/>
        <pt x="1114" y="758" on="1"/>
        <pt x="1126" y="678" on="1"/>
        <pt x="1142" y="572" on="0"/>
        <pt x="1215" y="97" on="0"/>
        <pt x="1215" y="94" on="1"/>
        <pt x="1215" y="73" on="1"/>
        <pt x="1215" y="20" on="0"/>
        <pt x="1144" y="20" on="1"/>
        <pt x="1029" y="20" on="0"/>
        <pt x="981" y="76" on="1"/>
        <pt x="961" y="100" on="0"/>
        <pt x="918" y="374" on="0"/>
        <pt x="907" y="390" on="1"/>
        <pt x="882" y="424" on="0"/>
        <pt x="778" y="424" on="1"/>
        <pt x="522" y="424" on="0"/>
        <pt x="458" y="391" on="1"/>
        <pt x="430" y="377" on="0"/>
        <pt x="364" y="250" on="1"/>
        <pt x="318" y="155" on="1"/>
        <pt x="279" y="74" on="0"/>
        <pt x="270" y="65" on="1"/>
        <pt x="228" y="19" on="0"/>
        <pt x="93" y="19" on="1"/>
        <pt x="49" y="19" on="1"/>
        <pt x="16" y="19" on="0"/>
        <pt x="16" y="35" on="1"/>
        <pt x="16" y="53" on="1"/>
        <pt x="16" y="86" on="0"/>
        <pt x="94" y="230" on="1"/>
        <pt x="320" y="646" on="0"/>
        <pt x="462" y="978" on="0"/>
        <pt x="697" y="1355" on="1"/>
        <pt x="734" y="1414" on="0"/>
      </contour>
    </TTGlyph>
    <TTGlyph name="B" xMin="96" yMin="16" xMax="1191" yMax="1433">
      <contour>
        <pt x="522" y="842" on="1"/>
        <pt x="627" y="842" on="1"/>
        <pt x="782" y="842" on="0"/>
        <pt x="849" y="891" on="1"/>
        <pt x="946" y="962" on="0"/>
        <pt x="946" y="1074" on="1"/>
        <pt x="946" y="1099" on="1"/>
        <pt x="946" y="1241" on="0"/>
        <pt x="738" y="1241" on="1"/>
        <pt x="662" y="1241" on="1"/>
        <pt x="654" y="1240" on="1"/>
        <pt x="595" y="1237" on="1"/>
        <pt x="587" y="1236" on="0"/>
        <pt x="581" y="1236" on="1"/>
        <pt x="555" y="1236" on="0"/>
        <pt x="548" y="1212" on="1"/>
        <pt x="484" y="1004" on="0"/>
        <pt x="484" y="875" on="1"/>
        <pt x="484" y="862" on="1"/>
        <pt x="484" y="842" on="0"/>
      </contour>
      <contour>
        <pt x="419" y="213" on="1"/>
        <pt x="557" y="213" on="1"/>
        <pt x="809" y="213" on="0"/>
        <pt x="875" y="356" on="1"/>
        <pt x="902" y="414" on="0"/>
        <pt x="902" y="474" on="1"/>
        <pt x="901" y="484" on="1"/>
        <pt x="901" y="576" on="0"/>
        <pt x="770" y="657" on="0"/>
        <pt x="640" y="657" on="1"/>
        <pt x="555" y="657" on="1"/>
        <pt x="455" y="657" on="0"/>
        <pt x="436" y="628" on="0"/>
        <pt x="396" y="400" on="1"/>
        <pt x="392" y="384" on="1"/>
        <pt x="369" y="254" on="0"/>
        <pt x="369" y="251" on="1"/>
        <pt x="369" y="236" on="1"/>
        <pt x="369" y="213" on="0"/>
      </contour>
      <contour>
        <pt x="520" y="16" on="1"/>
        <pt x="307" y="16" on="1"/>
        <pt x="160" y="16" on="0"/>
        <pt x="96" y="31" on="0"/>
        <pt x="96" y="116" on="0"/>
        <pt x="210" y="699" on="1"/>
        <pt x="222" y="767" on="1"/>
        <pt x="241" y="859" on="0"/>
        <pt x="268" y="1017" on="0"/>
        <pt x="300" y="1163" on="0"/>
        <pt x="321" y="1349" on="0"/>
        <pt x="329" y="1371" on="1"/>
        <pt x="346" y="1417" on="0"/>
        <pt x="416" y="1433" on="0"/>
        <pt x="633" y="1433" on="1"/>
        <pt x="777" y="1433" on="1"/>
        <pt x="1073" y="1433" on="0"/>
        <pt x="1158" y="1275" on="1"/>
        <pt x="1191" y="1214" on="0"/>
        <pt x="1191" y="1142" on="1"/>
        <pt x="1191" y="1118" on="1"/>
        <pt x="1190" y="952" on="0"/>
        <pt x="1038" y="824" on="1"/>
        <pt x="970" y="768" on="0"/>
        <pt x="970" y="763" on="1"/>
        <pt x="970" y="759" on="0"/>
        <pt x="992" y="744" on="1"/>
        <pt x="1144" y="646" on="0"/>
        <pt x="1144" y="487" on="1"/>
        <pt x="1144" y="380" on="0"/>
        <pt x="1097" y="286" on="1"/>
        <pt x="999" y="91" on="0"/>
        <pt x="757" y="37" on="1"/>
        <pt x="660" y="16" on="0"/>
      </contour>
    </TTGlyph>
    <TTGlyph name="C" xMin="138" yMin="-18" xMax="1296" yMax="1440">
      <contour>
        <pt x="138" y="574" on="1"/>
        <pt x="138" y="744" on="0"/>
        <pt x="275" y="1102" on="0"/>
        <pt x="499" y="1337" on="0"/>
        <pt x="765" y="1440" on="0"/>
        <pt x="1070" y="1440" on="0"/>
        <pt x="1296" y="1336" on="0"/>
        <pt x="1296" y="1269" on="1"/>
        <pt x="1296" y="1217" on="0"/>
        <pt x="1228" y="1131" on="0"/>
        <pt x="1140" y="1131" on="0"/>
        <pt x="905" y="1228" on="0"/>
        <pt x="866" y="1228" on="1"/>
        <pt x="766" y="1228" on="0"/>
        <pt x="678" y="1178" on="1"/>
        <pt x="509" y="1081" on="0"/>
        <pt x="435" y="828" on="1"/>
        <pt x="399" y="707" on="0"/>
        <pt x="399" y="390" on="0"/>
        <pt x="567" y="198" on="0"/>
        <pt x="708" y="198" on="1"/>
        <pt x="780" y="198" on="0"/>
        <pt x="972" y="281" on="0"/>
        <pt x="1051" y="281" on="1"/>
        <pt x="1125" y="281" on="0"/>
        <pt x="1125" y="193" on="1"/>
        <pt x="1125" y="118" on="0"/>
        <pt x="973" y="50" on="1"/>
        <pt x="822" y="-18" on="0"/>
        <pt x="676" y="-18" on="1"/>
        <pt x="418" y="-18" on="0"/>
        <pt x="138" y="271" on="0"/>
      </contour>
    </TTGlyph>
    <TTGlyph name="Ccedilla" xMin="168" yMin="-437" xMax="1347" yMax="1490">
      <contour>
        <pt x="168" y="540" on="1"/>
        <pt x="168" y="604" on="1"/>
        <pt x="168" y="776" on="0"/>
        <pt x="232" y="946" on="1"/>
        <pt x="359" y="1285" on="0"/>
        <pt x="638" y="1422" on="1"/>
        <pt x="777" y="1490" on="0"/>
        <pt x="927" y="1490" on="1"/>
        <pt x="959" y="1490" on="1"/>
        <pt x="1084" y="1490" on="0"/>
        <pt x="1347" y="1380" on="0"/>
        <pt x="1347" y="1333" on="1"/>
        <pt x="1347" y="1306" on="1"/>
        <pt x="1347" y="1273" on="0"/>
        <pt x="1301" y="1203" on="1"/>
        <pt x="1277" y="1166" on="0"/>
        <pt x="1212" y="1166" on="0"/>
        <pt x="1158" y="1188" on="1"/>
        <pt x="1002" y="1252" on="0"/>
        <pt x="886" y="1252" on="1"/>
        <pt x="772" y="1252" on="0"/>
        <pt x="692" y="1196" on="1"/>
        <pt x="534" y="1086" on="0"/>
        <pt x="469" y="853" on="1"/>
        <pt x="433" y="724" on="0"/>
        <pt x="433" y="608" on="1"/>
        <pt x="433" y="394" on="0"/>
        <pt x="522" y="289" on="1"/>
        <pt x="594" y="204" on="0"/>
        <pt x="745" y="204" on="1"/>
        <pt x="808" y="204" on="0"/>
        <pt x="1039" y="308" on="0"/>
        <pt x="1137" y="308" on="0"/>
        <pt x="1171" y="259" on="0"/>
        <pt x="1171" y="150" on="0"/>
        <pt x="1132" y="97" on="0"/>
        <pt x="879" y="-27" on="0"/>
        <pt x="589" y="-27" on="0"/>
        <pt x="401" y="40" on="0"/>
        <pt x="252" y="189" on="0"/>
        <pt x="168" y="415" on="0"/>
      </contour>
      <contour>
        <pt x="559" y="-437" on="1"/>
        <pt x="536" y="-437" on="1"/>
        <pt x="425" y="-437" on="0"/>
        <pt x="425" y="-377" on="1"/>
        <pt x="425" y="-374" on="1"/>
        <pt x="426" y="-366" on="0"/>
        <pt x="450" y="-359" on="1"/>
        <pt x="584" y="-325" on="0"/>
        <pt x="584" y="-236" on="1"/>
        <pt x="584" y="-214" on="0"/>
        <pt x="540" y="-170" on="0"/>
        <pt x="540" y="-159" on="1"/>
        <pt x="540" y="-123" on="0"/>
        <pt x="623" y="-30" on="0"/>
        <pt x="659" y="-30" on="1"/>
        <pt x="682" y="-30" on="1"/>
        <pt x="732" y="-30" on="0"/>
        <pt x="732" y="-78" on="1"/>
        <pt x="737" y="-105" on="1"/>
        <pt x="737" y="-115" on="0"/>
        <pt x="770" y="-174" on="0"/>
        <pt x="770" y="-205" on="1"/>
        <pt x="769" y="-212" on="1"/>
        <pt x="769" y="-288" on="0"/>
        <pt x="634" y="-437" on="0"/>
      </contour>
    </TTGlyph>
    <TTGlyph name="D" xMin="91" yMin="7" xMax="1316" yMax="1426">
      <contour>
        <pt x="1062" y="829" on="1"/>
        <pt x="1062" y="874" on="1"/>
        <pt x="1062" y="1036" on="0"/>
        <pt x="903" y="1223" on="0"/>
        <pt x="762" y="1223" on="1"/>
        <pt x="702" y="1223" on="1"/>
        <pt x="615" y="1219" on="1"/>
        <pt x="554" y="1219" on="0"/>
        <pt x="544" y="1182" on="1"/>
        <pt x="516" y="1076" on="0"/>
        <pt x="413" y="480" on="0"/>
        <pt x="410" y="467" on="1"/>
        <pt x="395" y="386" on="1"/>
        <pt x="392" y="372" on="1"/>
        <pt x="390" y="358" on="1"/>
        <pt x="385" y="329" on="1"/>
        <pt x="379" y="301" on="1"/>
        <pt x="372" y="260" on="0"/>
        <pt x="372" y="258" on="1"/>
        <pt x="372" y="246" on="1"/>
        <pt x="372" y="210" on="0"/>
        <pt x="477" y="210" on="1"/>
        <pt x="536" y="210" on="1"/>
        <pt x="655" y="210" on="0"/>
        <pt x="827" y="283" on="0"/>
        <pt x="974" y="452" on="0"/>
        <pt x="1062" y="717" on="0"/>
      </contour>
      <contour>
        <pt x="1316" y="920" on="1"/>
        <pt x="1316" y="850" on="1"/>
        <pt x="1316" y="694" on="0"/>
        <pt x="1252" y="521" on="1"/>
        <pt x="1060" y="7" on="0"/>
        <pt x="481" y="7" on="1"/>
        <pt x="367" y="7" on="1"/>
        <pt x="344" y="8" on="1"/>
        <pt x="91" y="8" on="0"/>
        <pt x="91" y="49" on="1"/>
        <pt x="91" y="69" on="0"/>
        <pt x="141" y="318" on="0"/>
        <pt x="160" y="426" on="0"/>
        <pt x="164" y="448" on="1"/>
        <pt x="172" y="492" on="1"/>
        <pt x="181" y="536" on="1"/>
        <pt x="195" y="617" on="0"/>
        <pt x="204" y="660" on="0"/>
        <pt x="214" y="715" on="1"/>
        <pt x="226" y="781" on="1"/>
        <pt x="235" y="825" on="0"/>
        <pt x="243" y="870" on="1"/>
        <pt x="251" y="915" on="1"/>
        <pt x="276" y="1048" on="1"/>
        <pt x="296" y="1157" on="0"/>
        <pt x="313" y="1339" on="0"/>
        <pt x="338" y="1408" on="0"/>
        <pt x="438" y="1425" on="0"/>
        <pt x="626" y="1425" on="1"/>
        <pt x="694" y="1426" on="1"/>
        <pt x="765" y="1426" on="1"/>
        <pt x="1146" y="1426" on="0"/>
        <pt x="1272" y="1140" on="1"/>
        <pt x="1316" y="1039" on="0"/>
      </contour>
    </TTGlyph>
    <TTGlyph name="E" xMin="97" yMin="-1" xMax="1186" yMax="1418">
      <contour>
        <pt x="498" y="913" on="1"/>
        <pt x="498" y="867" on="0"/>
        <pt x="620" y="846" on="0"/>
        <pt x="945" y="837" on="0"/>
        <pt x="961" y="829" on="1"/>
        <pt x="998" y="811" on="0"/>
        <pt x="998" y="768" on="1"/>
        <pt x="998" y="676" on="0"/>
        <pt x="957" y="651" on="1"/>
        <pt x="931" y="635" on="0"/>
        <pt x="560" y="635" on="0"/>
        <pt x="478" y="614" on="0"/>
        <pt x="448" y="580" on="1"/>
        <pt x="389" y="513" on="0"/>
        <pt x="389" y="299" on="1"/>
        <pt x="389" y="239" on="0"/>
        <pt x="465" y="203" on="0"/>
        <pt x="624" y="203" on="0"/>
        <pt x="693" y="207" on="1"/>
        <pt x="795" y="213" on="1"/>
        <pt x="894" y="213" on="0"/>
        <pt x="972" y="171" on="0"/>
        <pt x="972" y="39" on="0"/>
        <pt x="896" y="11" on="1"/>
        <pt x="863" y="-1" on="0"/>
        <pt x="656" y="-1" on="1"/>
        <pt x="376" y="-1" on="1"/>
        <pt x="202" y="-1" on="0"/>
        <pt x="97" y="33" on="0"/>
        <pt x="97" y="162" on="0"/>
        <pt x="259" y="931" on="0"/>
        <pt x="267" y="984" on="1"/>
        <pt x="327" y="1361" on="0"/>
        <pt x="334" y="1372" on="1"/>
        <pt x="364" y="1418" on="0"/>
        <pt x="760" y="1418" on="1"/>
        <pt x="1041" y="1418" on="1"/>
        <pt x="1145" y="1418" on="0"/>
        <pt x="1186" y="1390" on="0"/>
        <pt x="1186" y="1359" on="1"/>
        <pt x="1186" y="1268" on="0"/>
        <pt x="1089" y="1201" on="0"/>
        <pt x="986" y="1201" on="1"/>
        <pt x="682" y="1212" on="1"/>
        <pt x="586" y="1212" on="0"/>
        <pt x="556" y="1166" on="1"/>
        <pt x="498" y="1077" on="0"/>
      </contour>
    </TTGlyph>
    <TTGlyph name="Eacute" xMin="98" yMin="20" xMax="1176" yMax="1937">
      <contour>
        <pt x="689" y="1602" on="1"/>
        <pt x="651" y="1602" on="0"/>
        <pt x="651" y="1628" on="1"/>
        <pt x="651" y="1633" on="1"/>
        <pt x="651" y="1690" on="0"/>
        <pt x="820" y="1880" on="1"/>
        <pt x="865" y="1931" on="0"/>
        <pt x="945" y="1931" on="1"/>
        <pt x="971" y="1934" on="1"/>
        <pt x="1002" y="1937" on="1"/>
        <pt x="1064" y="1937" on="1"/>
        <pt x="1095" y="1937" on="0"/>
        <pt x="1095" y="1914" on="1"/>
        <pt x="1095" y="1905" on="1"/>
        <pt x="1095" y="1856" on="0"/>
        <pt x="1010" y="1780" on="1"/>
        <pt x="818" y="1609" on="0"/>
        <pt x="771" y="1609" on="1"/>
        <pt x="753" y="1606" on="0"/>
        <pt x="752" y="1606" on="1"/>
        <pt x="714" y="1603" on="1"/>
        <pt x="708" y="1602" on="1"/>
      </contour>
      <contour>
        <pt x="874" y="240" on="1"/>
        <pt x="982" y="240" on="0"/>
        <pt x="983" y="144" on="1"/>
        <pt x="983" y="88" on="0"/>
        <pt x="940" y="45" on="0"/>
        <pt x="821" y="20" on="0"/>
        <pt x="598" y="20" on="1"/>
        <pt x="386" y="20" on="1"/>
        <pt x="231" y="20" on="0"/>
        <pt x="148" y="35" on="1"/>
        <pt x="98" y="44" on="0"/>
        <pt x="98" y="88" on="1"/>
        <pt x="98" y="208" on="0"/>
        <pt x="295" y="1166" on="0"/>
        <pt x="295" y="1243" on="1"/>
        <pt x="307" y="1385" on="0"/>
        <pt x="314" y="1404" on="1"/>
        <pt x="332" y="1451" on="0"/>
        <pt x="373" y="1461" on="1"/>
        <pt x="454" y="1480" on="0"/>
        <pt x="861" y="1480" on="1"/>
        <pt x="931" y="1480" on="1"/>
        <pt x="1075" y="1480" on="0"/>
        <pt x="1105" y="1473" on="1"/>
        <pt x="1176" y="1456" on="0"/>
        <pt x="1176" y="1410" on="1"/>
        <pt x="1176" y="1354" on="0"/>
        <pt x="1074" y="1250" on="0"/>
        <pt x="985" y="1250" on="1"/>
        <pt x="687" y="1263" on="1"/>
        <pt x="596" y="1263" on="0"/>
        <pt x="558" y="1189" on="1"/>
        <pt x="508" y="1093" on="0"/>
        <pt x="508" y="966" on="1"/>
        <pt x="508" y="916" on="0"/>
        <pt x="571" y="904" on="1"/>
        <pt x="621" y="894" on="0"/>
        <pt x="960" y="874" on="0"/>
        <pt x="966" y="871" on="1"/>
        <pt x="988" y="859" on="0"/>
        <pt x="988" y="711" on="0"/>
        <pt x="935" y="688" on="1"/>
        <pt x="918" y="681" on="0"/>
        <pt x="490" y="662" on="0"/>
        <pt x="440" y="620" on="0"/>
        <pt x="429" y="566" on="1"/>
        <pt x="392" y="392" on="0"/>
        <pt x="392" y="294" on="1"/>
        <pt x="392" y="257" on="0"/>
        <pt x="465" y="228" on="0"/>
        <pt x="617" y="228" on="0"/>
        <pt x="734" y="233" on="1"/>
        <pt x="769" y="235" on="1"/>
        <pt x="804" y="238" on="1"/>
        <pt x="832" y="240" on="0"/>
      </contour>
    </TTGlyph>
    <TTGlyph name="Ecircumflex" xMin="94" yMin="16" xMax="1176" yMax="1930">
      <contour>
        <pt x="534" y="1589" on="1"/>
        <pt x="518" y="1589" on="1"/>
        <pt x="480" y="1589" on="0"/>
        <pt x="480" y="1604" on="1"/>
        <pt x="480" y="1611" on="1"/>
        <pt x="480" y="1651" on="0"/>
        <pt x="688" y="1843" on="1"/>
        <pt x="782" y="1930" on="0"/>
        <pt x="899" y="1930" on="0"/>
        <pt x="949" y="1876" on="1"/>
        <pt x="1101" y="1710" on="0"/>
        <pt x="1101" y="1644" on="1"/>
        <pt x="1101" y="1628" on="1"/>
        <pt x="1101" y="1590" on="0"/>
        <pt x="972" y="1590" on="0"/>
        <pt x="914" y="1648" on="1"/>
        <pt x="819" y="1743" on="0"/>
        <pt x="811" y="1743" on="0"/>
        <pt x="743" y="1690" on="0"/>
        <pt x="606" y="1592" on="0"/>
        <pt x="560" y="1592" on="1"/>
        <pt x="536" y="1589" on="0"/>
      </contour>
      <contour>
        <pt x="600" y="16" on="1"/>
        <pt x="389" y="16" on="1"/>
        <pt x="162" y="16" on="0"/>
        <pt x="94" y="52" on="0"/>
        <pt x="94" y="202" on="0"/>
        <pt x="284" y="1116" on="0"/>
        <pt x="304" y="1376" on="0"/>
        <pt x="312" y="1394" on="1"/>
        <pt x="331" y="1439" on="0"/>
        <pt x="427" y="1460" on="0"/>
        <pt x="615" y="1460" on="1"/>
        <pt x="722" y="1463" on="1"/>
        <pt x="900" y="1465" on="1"/>
        <pt x="935" y="1465" on="1"/>
        <pt x="1080" y="1465" on="0"/>
        <pt x="1108" y="1458" on="1"/>
        <pt x="1176" y="1441" on="0"/>
        <pt x="1176" y="1396" on="1"/>
        <pt x="1176" y="1331" on="0"/>
        <pt x="1079" y="1234" on="0"/>
        <pt x="986" y="1234" on="1"/>
        <pt x="922" y="1238" on="1"/>
        <pt x="900" y="1239" on="0"/>
        <pt x="730" y="1249" on="0"/>
        <pt x="718" y="1249" on="1"/>
        <pt x="609" y="1249" on="0"/>
        <pt x="569" y="1199" on="1"/>
        <pt x="551" y="1176" on="0"/>
        <pt x="504" y="984" on="0"/>
        <pt x="504" y="953" on="1"/>
        <pt x="504" y="907" on="0"/>
        <pt x="635" y="883" on="0"/>
        <pt x="956" y="869" on="0"/>
        <pt x="985" y="851" on="0"/>
        <pt x="985" y="813" on="1"/>
        <pt x="985" y="699" on="0"/>
        <pt x="932" y="677" on="1"/>
        <pt x="919" y="672" on="0"/>
        <pt x="485" y="653" on="0"/>
        <pt x="435" y="607" on="0"/>
        <pt x="425" y="555" on="1"/>
        <pt x="393" y="388" on="0"/>
        <pt x="393" y="286" on="1"/>
        <pt x="393" y="249" on="0"/>
        <pt x="437" y="233" on="1"/>
        <pt x="462" y="224" on="0"/>
        <pt x="666" y="224" on="0"/>
        <pt x="842" y="240" on="0"/>
        <pt x="923" y="240" on="0"/>
        <pt x="988" y="202" on="0"/>
        <pt x="988" y="58" on="0"/>
        <pt x="913" y="33" on="1"/>
        <pt x="863" y="16" on="0"/>
      </contour>
    </TTGlyph>
    <TTGlyph name="Edieresis" xMin="110" yMin="24" xMax="1192" yMax="1850">
      <contour>
        <pt x="760" y="1768" on="1"/>
        <pt x="760" y="1735" on="1"/>
        <pt x="757" y="1723" on="0"/>
        <pt x="757" y="1682" on="0"/>
        <pt x="697" y="1610" on="0"/>
        <pt x="662" y="1610" on="1"/>
        <pt x="654" y="1608" on="0"/>
        <pt x="650" y="1608" on="1"/>
        <pt x="633" y="1606" on="1"/>
        <pt x="608" y="1606" on="1"/>
        <pt x="515" y="1606" on="0"/>
        <pt x="515" y="1672" on="1"/>
        <pt x="512" y="1692" on="1"/>
        <pt x="512" y="1717" on="1"/>
        <pt x="512" y="1770" on="0"/>
        <pt x="576" y="1847" on="0"/>
        <pt x="614" y="1847" on="1"/>
        <pt x="635" y="1850" on="1"/>
        <pt x="668" y="1850" on="1"/>
        <pt x="708" y="1850" on="0"/>
        <pt x="760" y="1807" on="0"/>
      </contour>
      <contour>
        <pt x="1157" y="1768" on="1"/>
        <pt x="1157" y="1735" on="1"/>
        <pt x="1154" y="1723" on="0"/>
        <pt x="1154" y="1682" on="0"/>
        <pt x="1093" y="1609" on="0"/>
        <pt x="1055" y="1609" on="1"/>
        <pt x="1035" y="1606" on="1"/>
        <pt x="1001" y="1606" on="1"/>
        <pt x="989" y="1609" on="0"/>
        <pt x="981" y="1609" on="1"/>
        <pt x="909" y="1609" on="0"/>
        <pt x="909" y="1691" on="1"/>
        <pt x="909" y="1712" on="1"/>
        <pt x="910" y="1716" on="1"/>
        <pt x="910" y="1725" on="1"/>
        <pt x="912" y="1733" on="0"/>
        <pt x="912" y="1737" on="1"/>
        <pt x="912" y="1774" on="0"/>
        <pt x="971" y="1845" on="0"/>
        <pt x="1003" y="1845" on="1"/>
        <pt x="1015" y="1848" on="0"/>
        <pt x="1019" y="1848" on="1"/>
        <pt x="1040" y="1850" on="1"/>
        <pt x="1061" y="1850" on="1"/>
        <pt x="1110" y="1850" on="0"/>
        <pt x="1157" y="1803" on="0"/>
      </contour>
      <contour>
        <pt x="581" y="24" on="1"/>
        <pt x="406" y="24" on="1"/>
        <pt x="180" y="24" on="0"/>
        <pt x="110" y="60" on="0"/>
        <pt x="110" y="117" on="1"/>
        <pt x="110" y="225" on="0"/>
        <pt x="298" y="1101" on="0"/>
        <pt x="325" y="1392" on="0"/>
        <pt x="329" y="1402" on="1"/>
        <pt x="348" y="1447" on="0"/>
        <pt x="454" y="1470" on="0"/>
        <pt x="704" y="1470" on="1"/>
        <pt x="774" y="1472" on="1"/>
        <pt x="916" y="1473" on="1"/>
        <pt x="987" y="1473" on="1"/>
        <pt x="1097" y="1473" on="0"/>
        <pt x="1125" y="1466" on="1"/>
        <pt x="1192" y="1449" on="0"/>
        <pt x="1192" y="1404" on="1"/>
        <pt x="1192" y="1338" on="0"/>
        <pt x="1096" y="1242" on="0"/>
        <pt x="1002" y="1242" on="1"/>
        <pt x="971" y="1245" on="1"/>
        <pt x="869" y="1250" on="1"/>
        <pt x="745" y="1257" on="0"/>
        <pt x="704" y="1257" on="1"/>
        <pt x="608" y="1257" on="0"/>
        <pt x="571" y="1185" on="1"/>
        <pt x="521" y="1089" on="0"/>
        <pt x="521" y="961" on="1"/>
        <pt x="521" y="914" on="0"/>
        <pt x="659" y="891" on="0"/>
        <pt x="972" y="877" on="0"/>
        <pt x="1001" y="859" on="0"/>
        <pt x="1001" y="707" on="0"/>
        <pt x="948" y="685" on="1"/>
        <pt x="935" y="680" on="0"/>
        <pt x="502" y="661" on="0"/>
        <pt x="452" y="615" on="0"/>
        <pt x="441" y="563" on="1"/>
        <pt x="409" y="408" on="0"/>
        <pt x="409" y="267" on="0"/>
        <pt x="460" y="231" on="0"/>
        <pt x="546" y="231" on="1"/>
        <pt x="581" y="232" on="1"/>
        <pt x="617" y="233" on="0"/>
        <pt x="690" y="233" on="0"/>
        <pt x="758" y="238" on="1"/>
        <pt x="791" y="241" on="1"/>
        <pt x="825" y="245" on="1"/>
        <pt x="854" y="248" on="0"/>
        <pt x="942" y="248" on="0"/>
        <pt x="1004" y="211" on="0"/>
        <pt x="1004" y="66" on="0"/>
        <pt x="929" y="41" on="1"/>
        <pt x="879" y="24" on="0"/>
      </contour>
    </TTGlyph>
    <TTGlyph name="Egrave" xMin="94" yMin="21" xMax="1176" yMax="1931">
      <contour>
        <pt x="651" y="1931" on="1"/>
        <pt x="686" y="1924" on="0"/>
        <pt x="708" y="1924" on="1"/>
        <pt x="761" y="1924" on="0"/>
        <pt x="794" y="1874" on="1"/>
        <pt x="904" y="1709" on="0"/>
        <pt x="904" y="1641" on="1"/>
        <pt x="903" y="1636" on="1"/>
        <pt x="903" y="1631" on="1"/>
        <pt x="903" y="1592" on="0"/>
        <pt x="851" y="1592" on="1"/>
        <pt x="845" y="1593" on="1"/>
        <pt x="833" y="1593" on="1"/>
        <pt x="810" y="1595" on="1"/>
        <pt x="748" y="1595" on="0"/>
        <pt x="687" y="1664" on="1"/>
        <pt x="536" y="1834" on="0"/>
        <pt x="536" y="1885" on="1"/>
        <pt x="537" y="1890" on="1"/>
        <pt x="537" y="1895" on="1"/>
        <pt x="537" y="1931" on="0"/>
        <pt x="587" y="1931" on="1"/>
      </contour>
      <contour>
        <pt x="600" y="21" on="1"/>
        <pt x="389" y="21" on="1"/>
        <pt x="163" y="21" on="0"/>
        <pt x="94" y="56" on="0"/>
        <pt x="94" y="207" on="0"/>
        <pt x="284" y="1120" on="0"/>
        <pt x="304" y="1381" on="0"/>
        <pt x="312" y="1399" on="1"/>
        <pt x="332" y="1444" on="0"/>
        <pt x="372" y="1453" on="1"/>
        <pt x="437" y="1467" on="0"/>
        <pt x="687" y="1467" on="1"/>
        <pt x="758" y="1469" on="1"/>
        <pt x="900" y="1470" on="1"/>
        <pt x="970" y="1470" on="1"/>
        <pt x="1080" y="1470" on="0"/>
        <pt x="1108" y="1463" on="1"/>
        <pt x="1176" y="1446" on="0"/>
        <pt x="1176" y="1401" on="1"/>
        <pt x="1176" y="1336" on="0"/>
        <pt x="1079" y="1239" on="0"/>
        <pt x="986" y="1239" on="1"/>
        <pt x="955" y="1242" on="1"/>
        <pt x="853" y="1247" on="1"/>
        <pt x="730" y="1254" on="0"/>
        <pt x="687" y="1254" on="1"/>
        <pt x="591" y="1254" on="0"/>
        <pt x="555" y="1182" on="1"/>
        <pt x="504" y="1080" on="0"/>
        <pt x="504" y="958" on="1"/>
        <pt x="504" y="911" on="0"/>
        <pt x="643" y="888" on="0"/>
        <pt x="955" y="874" on="0"/>
        <pt x="985" y="856" on="0"/>
        <pt x="985" y="818" on="1"/>
        <pt x="985" y="704" on="0"/>
        <pt x="932" y="682" on="1"/>
        <pt x="919" y="677" on="0"/>
        <pt x="485" y="658" on="0"/>
        <pt x="435" y="612" on="0"/>
        <pt x="425" y="560" on="1"/>
        <pt x="392" y="387" on="0"/>
        <pt x="392" y="264" on="0"/>
        <pt x="443" y="228" on="0"/>
        <pt x="529" y="228" on="1"/>
        <pt x="565" y="229" on="1"/>
        <pt x="601" y="230" on="0"/>
        <pt x="673" y="230" on="0"/>
        <pt x="741" y="235" on="1"/>
        <pt x="775" y="238" on="1"/>
        <pt x="808" y="242" on="1"/>
        <pt x="837" y="245" on="0"/>
        <pt x="925" y="245" on="0"/>
        <pt x="988" y="208" on="0"/>
        <pt x="988" y="63" on="0"/>
        <pt x="913" y="38" on="1"/>
        <pt x="863" y="21" on="0"/>
      </contour>
    </TTGlyph>
    <TTGlyph name="Eth" xMin="81" yMin="8" xMax="1382" yMax="1455">
      <contour>
        <pt x="1116" y="817" on="1"/>
        <pt x="1116" y="890" on="1"/>
        <pt x="1116" y="966" on="0"/>
        <pt x="1055" y="1123" on="0"/>
        <pt x="1007" y="1167" on="1"/>
        <pt x="920" y="1247" on="0"/>
        <pt x="729" y="1247" on="1"/>
        <pt x="712" y="1246" on="1"/>
        <pt x="594" y="1246" on="0"/>
        <pt x="572" y="1201" on="1"/>
        <pt x="520" y="1093" on="0"/>
        <pt x="520" y="884" on="1"/>
        <pt x="520" y="824" on="0"/>
        <pt x="677" y="824" on="1"/>
        <pt x="767" y="824" on="0"/>
        <pt x="767" y="793" on="1"/>
        <pt x="767" y="713" on="0"/>
        <pt x="732" y="652" on="0"/>
        <pt x="497" y="652" on="0"/>
        <pt x="469" y="607" on="1"/>
        <pt x="460" y="593" on="0"/>
        <pt x="408" y="289" on="0"/>
        <pt x="408" y="273" on="1"/>
        <pt x="408" y="216" on="0"/>
        <pt x="466" y="216" on="1"/>
        <pt x="536" y="216" on="1"/>
        <pt x="687" y="216" on="0"/>
        <pt x="869" y="286" on="0"/>
        <pt x="1022" y="447" on="0"/>
        <pt x="1116" y="704" on="0"/>
      </contour>
      <contour>
        <pt x="1382" y="882" on="1"/>
        <pt x="1382" y="856" on="1"/>
        <pt x="1382" y="668" on="0"/>
        <pt x="1309" y="496" on="1"/>
        <pt x="1169" y="166" on="0"/>
        <pt x="845" y="54" on="1"/>
        <pt x="713" y="8" on="0"/>
        <pt x="447" y="8" on="1"/>
        <pt x="397" y="8" on="1"/>
        <pt x="117" y="8" on="0"/>
        <pt x="117" y="49" on="1"/>
        <pt x="117" y="75" on="0"/>
        <pt x="205" y="555" on="0"/>
        <pt x="205" y="601" on="1"/>
        <pt x="205" y="641" on="0"/>
        <pt x="81" y="670" on="0"/>
        <pt x="81" y="710" on="1"/>
        <pt x="81" y="780" on="0"/>
        <pt x="119" y="812" on="1"/>
        <pt x="131" y="822" on="0"/>
        <pt x="199" y="831" on="0"/>
        <pt x="204" y="833" on="1"/>
        <pt x="245" y="848" on="0"/>
        <pt x="258" y="886" on="1"/>
        <pt x="320" y="1068" on="0"/>
        <pt x="320" y="1310" on="1"/>
        <pt x="320" y="1408" on="0"/>
        <pt x="387" y="1451" on="0"/>
        <pt x="520" y="1451" on="1"/>
        <pt x="545" y="1452" on="1"/>
        <pt x="570" y="1453" on="0"/>
        <pt x="594" y="1453" on="1"/>
        <pt x="719" y="1455" on="1"/>
        <pt x="904" y="1454" on="0"/>
        <pt x="1009" y="1426" on="1"/>
        <pt x="1235" y="1365" on="0"/>
        <pt x="1331" y="1151" on="1"/>
        <pt x="1382" y="1036" on="0"/>
      </contour>
    </TTGlyph>
    <TTGlyph name="Euro" xMin="85" yMin="-1" xMax="1260" yMax="1414">
      <contour>
        <pt x="643" y="644" on="1"/>
        <pt x="867" y="644" on="0"/>
        <pt x="867" y="588" on="1"/>
        <pt x="867" y="543" on="0"/>
        <pt x="804" y="506" on="1"/>
        <pt x="780" y="492" on="0"/>
        <pt x="623" y="465" on="0"/>
        <pt x="563" y="439" on="1"/>
        <pt x="527" y="423" on="0"/>
        <pt x="527" y="332" on="0"/>
        <pt x="642" y="225" on="0"/>
        <pt x="737" y="225" on="1"/>
        <pt x="788" y="225" on="0"/>
        <pt x="1012" y="264" on="0"/>
        <pt x="1036" y="264" on="1"/>
        <pt x="1080" y="264" on="0"/>
        <pt x="1080" y="187" on="1"/>
        <pt x="1080" y="125" on="0"/>
        <pt x="831" y="-1" on="0"/>
        <pt x="707" y="-1" on="1"/>
        <pt x="386" y="-1" on="0"/>
        <pt x="283" y="256" on="1"/>
        <pt x="225" y="398" on="0"/>
        <pt x="198" y="438" on="0"/>
        <pt x="85" y="495" on="0"/>
        <pt x="85" y="599" on="0"/>
        <pt x="118" y="623" on="1"/>
        <pt x="132" y="633" on="0"/>
        <pt x="227" y="650" on="0"/>
        <pt x="246" y="681" on="0"/>
        <pt x="246" y="728" on="1"/>
        <pt x="246" y="753" on="0"/>
        <pt x="142" y="789" on="0"/>
        <pt x="142" y="855" on="0"/>
        <pt x="203" y="928" on="0"/>
        <pt x="237" y="944" on="1"/>
        <pt x="268" y="956" on="1"/>
        <pt x="297" y="970" on="1"/>
        <pt x="324" y="987" on="0"/>
        <pt x="398" y="1100" on="1"/>
        <pt x="605" y="1414" on="0"/>
        <pt x="940" y="1414" on="1"/>
        <pt x="1064" y="1414" on="0"/>
        <pt x="1260" y="1308" on="0"/>
        <pt x="1260" y="1239" on="1"/>
        <pt x="1260" y="1200" on="0"/>
        <pt x="1195" y="1140" on="0"/>
        <pt x="1142" y="1140" on="1"/>
        <pt x="1131" y="1140" on="0"/>
        <pt x="907" y="1187" on="0"/>
        <pt x="795" y="1187" on="0"/>
        <pt x="632" y="1058" on="0"/>
        <pt x="632" y="1003" on="1"/>
        <pt x="632" y="963" on="0"/>
        <pt x="956" y="911" on="0"/>
        <pt x="956" y="886" on="1"/>
        <pt x="956" y="811" on="0"/>
        <pt x="874" y="770" on="0"/>
        <pt x="587" y="770" on="0"/>
        <pt x="557" y="757" on="1"/>
        <pt x="508" y="736" on="0"/>
        <pt x="508" y="644" on="0"/>
      </contour>
    </TTGlyph>
    <TTGlyph name="F" xMin="104" yMin="20" xMax="1174" yMax="1418">
      <contour>
        <pt x="503" y="882" on="1"/>
        <pt x="503" y="844" on="0"/>
        <pt x="561" y="819" on="0"/>
        <pt x="915" y="819" on="0"/>
        <pt x="985" y="788" on="0"/>
        <pt x="985" y="746" on="1"/>
        <pt x="985" y="651" on="0"/>
        <pt x="925" y="624" on="1"/>
        <pt x="902" y="614" on="0"/>
        <pt x="528" y="600" on="0"/>
        <pt x="437" y="521" on="0"/>
        <pt x="402" y="428" on="0"/>
        <pt x="338" y="98" on="0"/>
        <pt x="322" y="69" on="1"/>
        <pt x="294" y="20" on="0"/>
        <pt x="104" y="20" on="0"/>
        <pt x="104" y="81" on="1"/>
        <pt x="129" y="220" on="1"/>
        <pt x="135" y="248" on="1"/>
        <pt x="137" y="256" on="0"/>
        <pt x="157" y="374" on="0"/>
        <pt x="166" y="414" on="1"/>
        <pt x="176" y="470" on="1"/>
        <pt x="206" y="629" on="0"/>
        <pt x="225" y="755" on="0"/>
        <pt x="329" y="1353" on="0"/>
        <pt x="331" y="1357" on="1"/>
        <pt x="367" y="1413" on="0"/>
        <pt x="746" y="1413" on="1"/>
        <pt x="802" y="1415" on="1"/>
        <pt x="1002" y="1418" on="1"/>
        <pt x="1088" y="1418" on="1"/>
        <pt x="1174" y="1418" on="0"/>
        <pt x="1174" y="1366" on="1"/>
        <pt x="1174" y="1276" on="0"/>
        <pt x="1132" y="1239" on="1"/>
        <pt x="1106" y="1216" on="0"/>
        <pt x="1000" y="1216" on="1"/>
        <pt x="950" y="1218" on="1"/>
        <pt x="870" y="1218" on="1"/>
        <pt x="729" y="1215" on="1"/>
        <pt x="596" y="1215" on="0"/>
        <pt x="566" y="1171" on="1"/>
        <pt x="503" y="1078" on="0"/>
      </contour>
    </TTGlyph>
    <TTGlyph name="G" xMin="149" yMin="-27" xMax="1307" yMax="1440">
      <contour>
        <pt x="149" y="613" on="1"/>
        <pt x="149" y="772" on="0"/>
        <pt x="281" y="1099" on="0"/>
        <pt x="502" y="1333" on="0"/>
        <pt x="773" y="1440" on="0"/>
        <pt x="1073" y="1440" on="0"/>
        <pt x="1177" y="1396" on="1"/>
        <pt x="1307" y="1341" on="0"/>
        <pt x="1307" y="1267" on="1"/>
        <pt x="1307" y="1226" on="0"/>
        <pt x="1241" y="1154" on="0"/>
        <pt x="1156" y="1154" on="0"/>
        <pt x="938" y="1221" on="0"/>
        <pt x="766" y="1221" on="0"/>
        <pt x="590" y="1120" on="0"/>
        <pt x="526" y="1026" on="1"/>
        <pt x="402" y="844" on="0"/>
        <pt x="402" y="597" on="1"/>
        <pt x="402" y="418" on="0"/>
        <pt x="592" y="240" on="0"/>
        <pt x="745" y="240" on="1"/>
        <pt x="839" y="240" on="0"/>
        <pt x="988" y="340" on="0"/>
        <pt x="988" y="410" on="1"/>
        <pt x="988" y="440" on="0"/>
        <pt x="920" y="479" on="1"/>
        <pt x="853" y="518" on="0"/>
        <pt x="853" y="583" on="1"/>
        <pt x="853" y="625" on="0"/>
        <pt x="877" y="636" on="1"/>
        <pt x="924" y="657" on="0"/>
        <pt x="1144" y="657" on="0"/>
        <pt x="1208" y="603" on="0"/>
        <pt x="1208" y="464" on="0"/>
        <pt x="1157" y="257" on="1"/>
        <pt x="1131" y="153" on="0"/>
        <pt x="1054" y="63" on="0"/>
        <pt x="767" y="-27" on="0"/>
        <pt x="575" y="-27" on="0"/>
        <pt x="387" y="59" on="0"/>
        <pt x="226" y="238" on="0"/>
        <pt x="149" y="463" on="0"/>
        <pt x="149" y="575" on="1"/>
      </contour>
    </TTGlyph>
    <TTGlyph name="H" xMin="98" yMin="16" xMax="1380" yMax="1399">
      <contour>
        <pt x="1318" y="1399" on="1"/>
        <pt x="1380" y="1399" on="0"/>
        <pt x="1380" y="1366" on="1"/>
        <pt x="1380" y="1243" on="0"/>
        <pt x="1251" y="665" on="0"/>
        <pt x="1152" y="102" on="0"/>
        <pt x="1135" y="50" on="0"/>
        <pt x="1090" y="29" on="0"/>
        <pt x="904" y="29" on="0"/>
        <pt x="904" y="104" on="1"/>
        <pt x="904" y="134" on="0"/>
        <pt x="983" y="546" on="0"/>
        <pt x="983" y="629" on="0"/>
        <pt x="936" y="654" on="0"/>
        <pt x="893" y="654" on="1"/>
        <pt x="499" y="654" on="0"/>
        <pt x="453" y="597" on="1"/>
        <pt x="431" y="570" on="0"/>
        <pt x="345" y="115" on="0"/>
        <pt x="325" y="74" on="1"/>
        <pt x="297" y="16" on="0"/>
        <pt x="201" y="16" on="1"/>
        <pt x="166" y="16" on="1"/>
        <pt x="98" y="16" on="0"/>
        <pt x="98" y="52" on="1"/>
        <pt x="98" y="74" on="0"/>
        <pt x="209" y="570" on="0"/>
        <pt x="296" y="1160" on="0"/>
        <pt x="333" y="1312" on="1"/>
        <pt x="342" y="1351" on="0"/>
        <pt x="382" y="1373" on="0"/>
        <pt x="517" y="1373" on="0"/>
        <pt x="554" y="1343" on="0"/>
        <pt x="554" y="1282" on="1"/>
        <pt x="504" y="911" on="1"/>
        <pt x="504" y="862" on="0"/>
        <pt x="559" y="831" on="0"/>
        <pt x="669" y="831" on="1"/>
        <pt x="882" y="824" on="1"/>
        <pt x="951" y="822" on="1"/>
        <pt x="1021" y="822" on="0"/>
        <pt x="1046" y="873" on="1"/>
        <pt x="1050" y="880" on="0"/>
        <pt x="1110" y="1134" on="0"/>
        <pt x="1142" y="1300" on="0"/>
        <pt x="1154" y="1323" on="1"/>
        <pt x="1193" y="1399" on="0"/>
      </contour>
    </TTGlyph>
    <TTGlyph name="I" xMin="124" yMin="2" xMax="648" yMax="1420">
      <contour>
        <pt x="276" y="4" on="0"/>
        <pt x="164" y="4" on="0"/>
        <pt x="124" y="33" on="0"/>
        <pt x="124" y="113" on="0"/>
        <pt x="191" y="327" on="1"/>
        <pt x="203" y="365" on="0"/>
        <pt x="322" y="995" on="0"/>
        <pt x="322" y="1121" on="1"/>
        <pt x="317" y="1211" on="1"/>
        <pt x="317" y="1355" on="0"/>
        <pt x="373" y="1395" on="1"/>
        <pt x="408" y="1420" on="0"/>
        <pt x="562" y="1420" on="1"/>
        <pt x="598" y="1420" on="1"/>
        <pt x="648" y="1420" on="0"/>
        <pt x="648" y="1353" on="1"/>
        <pt x="648" y="1326" on="0"/>
        <pt x="588" y="1106" on="1"/>
        <pt x="577" y="1064" on="0"/>
        <pt x="449" y="390" on="0"/>
        <pt x="449" y="109" on="0"/>
        <pt x="390" y="2" on="0"/>
        <pt x="327" y="2" on="1"/>
        <pt x="310" y="2" on="1"/>
      </contour>
    </TTGlyph>
    <TTGlyph name="Iacute" xMin="136" yMin="22" xMax="835" yMax="1921">
      <contour>
        <pt x="428" y="1596" on="1"/>
        <pt x="391" y="1596" on="0"/>
        <pt x="391" y="1618" on="1"/>
        <pt x="391" y="1622" on="1"/>
        <pt x="391" y="1677" on="0"/>
        <pt x="554" y="1860" on="1"/>
        <pt x="601" y="1913" on="0"/>
        <pt x="662" y="1913" on="1"/>
        <pt x="674" y="1915" on="0"/>
        <pt x="681" y="1915" on="1"/>
        <pt x="693" y="1917" on="1"/>
        <pt x="755" y="1921" on="1"/>
        <pt x="785" y="1921" on="1"/>
        <pt x="835" y="1921" on="0"/>
        <pt x="835" y="1899" on="1"/>
        <pt x="835" y="1849" on="0"/>
        <pt x="750" y="1773" on="1"/>
        <pt x="556" y="1601" on="0"/>
        <pt x="496" y="1601" on="1"/>
        <pt x="484" y="1599" on="0"/>
        <pt x="477" y="1599" on="1"/>
        <pt x="446" y="1596" on="1"/>
      </contour>
      <contour>
        <pt x="619" y="1417" on="1"/>
        <pt x="619" y="1387" on="1"/>
        <pt x="619" y="1339" on="0"/>
        <pt x="585" y="1205" on="0"/>
        <pt x="549" y="983" on="0"/>
        <pt x="543" y="952" on="1"/>
        <pt x="522" y="825" on="1"/>
        <pt x="431" y="279" on="0"/>
        <pt x="431" y="193" on="1"/>
        <pt x="431" y="22" on="0"/>
        <pt x="328" y="22" on="1"/>
        <pt x="174" y="22" on="0"/>
        <pt x="136" y="54" on="0"/>
        <pt x="136" y="98" on="1"/>
        <pt x="136" y="107" on="0"/>
        <pt x="320" y="1053" on="0"/>
        <pt x="320" y="1189" on="1"/>
        <pt x="318" y="1203" on="1"/>
        <pt x="315" y="1233" on="1"/>
        <pt x="312" y="1262" on="0"/>
        <pt x="312" y="1278" on="1"/>
        <pt x="312" y="1417" on="0"/>
        <pt x="365" y="1451" on="1"/>
        <pt x="399" y="1473" on="0"/>
        <pt x="556" y="1473" on="1"/>
        <pt x="619" y="1473" on="0"/>
      </contour>
    </TTGlyph>
    <TTGlyph name="Icircumflex" xMin="118" yMin="17" xMax="821" yMax="1910">
      <contour>
        <pt x="510" y="1910" on="0"/>
        <pt x="621" y="1910" on="0"/>
        <pt x="661" y="1866" on="1"/>
        <pt x="821" y="1691" on="0"/>
        <pt x="821" y="1617" on="1"/>
        <pt x="821" y="1582" on="0"/>
        <pt x="686" y="1582" on="0"/>
        <pt x="633" y="1635" on="1"/>
        <pt x="540" y="1728" on="0"/>
        <pt x="534" y="1728" on="1"/>
        <pt x="530" y="1728" on="0"/>
        <pt x="478" y="1688" on="1"/>
        <pt x="340" y="1581" on="0"/>
        <pt x="257" y="1581" on="1"/>
        <pt x="248" y="1582" on="1"/>
        <pt x="201" y="1582" on="0"/>
        <pt x="201" y="1602" on="1"/>
        <pt x="201" y="1672" on="0"/>
        <pt x="441" y="1857" on="1"/>
      </contour>
      <contour>
        <pt x="603" y="1403" on="1"/>
        <pt x="603" y="1373" on="1"/>
        <pt x="603" y="1332" on="0"/>
        <pt x="572" y="1202" on="0"/>
        <pt x="552" y="1084" on="0"/>
        <pt x="545" y="1048" on="1"/>
        <pt x="521" y="904" on="1"/>
        <pt x="515" y="874" on="0"/>
        <pt x="464" y="568" on="1"/>
        <pt x="413" y="260" on="0"/>
        <pt x="413" y="182" on="1"/>
        <pt x="413" y="17" on="0"/>
        <pt x="325" y="17" on="1"/>
        <pt x="325" y="17" on="0"/>
        <pt x="324" y="17" on="1"/>
        <pt x="308" y="17" on="1"/>
        <pt x="292" y="18" on="1"/>
        <pt x="154" y="18" on="0"/>
        <pt x="118" y="47" on="0"/>
        <pt x="118" y="159" on="0"/>
        <pt x="172" y="339" on="0"/>
        <pt x="176" y="359" on="1"/>
        <pt x="304" y="1114" on="0"/>
        <pt x="304" y="1180" on="1"/>
        <pt x="298" y="1270" on="1"/>
        <pt x="298" y="1390" on="0"/>
        <pt x="370" y="1459" on="0"/>
        <pt x="524" y="1459" on="1"/>
        <pt x="560" y="1459" on="1"/>
        <pt x="603" y="1459" on="0"/>
      </contour>
    </TTGlyph>
    <TTGlyph name="Idieresis" xMin="149" yMin="20" xMax="880" yMax="1839">
      <contour>
        <pt x="250" y="1699" on="1"/>
        <pt x="253" y="1732" on="1"/>
        <pt x="253" y="1762" on="0"/>
        <pt x="315" y="1836" on="0"/>
        <pt x="352" y="1836" on="1"/>
        <pt x="372" y="1839" on="1"/>
        <pt x="400" y="1839" on="1"/>
        <pt x="446" y="1839" on="0"/>
        <pt x="495" y="1790" on="0"/>
        <pt x="495" y="1752" on="1"/>
        <pt x="495" y="1727" on="1"/>
        <pt x="495" y="1668" on="0"/>
        <pt x="447" y="1620" on="1"/>
        <pt x="422" y="1595" on="0"/>
        <pt x="365" y="1595" on="1"/>
        <pt x="352" y="1595" on="1"/>
        <pt x="249" y="1595" on="0"/>
        <pt x="249" y="1691" on="1"/>
        <pt x="249" y="1695" on="1"/>
      </contour>
      <contour>
        <pt x="880" y="1756" on="1"/>
        <pt x="880" y="1723" on="1"/>
        <pt x="877" y="1711" on="0"/>
        <pt x="877" y="1672" on="0"/>
        <pt x="815" y="1598" on="0"/>
        <pt x="775" y="1598" on="1"/>
        <pt x="751" y="1595" on="1"/>
        <pt x="734" y="1595" on="1"/>
        <pt x="635" y="1595" on="0"/>
        <pt x="635" y="1690" on="1"/>
        <pt x="635" y="1698" on="1"/>
        <pt x="635" y="1758" on="0"/>
        <pt x="703" y="1839" on="0"/>
        <pt x="757" y="1839" on="1"/>
        <pt x="785" y="1839" on="1"/>
        <pt x="831" y="1839" on="0"/>
        <pt x="880" y="1790" on="0"/>
      </contour>
      <contour>
        <pt x="149" y="79" on="1"/>
        <pt x="149" y="110" on="1"/>
        <pt x="149" y="163" on="0"/>
        <pt x="201" y="328" on="0"/>
        <pt x="252" y="636" on="0"/>
        <pt x="258" y="666" on="1"/>
        <pt x="335" y="1073" on="0"/>
        <pt x="335" y="1183" on="1"/>
        <pt x="333" y="1198" on="1"/>
        <pt x="328" y="1273" on="1"/>
        <pt x="328" y="1410" on="0"/>
        <pt x="382" y="1441" on="1"/>
        <pt x="418" y="1462" on="0"/>
        <pt x="573" y="1462" on="1"/>
        <pt x="634" y="1462" on="0"/>
        <pt x="634" y="1406" on="1"/>
        <pt x="634" y="1376" on="1"/>
        <pt x="634" y="1325" on="0"/>
        <pt x="443" y="343" on="0"/>
        <pt x="443" y="109" on="0"/>
        <pt x="402" y="20" on="0"/>
        <pt x="354" y="20" on="1"/>
        <pt x="322" y="20" on="1"/>
        <pt x="222" y="20" on="0"/>
        <pt x="174" y="35" on="1"/>
        <pt x="149" y="43" on="0"/>
      </contour>
    </TTGlyph>
    <TTGlyph name="Igrave" xMin="120" yMin="22" xMax="629" yMax="1916">
      <contour>
        <pt x="628" y="1624" on="1"/>
        <pt x="628" y="1588" on="0"/>
        <pt x="576" y="1588" on="1"/>
        <pt x="570" y="1588" on="1"/>
        <pt x="564" y="1589" on="1"/>
        <pt x="541" y="1590" on="1"/>
        <pt x="472" y="1590" on="0"/>
        <pt x="424" y="1645" on="1"/>
        <pt x="265" y="1827" on="0"/>
        <pt x="265" y="1870" on="1"/>
        <pt x="265" y="1888" on="1"/>
        <pt x="265" y="1916" on="0"/>
        <pt x="317" y="1916" on="1"/>
        <pt x="379" y="1916" on="1"/>
        <pt x="402" y="1913" on="1"/>
        <pt x="424" y="1911" on="1"/>
        <pt x="489" y="1911" on="0"/>
        <pt x="518" y="1868" on="1"/>
        <pt x="629" y="1701" on="0"/>
        <pt x="629" y="1633" on="1"/>
        <pt x="628" y="1628" on="1"/>
      </contour>
      <contour>
        <pt x="606" y="1408" on="1"/>
        <pt x="606" y="1393" on="1"/>
        <pt x="606" y="1337" on="0"/>
        <pt x="574" y="1209" on="0"/>
        <pt x="560" y="1125" on="1"/>
        <pt x="542" y="1017" on="1"/>
        <pt x="514" y="855" on="1"/>
        <pt x="507" y="819" on="1"/>
        <pt x="415" y="267" on="0"/>
        <pt x="415" y="109" on="0"/>
        <pt x="373" y="22" on="0"/>
        <pt x="310" y="22" on="1"/>
        <pt x="194" y="22" on="0"/>
        <pt x="146" y="37" on="1"/>
        <pt x="120" y="45" on="0"/>
        <pt x="120" y="152" on="0"/>
        <pt x="142" y="233" on="1"/>
        <pt x="171" y="323" on="0"/>
        <pt x="178" y="364" on="1"/>
        <pt x="306" y="1119" on="0"/>
        <pt x="306" y="1186" on="1"/>
        <pt x="300" y="1275" on="1"/>
        <pt x="300" y="1394" on="0"/>
        <pt x="343" y="1435" on="1"/>
        <pt x="372" y="1463" on="0"/>
        <pt x="508" y="1463" on="1"/>
        <pt x="545" y="1465" on="1"/>
        <pt x="606" y="1465" on="0"/>
      </contour>
    </TTGlyph>
    <TTGlyph name="J" xMin="-32" yMin="-148" xMax="788" yMax="1417">
      <contour>
        <pt x="107" y="-147" on="1"/>
        <pt x="-32" y="-147" on="0"/>
        <pt x="-32" y="-51" on="1"/>
        <pt x="-32" y="-33" on="1"/>
        <pt x="-32" y="60" on="0"/>
        <pt x="130" y="98" on="1"/>
        <pt x="210" y="116" on="0"/>
        <pt x="233" y="133" on="1"/>
        <pt x="283" y="168" on="0"/>
        <pt x="385" y="365" on="0"/>
        <pt x="500" y="915" on="0"/>
        <pt x="509" y="1028" on="1"/>
        <pt x="532" y="1307" on="0"/>
        <pt x="553" y="1386" on="0"/>
        <pt x="653" y="1417" on="0"/>
        <pt x="746" y="1417" on="1"/>
        <pt x="788" y="1417" on="0"/>
        <pt x="788" y="1325" on="1"/>
        <pt x="787" y="1307" on="1"/>
        <pt x="786" y="1252" on="1"/>
        <pt x="786" y="1182" on="0"/>
        <pt x="681" y="591" on="1"/>
        <pt x="618" y="245" on="0"/>
        <pt x="554" y="115" on="1"/>
        <pt x="424" y="-148" on="0"/>
        <pt x="144" y="-148" on="1"/>
        <pt x="125" y="-147" on="1"/>
      </contour>
    </TTGlyph>
    <TTGlyph name="K" xMin="124" yMin="-2" xMax="1311" yMax="1403">
      <contour>
        <pt x="1268" y="1403" on="1"/>
        <pt x="1311" y="1403" on="0"/>
        <pt x="1311" y="1387" on="0"/>
        <pt x="764" y="807" on="0"/>
        <pt x="764" y="763" on="1"/>
        <pt x="764" y="732" on="0"/>
        <pt x="878" y="530" on="0"/>
        <pt x="1094" y="55" on="0"/>
        <pt x="1094" y="36" on="1"/>
        <pt x="1094" y="-2" on="0"/>
        <pt x="889" y="-2" on="0"/>
        <pt x="839" y="63" on="1"/>
        <pt x="830" y="75" on="0"/>
        <pt x="623" y="522" on="0"/>
        <pt x="611" y="545" on="1"/>
        <pt x="573" y="614" on="0"/>
        <pt x="529" y="614" on="1"/>
        <pt x="473" y="614" on="0"/>
        <pt x="425" y="474" on="1"/>
        <pt x="414" y="442" on="0"/>
        <pt x="355" y="91" on="0"/>
        <pt x="338" y="60" on="1"/>
        <pt x="308" y="5" on="0"/>
        <pt x="248" y="5" on="1"/>
        <pt x="124" y="5" on="0"/>
        <pt x="124" y="48" on="1"/>
        <pt x="124" y="80" on="1"/>
        <pt x="124" y="86" on="0"/>
        <pt x="221" y="666" on="0"/>
        <pt x="316" y="1278" on="0"/>
        <pt x="330" y="1317" on="1"/>
        <pt x="353" y="1379" on="0"/>
        <pt x="478" y="1379" on="1"/>
        <pt x="551" y="1379" on="0"/>
        <pt x="551" y="1313" on="1"/>
        <pt x="551" y="1282" on="0"/>
        <pt x="486" y="946" on="0"/>
        <pt x="486" y="871" on="0"/>
        <pt x="497" y="871" on="1"/>
        <pt x="542" y="871" on="0"/>
        <pt x="612" y="932" on="1"/>
        <pt x="613" y="933" on="0"/>
        <pt x="880" y="1188" on="0"/>
        <pt x="1023" y="1343" on="0"/>
        <pt x="1045" y="1357" on="1"/>
        <pt x="1116" y="1403" on="0"/>
      </contour>
    </TTGlyph>
    <TTGlyph name="L" xMin="113" yMin="-17" xMax="980" yMax="1415">
      <contour>
        <pt x="298" y="-2" on="1"/>
        <pt x="176" y="-2" on="0"/>
        <pt x="113" y="23" on="0"/>
        <pt x="113" y="63" on="1"/>
        <pt x="113" y="83" on="1"/>
        <pt x="113" y="105" on="0"/>
        <pt x="155" y="317" on="0"/>
        <pt x="251" y="869" on="0"/>
        <pt x="316" y="1330" on="0"/>
        <pt x="325" y="1367" on="1"/>
        <pt x="336" y="1415" on="0"/>
        <pt x="453" y="1415" on="1"/>
        <pt x="497" y="1415" on="1"/>
        <pt x="568" y="1415" on="0"/>
        <pt x="568" y="1360" on="1"/>
        <pt x="568" y="1222" on="0"/>
        <pt x="399" y="358" on="0"/>
        <pt x="399" y="213" on="0"/>
        <pt x="446" y="203" on="1"/>
        <pt x="503" y="191" on="0"/>
        <pt x="921" y="191" on="0"/>
        <pt x="944" y="184" on="1"/>
        <pt x="980" y="173" on="0"/>
        <pt x="980" y="44" on="0"/>
        <pt x="959" y="6" on="1"/>
        <pt x="946" y="-17" on="0"/>
        <pt x="904" y="-17" on="1"/>
        <pt x="833" y="-17" on="1"/>
        <pt x="810" y="-16" on="1"/>
        <pt x="763" y="-15" on="1"/>
        <pt x="740" y="-14" on="0"/>
        <pt x="717" y="-14" on="1"/>
        <pt x="624" y="-11" on="1"/>
        <pt x="577" y="-9" on="1"/>
        <pt x="530" y="-7" on="0"/>
        <pt x="508" y="-7" on="1"/>
        <pt x="485" y="-6" on="1"/>
        <pt x="462" y="-5" on="0"/>
        <pt x="438" y="-5" on="1"/>
        <pt x="415" y="-4" on="1"/>
        <pt x="392" y="-3" on="0"/>
        <pt x="369" y="-3" on="1"/>
        <pt x="345" y="-2" on="1"/>
      </contour>
    </TTGlyph>
    <TTGlyph name="Lslash" xMin="97" yMin="-73" xMax="1074" yMax="1396">
      <contour>
        <pt x="239" y="-7" on="1"/>
        <pt x="150" y="-7" on="0"/>
        <pt x="150" y="84" on="1"/>
        <pt x="150" y="125" on="0"/>
        <pt x="206" y="396" on="0"/>
        <pt x="206" y="496" on="0"/>
        <pt x="165" y="496" on="1"/>
        <pt x="135" y="491" on="0"/>
        <pt x="128" y="491" on="1"/>
        <pt x="97" y="491" on="0"/>
        <pt x="97" y="544" on="1"/>
        <pt x="97" y="659" on="0"/>
        <pt x="146" y="746" on="0"/>
        <pt x="262" y="844" on="0"/>
        <pt x="268" y="861" on="1"/>
        <pt x="322" y="1013" on="0"/>
        <pt x="322" y="1140" on="1"/>
        <pt x="321" y="1167" on="1"/>
        <pt x="319" y="1220" on="0"/>
        <pt x="319" y="1221" on="1"/>
        <pt x="319" y="1331" on="0"/>
        <pt x="343" y="1354" on="1"/>
        <pt x="388" y="1396" on="0"/>
        <pt x="499" y="1396" on="1"/>
        <pt x="524" y="1396" on="1"/>
        <pt x="571" y="1396" on="0"/>
        <pt x="594" y="1373" on="0"/>
        <pt x="594" y="1310" on="1"/>
        <pt x="603" y="1104" on="1"/>
        <pt x="603" y="988" on="0"/>
        <pt x="645" y="988" on="1"/>
        <pt x="665" y="993" on="1"/>
        <pt x="768" y="1021" on="0"/>
        <pt x="791" y="1021" on="1"/>
        <pt x="854" y="1021" on="0"/>
        <pt x="854" y="986" on="1"/>
        <pt x="854" y="921" on="0"/>
        <pt x="803" y="857" on="1"/>
        <pt x="779" y="827" on="0"/>
        <pt x="728" y="798" on="1"/>
        <pt x="593" y="721" on="0"/>
        <pt x="541" y="632" on="1"/>
        <pt x="476" y="518" on="0"/>
        <pt x="476" y="326" on="1"/>
        <pt x="473" y="247" on="1"/>
        <pt x="473" y="175" on="0"/>
        <pt x="780" y="175" on="1"/>
        <pt x="808" y="176" on="1"/>
        <pt x="836" y="179" on="1"/>
        <pt x="867" y="177" on="1"/>
        <pt x="897" y="176" on="1"/>
        <pt x="990" y="176" on="1"/>
        <pt x="1051" y="176" on="0"/>
        <pt x="1074" y="153" on="0"/>
        <pt x="1074" y="38" on="0"/>
        <pt x="1029" y="-73" on="0"/>
        <pt x="990" y="-73" on="1"/>
        <pt x="958" y="-73" on="1"/>
        <pt x="879" y="-73" on="0"/>
        <pt x="392" y="-7" on="0"/>
      </contour>
    </TTGlyph>
    <TTGlyph name="M" xMin="124" yMin="40" xMax="1649" yMax="1400">
      <contour>
        <pt x="515" y="914" on="1"/>
        <pt x="509" y="914" on="0"/>
        <pt x="386" y="455" on="0"/>
        <pt x="323" y="185" on="0"/>
        <pt x="295" y="119" on="0"/>
        <pt x="204" y="69" on="0"/>
        <pt x="181" y="69" on="1"/>
        <pt x="124" y="69" on="0"/>
        <pt x="124" y="168" on="1"/>
        <pt x="133" y="215" on="1"/>
        <pt x="141" y="256" on="0"/>
        <pt x="153" y="309" on="1"/>
        <pt x="174" y="404" on="1"/>
        <pt x="199" y="522" on="0"/>
        <pt x="216" y="632" on="1"/>
        <pt x="298" y="1163" on="0"/>
        <pt x="341" y="1287" on="1"/>
        <pt x="356" y="1331" on="0"/>
        <pt x="442" y="1389" on="0"/>
        <pt x="556" y="1389" on="0"/>
        <pt x="579" y="1375" on="1"/>
        <pt x="624" y="1348" on="0"/>
        <pt x="709" y="1153" on="0"/>
        <pt x="863" y="561" on="0"/>
        <pt x="881" y="561" on="1"/>
        <pt x="904" y="593" on="1"/>
        <pt x="1017" y="760" on="0"/>
        <pt x="1104" y="899" on="1"/>
        <pt x="1210" y="1071" on="1"/>
        <pt x="1321" y="1250" on="0"/>
        <pt x="1342" y="1279" on="1"/>
        <pt x="1433" y="1400" on="0"/>
        <pt x="1515" y="1400" on="1"/>
        <pt x="1576" y="1400" on="0"/>
        <pt x="1649" y="1331" on="0"/>
        <pt x="1649" y="1274" on="1"/>
        <pt x="1649" y="1125" on="0"/>
        <pt x="1493" y="189" on="1"/>
        <pt x="1480" y="111" on="0"/>
        <pt x="1422" y="40" on="0"/>
        <pt x="1350" y="40" on="0"/>
        <pt x="1269" y="115" on="0"/>
        <pt x="1269" y="174" on="1"/>
        <pt x="1269" y="199" on="0"/>
        <pt x="1306" y="503" on="0"/>
        <pt x="1322" y="659" on="0"/>
        <pt x="1356" y="911" on="0"/>
        <pt x="1356" y="943" on="0"/>
        <pt x="1351" y="943" on="1"/>
        <pt x="1338" y="943" on="0"/>
        <pt x="952" y="269" on="0"/>
        <pt x="869" y="191" on="0"/>
        <pt x="783" y="191" on="1"/>
        <pt x="736" y="191" on="0"/>
        <pt x="712" y="231" on="1"/>
        <pt x="703" y="246" on="0"/>
        <pt x="552" y="914" on="0"/>
      </contour>
    </TTGlyph>
    <TTGlyph name="N" xMin="116" yMin="23" xMax="1434" yMax="1414">
      <contour>
        <pt x="1172" y="23" on="0"/>
        <pt x="1050" y="23" on="0"/>
        <pt x="971" y="46" on="0"/>
        <pt x="900" y="152" on="0"/>
        <pt x="530" y="1020" on="0"/>
        <pt x="504" y="1020" on="1"/>
        <pt x="503" y="1020" on="0"/>
        <pt x="338" y="128" on="0"/>
        <pt x="329" y="101" on="1"/>
        <pt x="305" y="27" on="0"/>
        <pt x="116" y="27" on="0"/>
        <pt x="116" y="58" on="1"/>
        <pt x="116" y="69" on="0"/>
        <pt x="206" y="554" on="0"/>
        <pt x="239" y="783" on="0"/>
        <pt x="276" y="985" on="1"/>
        <pt x="297" y="1096" on="1"/>
        <pt x="302" y="1135" on="1"/>
        <pt x="310" y="1213" on="1"/>
        <pt x="322" y="1313" on="0"/>
        <pt x="325" y="1327" on="1"/>
        <pt x="340" y="1391" on="0"/>
        <pt x="503" y="1391" on="0"/>
        <pt x="579" y="1360" on="0"/>
        <pt x="611" y="1312" on="1"/>
        <pt x="689" y="1196" on="0"/>
        <pt x="1031" y="418" on="0"/>
        <pt x="1035" y="418" on="1"/>
        <pt x="1051" y="418" on="0"/>
        <pt x="1202" y="1292" on="0"/>
        <pt x="1226" y="1359" on="0"/>
        <pt x="1305" y="1414" on="0"/>
        <pt x="1385" y="1414" on="1"/>
        <pt x="1434" y="1414" on="0"/>
        <pt x="1434" y="1356" on="1"/>
        <pt x="1434" y="1237" on="0"/>
        <pt x="1207" y="116" on="1"/>
        <pt x="1195" y="55" on="0"/>
      </contour>
    </TTGlyph>
    <TTGlyph name="Nacute" xMin="142" yMin="55" xMax="1484" yMax="2035">
      <contour>
        <pt x="1130" y="2035" on="1"/>
        <pt x="1144" y="2035" on="1"/>
        <pt x="1151" y="2034" on="1"/>
        <pt x="1235" y="2030" on="1"/>
        <pt x="1355" y="2030" on="0"/>
        <pt x="1355" y="2010" on="1"/>
        <pt x="1355" y="2006" on="1"/>
        <pt x="1355" y="1993" on="0"/>
        <pt x="1200" y="1838" on="0"/>
        <pt x="1191" y="1828" on="1"/>
        <pt x="1052" y="1674" on="0"/>
        <pt x="985" y="1674" on="1"/>
        <pt x="964" y="1674" on="1"/>
        <pt x="957" y="1675" on="1"/>
        <pt x="929" y="1675" on="1"/>
        <pt x="853" y="1675" on="0"/>
        <pt x="853" y="1704" on="1"/>
        <pt x="853" y="1711" on="0"/>
        <pt x="1013" y="1950" on="0"/>
        <pt x="1028" y="1967" on="1"/>
        <pt x="1089" y="2035" on="0"/>
      </contour>
      <contour>
        <pt x="1162" y="55" on="1"/>
        <pt x="1073" y="55" on="1"/>
        <pt x="1008" y="55" on="0"/>
        <pt x="946" y="151" on="0"/>
        <pt x="662" y="846" on="0"/>
        <pt x="651" y="871" on="1"/>
        <pt x="559" y="1070" on="0"/>
        <pt x="525" y="1070" on="1"/>
        <pt x="517" y="1036" on="1"/>
        <pt x="511" y="993" on="1"/>
        <pt x="504" y="950" on="1"/>
        <pt x="495" y="892" on="0"/>
        <pt x="482" y="820" on="1"/>
        <pt x="467" y="734" on="1"/>
        <pt x="459" y="691" on="0"/>
        <pt x="391" y="298" on="0"/>
        <pt x="348" y="193" on="1"/>
        <pt x="323" y="133" on="0"/>
        <pt x="209" y="133" on="1"/>
        <pt x="171" y="133" on="0"/>
        <pt x="142" y="175" on="0"/>
        <pt x="142" y="227" on="1"/>
        <pt x="187" y="486" on="1"/>
        <pt x="232" y="747" on="0"/>
        <pt x="232" y="778" on="1"/>
        <pt x="232" y="943" on="0"/>
        <pt x="288" y="1192" on="0"/>
        <pt x="288" y="1427" on="0"/>
        <pt x="313" y="1466" on="1"/>
        <pt x="348" y="1521" on="0"/>
        <pt x="492" y="1521" on="1"/>
        <pt x="540" y="1521" on="0"/>
        <pt x="582" y="1473" on="1"/>
        <pt x="659" y="1385" on="0"/>
        <pt x="819" y="1120" on="1"/>
        <pt x="854" y="1062" on="0"/>
        <pt x="1064" y="547" on="0"/>
        <pt x="1068" y="547" on="1"/>
        <pt x="1086" y="547" on="0"/>
        <pt x="1232" y="1381" on="0"/>
        <pt x="1266" y="1474" on="0"/>
        <pt x="1306" y="1500" on="1"/>
        <pt x="1375" y="1544" on="0"/>
        <pt x="1439" y="1544" on="1"/>
        <pt x="1484" y="1544" on="0"/>
        <pt x="1484" y="1478" on="1"/>
        <pt x="1484" y="1404" on="1"/>
        <pt x="1461" y="1274" on="1"/>
        <pt x="1453" y="1231" on="0"/>
        <pt x="1438" y="1145" on="1"/>
        <pt x="1392" y="886" on="1"/>
        <pt x="1262" y="138" on="0"/>
        <pt x="1253" y="110" on="1"/>
        <pt x="1236" y="55" on="0"/>
      </contour>
    </TTGlyph>
    <TTGlyph name="Ntilde" xMin="131" yMin="9" xMax="1480" yMax="1825">
      <contour>
        <pt x="849" y="1825" on="1"/>
        <pt x="876" y="1825" on="1"/>
        <pt x="930" y="1825" on="0"/>
        <pt x="1069" y="1738" on="0"/>
        <pt x="1145" y="1738" on="0"/>
        <pt x="1225" y="1811" on="0"/>
        <pt x="1327" y="1811" on="0"/>
        <pt x="1327" y="1783" on="1"/>
        <pt x="1327" y="1708" on="0"/>
        <pt x="1191" y="1583" on="0"/>
        <pt x="1107" y="1583" on="1"/>
        <pt x="1098" y="1583" on="1"/>
        <pt x="1050" y="1583" on="0"/>
        <pt x="870" y="1673" on="0"/>
        <pt x="829" y="1673" on="0"/>
        <pt x="729" y="1596" on="0"/>
        <pt x="631" y="1596" on="0"/>
        <pt x="631" y="1622" on="1"/>
        <pt x="631" y="1630" on="1"/>
        <pt x="631" y="1704" on="0"/>
        <pt x="774" y="1825" on="0"/>
      </contour>
      <contour>
        <pt x="1239" y="9" on="0"/>
        <pt x="1112" y="9" on="0"/>
        <pt x="1030" y="43" on="0"/>
        <pt x="958" y="146" on="0"/>
        <pt x="535" y="1027" on="0"/>
        <pt x="517" y="1027" on="1"/>
        <pt x="513" y="1027" on="0"/>
        <pt x="364" y="138" on="0"/>
        <pt x="349" y="98" on="1"/>
        <pt x="326" y="35" on="0"/>
        <pt x="131" y="35" on="0"/>
        <pt x="131" y="75" on="1"/>
        <pt x="131" y="90" on="0"/>
        <pt x="170" y="321" on="1"/>
        <pt x="191" y="444" on="1"/>
        <pt x="208" y="528" on="0"/>
        <pt x="269" y="969" on="0"/>
        <pt x="300" y="1145" on="0"/>
        <pt x="307" y="1242" on="0"/>
        <pt x="313" y="1325" on="1"/>
        <pt x="316" y="1365" on="1"/>
        <pt x="325" y="1400" on="0"/>
        <pt x="379" y="1435" on="0"/>
        <pt x="511" y="1435" on="0"/>
        <pt x="599" y="1384" on="0"/>
        <pt x="654" y="1295" on="1"/>
        <pt x="781" y="1091" on="0"/>
        <pt x="942" y="755" on="0"/>
        <pt x="977" y="679" on="1"/>
        <pt x="1080" y="460" on="1"/>
        <pt x="1096" y="460" on="0"/>
        <pt x="1248" y="1359" on="0"/>
        <pt x="1253" y="1372" on="1"/>
        <pt x="1284" y="1452" on="0"/>
        <pt x="1397" y="1452" on="1"/>
        <pt x="1437" y="1452" on="1"/>
        <pt x="1480" y="1452" on="0"/>
        <pt x="1480" y="1418" on="1"/>
        <pt x="1480" y="1369" on="0"/>
        <pt x="1264" y="86" on="0"/>
        <pt x="1256" y="62" on="1"/>
      </contour>
    </TTGlyph>
    <TTGlyph name="O" xMin="137" yMin="-17" xMax="1438" yMax="1451">
      <contour>
        <pt x="687" y="188" on="1"/>
        <pt x="718" y="188" on="1"/>
        <pt x="902" y="188" on="0"/>
        <pt x="1042" y="385" on="1"/>
        <pt x="1101" y="468" on="0"/>
        <pt x="1183" y="724" on="0"/>
        <pt x="1183" y="853" on="1"/>
        <pt x="1183" y="868" on="1"/>
        <pt x="1183" y="1055" on="0"/>
        <pt x="1020" y="1245" on="0"/>
        <pt x="874" y="1245" on="1"/>
        <pt x="672" y="1245" on="0"/>
        <pt x="542" y="1061" on="1"/>
        <pt x="475" y="966" on="0"/>
        <pt x="393" y="712" on="0"/>
        <pt x="393" y="581" on="1"/>
        <pt x="393" y="550" on="1"/>
        <pt x="393" y="389" on="0"/>
        <pt x="548" y="188" on="0"/>
      </contour>
      <contour>
        <pt x="1438" y="905" on="1"/>
        <pt x="1438" y="859" on="1"/>
        <pt x="1438" y="699" on="0"/>
        <pt x="1317" y="359" on="0"/>
        <pt x="1213" y="237" on="1"/>
        <pt x="996" y="-17" on="0"/>
        <pt x="681" y="-17" on="1"/>
        <pt x="658" y="-17" on="1"/>
        <pt x="285" y="-17" on="0"/>
        <pt x="173" y="308" on="1"/>
        <pt x="137" y="413" on="0"/>
        <pt x="137" y="735" on="0"/>
        <pt x="257" y="1073" on="0"/>
        <pt x="361" y="1195" on="1"/>
        <pt x="579" y="1451" on="0"/>
        <pt x="918" y="1451" on="1"/>
        <pt x="1292" y="1451" on="0"/>
        <pt x="1403" y="1125" on="1"/>
        <pt x="1438" y="1022" on="0"/>
      </contour>
    </TTGlyph>
    <TTGlyph name="OE" xMin="151" yMin="-1" xMax="1938" yMax="1436">
      <contour>
        <pt x="653" y="206" on="1"/>
        <pt x="696" y="206" on="1"/>
        <pt x="792" y="206" on="0"/>
        <pt x="842" y="250" on="1"/>
        <pt x="950" y="346" on="0"/>
        <pt x="1027" y="688" on="1"/>
        <pt x="1061" y="841" on="0"/>
        <pt x="1061" y="983" on="1"/>
        <pt x="1061" y="1024" on="1"/>
        <pt x="1061" y="1143" on="0"/>
        <pt x="972" y="1232" on="0"/>
        <pt x="860" y="1232" on="1"/>
        <pt x="846" y="1231" on="1"/>
        <pt x="832" y="1231" on="1"/>
        <pt x="831" y="1231" on="0"/>
        <pt x="829" y="1231" on="1"/>
        <pt x="757" y="1231" on="0"/>
        <pt x="681" y="1184" on="1"/>
        <pt x="535" y="1095" on="0"/>
        <pt x="457" y="859" on="1"/>
        <pt x="409" y="715" on="0"/>
        <pt x="409" y="594" on="1"/>
        <pt x="409" y="522" on="1"/>
        <pt x="409" y="370" on="0"/>
        <pt x="548" y="206" on="0"/>
      </contour>
      <contour>
        <pt x="1731" y="138" on="1"/>
        <pt x="1731" y="13" on="0"/>
        <pt x="1364" y="13" on="1"/>
        <pt x="1177" y="13" on="0"/>
        <pt x="1094" y="29" on="0"/>
        <pt x="1014" y="80" on="0"/>
        <pt x="982" y="80" on="0"/>
        <pt x="945" y="68" on="1"/>
        <pt x="909" y="53" on="1"/>
        <pt x="765" y="-1" on="0"/>
        <pt x="644" y="-1" on="1"/>
        <pt x="287" y="-1" on="0"/>
        <pt x="186" y="299" on="1"/>
        <pt x="151" y="404" on="0"/>
        <pt x="151" y="570" on="1"/>
        <pt x="152" y="736" on="0"/>
        <pt x="272" y="1072" on="0"/>
        <pt x="368" y="1192" on="1"/>
        <pt x="565" y="1436" on="0"/>
        <pt x="888" y="1436" on="1"/>
        <pt x="978" y="1436" on="0"/>
        <pt x="1190" y="1359" on="0"/>
        <pt x="1236" y="1359" on="1"/>
        <pt x="1262" y="1372" on="1"/>
        <pt x="1287" y="1392" on="1"/>
        <pt x="1313" y="1408" on="0"/>
        <pt x="1385" y="1421" on="0"/>
        <pt x="1769" y="1421" on="0"/>
        <pt x="1898" y="1398" on="0"/>
        <pt x="1926" y="1361" on="1"/>
        <pt x="1938" y="1345" on="0"/>
        <pt x="1938" y="1323" on="1"/>
        <pt x="1938" y="1251" on="0"/>
        <pt x="1846" y="1224" on="1"/>
        <pt x="1819" y="1216" on="0"/>
        <pt x="1437" y="1216" on="0"/>
        <pt x="1399" y="1179" on="1"/>
        <pt x="1335" y="1116" on="0"/>
        <pt x="1335" y="935" on="1"/>
        <pt x="1335" y="873" on="0"/>
        <pt x="1393" y="845" on="0"/>
        <pt x="1732" y="845" on="0"/>
        <pt x="1772" y="828" on="0"/>
        <pt x="1772" y="663" on="0"/>
        <pt x="1702" y="645" on="1"/>
        <pt x="1690" y="642" on="0"/>
        <pt x="1313" y="642" on="0"/>
        <pt x="1289" y="603" on="1"/>
        <pt x="1274" y="579" on="0"/>
        <pt x="1221" y="382" on="0"/>
        <pt x="1221" y="309" on="1"/>
        <pt x="1221" y="258" on="0"/>
        <pt x="1365" y="220" on="0"/>
        <pt x="1648" y="220" on="0"/>
        <pt x="1665" y="213" on="1"/>
        <pt x="1731" y="186" on="0"/>
      </contour>
    </TTGlyph>
    <TTGlyph name="Oacute" xMin="131" yMin="14" xMax="1488" yMax="1936">
      <contour>
        <pt x="1224" y="875" on="1"/>
        <pt x="1224" y="907" on="1"/>
        <pt x="1223" y="923" on="1"/>
        <pt x="1223" y="1103" on="0"/>
        <pt x="1042" y="1313" on="0"/>
        <pt x="910" y="1313" on="1"/>
        <pt x="877" y="1313" on="1"/>
        <pt x="784" y="1313" on="0"/>
        <pt x="602" y="1203" on="0"/>
        <pt x="470" y="1017" on="0"/>
        <pt x="396" y="771" on="0"/>
        <pt x="396" y="660" on="1"/>
        <pt x="396" y="612" on="1"/>
        <pt x="396" y="444" on="0"/>
        <pt x="572" y="220" on="0"/>
        <pt x="711" y="220" on="1"/>
        <pt x="727" y="220" on="1"/>
        <pt x="924" y="220" on="0"/>
        <pt x="1074" y="410" on="1"/>
        <pt x="1145" y="500" on="0"/>
        <pt x="1224" y="763" on="0"/>
      </contour>
      <contour>
        <pt x="849" y="1614" on="1"/>
        <pt x="810" y="1614" on="0"/>
        <pt x="810" y="1635" on="1"/>
        <pt x="810" y="1640" on="1"/>
        <pt x="810" y="1663" on="0"/>
        <pt x="842" y="1709" on="1"/>
        <pt x="935" y="1842" on="0"/>
        <pt x="997" y="1897" on="1"/>
        <pt x="1040" y="1935" on="0"/>
        <pt x="1165" y="1935" on="1"/>
        <pt x="1184" y="1936" on="1"/>
        <pt x="1196" y="1936" on="1"/>
        <pt x="1259" y="1936" on="0"/>
        <pt x="1259" y="1914" on="1"/>
        <pt x="1259" y="1870" on="0"/>
        <pt x="1070" y="1702" on="1"/>
        <pt x="975" y="1618" on="0"/>
        <pt x="905" y="1618" on="1"/>
        <pt x="891" y="1616" on="0"/>
        <pt x="886" y="1616" on="1"/>
        <pt x="861" y="1614" on="1"/>
      </contour>
      <contour>
        <pt x="1488" y="938" on="1"/>
        <pt x="1488" y="891" on="1"/>
        <pt x="1488" y="733" on="0"/>
        <pt x="1376" y="411" on="0"/>
        <pt x="1164" y="163" on="0"/>
        <pt x="881" y="14" on="0"/>
        <pt x="733" y="14" on="1"/>
        <pt x="685" y="14" on="1"/>
        <pt x="559" y="14" on="0"/>
        <pt x="348" y="104" on="0"/>
        <pt x="209" y="257" on="0"/>
        <pt x="131" y="481" on="0"/>
        <pt x="131" y="598" on="1"/>
        <pt x="131" y="645" on="1"/>
        <pt x="131" y="824" on="0"/>
        <pt x="196" y="988" on="1"/>
        <pt x="324" y="1310" on="0"/>
        <pt x="604" y="1450" on="1"/>
        <pt x="748" y="1522" on="0"/>
        <pt x="910" y="1522" on="1"/>
        <pt x="934" y="1522" on="1"/>
        <pt x="1183" y="1522" on="0"/>
        <pt x="1340" y="1355" on="1"/>
        <pt x="1403" y="1287" on="0"/>
        <pt x="1488" y="1065" on="0"/>
      </contour>
    </TTGlyph>
    <TTGlyph name="Ocircumflex" xMin="128" yMin="2" xMax="1483" yMax="1919">
      <contour>
        <pt x="739" y="212" on="1"/>
        <pt x="826" y="212" on="0"/>
        <pt x="917" y="264" on="1"/>
        <pt x="1101" y="370" on="0"/>
        <pt x="1181" y="627" on="1"/>
        <pt x="1218" y="746" on="0"/>
        <pt x="1218" y="875" on="1"/>
        <pt x="1218" y="891" on="1"/>
        <pt x="1218" y="1087" on="0"/>
        <pt x="1034" y="1292" on="0"/>
        <pt x="889" y="1292" on="1"/>
        <pt x="693" y="1292" on="0"/>
        <pt x="545" y="1105" on="1"/>
        <pt x="474" y="1015" on="0"/>
        <pt x="395" y="761" on="0"/>
        <pt x="395" y="662" on="1"/>
        <pt x="395" y="599" on="1"/>
        <pt x="395" y="438" on="0"/>
        <pt x="562" y="212" on="0"/>
        <pt x="707" y="212" on="1"/>
      </contour>
      <contour>
        <pt x="1010" y="1919" on="1"/>
        <pt x="1018" y="1919" on="1"/>
        <pt x="1068" y="1919" on="0"/>
        <pt x="1121" y="1861" on="1"/>
        <pt x="1272" y="1696" on="0"/>
        <pt x="1272" y="1634" on="1"/>
        <pt x="1272" y="1627" on="1"/>
        <pt x="1272" y="1593" on="0"/>
        <pt x="1142" y="1593" on="0"/>
        <pt x="1082" y="1644" on="1"/>
        <pt x="1076" y="1649" on="0"/>
        <pt x="986" y="1739" on="0"/>
        <pt x="978" y="1739" on="0"/>
        <pt x="932" y="1703" on="0"/>
        <pt x="919" y="1694" on="0"/>
        <pt x="888" y="1670" on="1"/>
        <pt x="853" y="1645" on="1"/>
        <pt x="779" y="1592" on="0"/>
        <pt x="707" y="1592" on="1"/>
        <pt x="699" y="1592" on="1"/>
        <pt x="650" y="1592" on="0"/>
        <pt x="650" y="1613" on="1"/>
        <pt x="650" y="1667" on="0"/>
        <pt x="836" y="1824" on="1"/>
        <pt x="948" y="1919" on="0"/>
      </contour>
      <contour>
        <pt x="1483" y="913" on="1"/>
        <pt x="1483" y="866" on="1"/>
        <pt x="1483" y="718" on="0"/>
        <pt x="1426" y="554" on="1"/>
        <pt x="1368" y="392" on="0"/>
        <pt x="1252" y="260" on="1"/>
        <pt x="1024" y="3" on="0"/>
        <pt x="696" y="2" on="1"/>
        <pt x="428" y="2" on="0"/>
        <pt x="128" y="335" on="0"/>
        <pt x="128" y="616" on="1"/>
        <pt x="128" y="788" on="0"/>
        <pt x="248" y="1124" on="0"/>
        <pt x="361" y="1248" on="1"/>
        <pt x="593" y="1503" on="0"/>
        <pt x="916" y="1503" on="1"/>
        <pt x="941" y="1503" on="1"/>
        <pt x="941" y="1503" on="0"/>
        <pt x="946" y="1503" on="1"/>
        <pt x="1060" y="1503" on="0"/>
        <pt x="1160" y="1460" on="1"/>
        <pt x="1363" y="1373" on="0"/>
        <pt x="1440" y="1161" on="1"/>
        <pt x="1483" y="1041" on="0"/>
      </contour>
    </TTGlyph>
    <TTGlyph name="Odieresis" xMin="127" yMin="2" xMax="1482" yMax="1850">
      <contour>
        <pt x="1216" y="858" on="1"/>
        <pt x="1216" y="906" on="1"/>
        <pt x="1216" y="1077" on="0"/>
        <pt x="1041" y="1291" on="0"/>
        <pt x="905" y="1291" on="1"/>
        <pt x="872" y="1291" on="1"/>
        <pt x="790" y="1291" on="0"/>
        <pt x="606" y="1192" on="0"/>
        <pt x="475" y="1010" on="0"/>
        <pt x="393" y="772" on="0"/>
        <pt x="393" y="646" on="1"/>
        <pt x="393" y="614" on="1"/>
        <pt x="394" y="598" on="1"/>
        <pt x="394" y="415" on="0"/>
        <pt x="578" y="211" on="0"/>
        <pt x="722" y="211" on="1"/>
        <pt x="918" y="212" on="0"/>
        <pt x="1060" y="392" on="1"/>
        <pt x="1136" y="488" on="0"/>
        <pt x="1216" y="744" on="0"/>
      </contour>
      <contour>
        <pt x="757" y="1850" on="1"/>
        <pt x="786" y="1850" on="1"/>
        <pt x="833" y="1850" on="0"/>
        <pt x="882" y="1801" on="0"/>
        <pt x="882" y="1768" on="1"/>
        <pt x="882" y="1735" on="1"/>
        <pt x="878" y="1710" on="1"/>
        <pt x="878" y="1683" on="0"/>
        <pt x="817" y="1610" on="0"/>
        <pt x="779" y="1610" on="1"/>
        <pt x="763" y="1607" on="1"/>
        <pt x="755" y="1607" on="1"/>
        <pt x="743" y="1606" on="1"/>
        <pt x="739" y="1606" on="1"/>
        <pt x="634" y="1606" on="0"/>
        <pt x="634" y="1696" on="1"/>
        <pt x="634" y="1709" on="1"/>
        <pt x="638" y="1742" on="1"/>
        <pt x="638" y="1787" on="0"/>
        <pt x="713" y="1850" on="0"/>
      </contour>
      <contour>
        <pt x="1280" y="1739" on="1"/>
        <pt x="1280" y="1739" on="0"/>
        <pt x="1278" y="1718" on="1"/>
        <pt x="1278" y="1684" on="0"/>
        <pt x="1215" y="1609" on="0"/>
        <pt x="1174" y="1609" on="1"/>
        <pt x="1150" y="1606" on="1"/>
        <pt x="1133" y="1606" on="1"/>
        <pt x="1081" y="1606" on="0"/>
        <pt x="1033" y="1654" on="0"/>
        <pt x="1033" y="1692" on="1"/>
        <pt x="1033" y="1713" on="1"/>
        <pt x="1033" y="1768" on="0"/>
        <pt x="1099" y="1847" on="0"/>
        <pt x="1140" y="1847" on="1"/>
        <pt x="1164" y="1850" on="1"/>
        <pt x="1185" y="1850" on="1"/>
        <pt x="1227" y="1850" on="0"/>
        <pt x="1278" y="1807" on="0"/>
        <pt x="1278" y="1779" on="1"/>
        <pt x="1281" y="1755" on="1"/>
        <pt x="1281" y="1743" on="1"/>
      </contour>
      <contour>
        <pt x="1482" y="912" on="1"/>
        <pt x="1482" y="889" on="1"/>
        <pt x="1482" y="719" on="0"/>
        <pt x="1370" y="398" on="0"/>
        <pt x="1165" y="157" on="0"/>
        <pt x="883" y="2" on="0"/>
        <pt x="718" y="2" on="1"/>
        <pt x="670" y="2" on="1"/>
        <pt x="552" y="2" on="0"/>
        <pt x="452" y="44" on="1"/>
        <pt x="245" y="132" on="0"/>
        <pt x="171" y="342" on="1"/>
        <pt x="127" y="465" on="0"/>
        <pt x="127" y="592" on="1"/>
        <pt x="127" y="639" on="1"/>
        <pt x="127" y="815" on="0"/>
        <pt x="196" y="981" on="1"/>
        <pt x="330" y="1303" on="0"/>
        <pt x="608" y="1435" on="1"/>
        <pt x="749" y="1502" on="0"/>
        <pt x="891" y="1502" on="1"/>
        <pt x="939" y="1502" on="1"/>
        <pt x="1050" y="1502" on="0"/>
        <pt x="1156" y="1460" on="1"/>
        <pt x="1262" y="1420" on="0"/>
        <pt x="1334" y="1338" on="1"/>
        <pt x="1482" y="1168" on="0"/>
      </contour>
    </TTGlyph>
    <TTGlyph name="Ograve" xMin="130" yMin="14" xMax="1485" yMax="1932">
      <contour>
        <pt x="1219" y="870" on="1"/>
        <pt x="1219" y="918" on="1"/>
        <pt x="1219" y="1089" on="0"/>
        <pt x="1044" y="1303" on="0"/>
        <pt x="907" y="1303" on="1"/>
        <pt x="875" y="1303" on="1"/>
        <pt x="783" y="1303" on="0"/>
        <pt x="693" y="1249" on="1"/>
        <pt x="510" y="1139" on="0"/>
        <pt x="433" y="889" on="1"/>
        <pt x="396" y="770" on="0"/>
        <pt x="396" y="658" on="1"/>
        <pt x="396" y="610" on="1"/>
        <pt x="396" y="445" on="0"/>
        <pt x="568" y="224" on="0"/>
        <pt x="709" y="224" on="1"/>
        <pt x="741" y="224" on="1"/>
        <pt x="832" y="224" on="0"/>
        <pt x="1021" y="337" on="0"/>
        <pt x="1147" y="523" on="0"/>
        <pt x="1219" y="756" on="0"/>
      </contour>
      <contour>
        <pt x="1067" y="1650" on="1"/>
        <pt x="1067" y="1645" on="1"/>
        <pt x="1067" y="1607" on="0"/>
        <pt x="1017" y="1607" on="1"/>
        <pt x="1005" y="1607" on="1"/>
        <pt x="999" y="1608" on="1"/>
        <pt x="976" y="1609" on="1"/>
        <pt x="907" y="1609" on="0"/>
        <pt x="832" y="1693" on="1"/>
        <pt x="697" y="1845" on="0"/>
        <pt x="697" y="1893" on="1"/>
        <pt x="697" y="1902" on="1"/>
        <pt x="697" y="1932" on="0"/>
        <pt x="763" y="1932" on="1"/>
        <pt x="814" y="1932" on="1"/>
        <pt x="837" y="1929" on="1"/>
        <pt x="859" y="1927" on="1"/>
        <pt x="919" y="1927" on="0"/>
        <pt x="953" y="1883" on="1"/>
        <pt x="1067" y="1736" on="0"/>
      </contour>
      <contour>
        <pt x="1485" y="925" on="1"/>
        <pt x="1485" y="901" on="1"/>
        <pt x="1485" y="731" on="0"/>
        <pt x="1373" y="411" on="0"/>
        <pt x="1162" y="164" on="0"/>
        <pt x="877" y="14" on="0"/>
        <pt x="721" y="14" on="1"/>
        <pt x="673" y="14" on="1"/>
        <pt x="556" y="14" on="0"/>
        <pt x="454" y="58" on="1"/>
        <pt x="240" y="149" on="0"/>
        <pt x="166" y="375" on="1"/>
        <pt x="130" y="486" on="0"/>
        <pt x="130" y="604" on="1"/>
        <pt x="130" y="652" on="1"/>
        <pt x="130" y="822" on="0"/>
        <pt x="265" y="1156" on="0"/>
        <pt x="480" y="1385" on="0"/>
        <pt x="752" y="1514" on="0"/>
        <pt x="894" y="1514" on="1"/>
        <pt x="942" y="1514" on="1"/>
        <pt x="1187" y="1514" on="0"/>
        <pt x="1343" y="1342" on="1"/>
        <pt x="1412" y="1266" on="0"/>
        <pt x="1485" y="1041" on="0"/>
      </contour>
    </TTGlyph>
    <TTGlyph name="Oslash" xMin="173" yMin="-9" xMax="1446" yMax="1500">
      <contour>
        <pt x="411" y="629" on="1"/>
        <pt x="411" y="592" on="1"/>
        <pt x="411" y="484" on="0"/>
        <pt x="443" y="413" on="1"/>
        <pt x="450" y="397" on="0"/>
        <pt x="453" y="397" on="1"/>
        <pt x="477" y="397" on="0"/>
        <pt x="638" y="632" on="1"/>
        <pt x="1003" y="1165" on="0"/>
        <pt x="1003" y="1202" on="1"/>
        <pt x="1003" y="1219" on="0"/>
        <pt x="948" y="1270" on="0"/>
        <pt x="894" y="1270" on="1"/>
        <pt x="883" y="1270" on="1"/>
        <pt x="871" y="1269" on="1"/>
        <pt x="871" y="1269" on="0"/>
        <pt x="868" y="1269" on="1"/>
        <pt x="789" y="1269" on="0"/>
        <pt x="702" y="1218" on="1"/>
        <pt x="528" y="1117" on="0"/>
        <pt x="444" y="850" on="1"/>
        <pt x="411" y="746" on="0"/>
      </contour>
      <contour>
        <pt x="692" y="207" on="1"/>
        <pt x="716" y="207" on="1"/>
        <pt x="796" y="208" on="0"/>
        <pt x="884" y="258" on="1"/>
        <pt x="1061" y="360" on="0"/>
        <pt x="1144" y="621" on="1"/>
        <pt x="1179" y="731" on="0"/>
        <pt x="1179" y="866" on="1"/>
        <pt x="1179" y="878" on="1"/>
        <pt x="1179" y="989" on="0"/>
        <pt x="1150" y="1058" on="1"/>
        <pt x="1142" y="1077" on="0"/>
        <pt x="1134" y="1077" on="1"/>
        <pt x="1113" y="1077" on="0"/>
        <pt x="952" y="836" on="1"/>
        <pt x="590" y="293" on="0"/>
        <pt x="590" y="255" on="0"/>
        <pt x="642" y="207" on="0"/>
      </contour>
      <contour>
        <pt x="1446" y="905" on="1"/>
        <pt x="1446" y="877" on="1"/>
        <pt x="1446" y="722" on="0"/>
        <pt x="1396" y="568" on="1"/>
        <pt x="1294" y="255" on="0"/>
        <pt x="1038" y="97" on="1"/>
        <pt x="868" y="-9" on="0"/>
        <pt x="748" y="-9" on="1"/>
        <pt x="724" y="-9" on="1"/>
        <pt x="699" y="-8" on="1"/>
        <pt x="674" y="-6" on="1"/>
        <pt x="621" y="-7" on="1"/>
        <pt x="434" y="10" on="1"/>
        <pt x="377" y="1" on="1"/>
        <pt x="321" y="0" on="1"/>
        <pt x="230" y="0" on="0"/>
        <pt x="189" y="38" on="1"/>
        <pt x="177" y="49" on="0"/>
        <pt x="177" y="118" on="0"/>
        <pt x="227" y="252" on="0"/>
        <pt x="227" y="292" on="0"/>
        <pt x="173" y="445" on="0"/>
        <pt x="173" y="553" on="1"/>
        <pt x="173" y="579" on="1"/>
        <pt x="173" y="1012" on="0"/>
        <pt x="350" y="1213" on="1"/>
        <pt x="458" y="1335" on="0"/>
        <pt x="679" y="1424" on="1"/>
        <pt x="797" y="1471" on="0"/>
        <pt x="979" y="1471" on="1"/>
        <pt x="1026" y="1472" on="1"/>
        <pt x="1047" y="1474" on="1"/>
        <pt x="1133" y="1470" on="1"/>
        <pt x="1135" y="1470" on="0"/>
        <pt x="1230" y="1500" on="0"/>
        <pt x="1254" y="1500" on="1"/>
        <pt x="1272" y="1500" on="1"/>
        <pt x="1379" y="1500" on="0"/>
        <pt x="1379" y="1430" on="1"/>
        <pt x="1350" y="1277" on="1"/>
        <pt x="1350" y="1266" on="0"/>
        <pt x="1374" y="1218" on="1"/>
        <pt x="1446" y="1076" on="0"/>
      </contour>
    </TTGlyph>
    <TTGlyph name="Otilde" xMin="126" yMin="-11" xMax="1480" yMax="1842">
      <contour>
        <pt x="1215" y="846" on="1"/>
        <pt x="1215" y="893" on="1"/>
        <pt x="1215" y="1059" on="0"/>
        <pt x="1043" y="1278" on="0"/>
        <pt x="903" y="1278" on="1"/>
        <pt x="871" y="1278" on="1"/>
        <pt x="782" y="1278" on="0"/>
        <pt x="688" y="1224" on="1"/>
        <pt x="507" y="1119" on="0"/>
        <pt x="424" y="849" on="1"/>
        <pt x="392" y="746" on="0"/>
        <pt x="392" y="633" on="1"/>
        <pt x="392" y="585" on="1"/>
        <pt x="392" y="425" on="0"/>
        <pt x="558" y="199" on="0"/>
        <pt x="704" y="199" on="1"/>
        <pt x="737" y="199" on="1"/>
        <pt x="827" y="199" on="0"/>
        <pt x="1016" y="313" on="0"/>
        <pt x="1140" y="495" on="0"/>
        <pt x="1215" y="728" on="0"/>
      </contour>
      <contour>
        <pt x="827" y="1842" on="1"/>
        <pt x="862" y="1842" on="1"/>
        <pt x="913" y="1842" on="0"/>
        <pt x="1057" y="1752" on="0"/>
        <pt x="1132" y="1752" on="0"/>
        <pt x="1203" y="1830" on="0"/>
        <pt x="1310" y="1830" on="0"/>
        <pt x="1310" y="1799" on="1"/>
        <pt x="1310" y="1791" on="1"/>
        <pt x="1310" y="1717" on="0"/>
        <pt x="1171" y="1599" on="0"/>
        <pt x="1092" y="1599" on="1"/>
        <pt x="1083" y="1599" on="1"/>
        <pt x="1030" y="1599" on="0"/>
        <pt x="867" y="1691" on="0"/>
        <pt x="805" y="1691" on="0"/>
        <pt x="723" y="1609" on="0"/>
        <pt x="619" y="1609" on="0"/>
        <pt x="619" y="1639" on="1"/>
        <pt x="619" y="1647" on="1"/>
        <pt x="619" y="1717" on="0"/>
        <pt x="756" y="1842" on="0"/>
      </contour>
      <contour>
        <pt x="1480" y="924" on="1"/>
        <pt x="1480" y="853" on="1"/>
        <pt x="1480" y="681" on="0"/>
        <pt x="1412" y="514" on="1"/>
        <pt x="1346" y="347" on="0"/>
        <pt x="1234" y="228" on="1"/>
        <pt x="1010" y="-11" on="0"/>
        <pt x="694" y="-11" on="1"/>
        <pt x="288" y="-11" on="0"/>
        <pt x="162" y="351" on="1"/>
        <pt x="126" y="454" on="0"/>
        <pt x="126" y="580" on="1"/>
        <pt x="126" y="627" on="1"/>
        <pt x="126" y="798" on="0"/>
        <pt x="258" y="1124" on="0"/>
        <pt x="366" y="1242" on="1"/>
        <pt x="592" y="1490" on="0"/>
        <pt x="913" y="1490" on="1"/>
        <pt x="1296" y="1490" on="0"/>
        <pt x="1432" y="1161" on="1"/>
        <pt x="1480" y="1046" on="0"/>
      </contour>
    </TTGlyph>
    <TTGlyph name="P" xMin="89" yMin="10" xMax="1213" yMax="1426">
      <contour>
        <pt x="506" y="747" on="1"/>
        <pt x="619" y="747" on="1"/>
        <pt x="788" y="747" on="0"/>
        <pt x="967" y="896" on="0"/>
        <pt x="967" y="1027" on="1"/>
        <pt x="967" y="1064" on="1"/>
        <pt x="967" y="1143" on="0"/>
        <pt x="849" y="1231" on="0"/>
        <pt x="733" y="1231" on="1"/>
        <pt x="663" y="1231" on="1"/>
        <pt x="553" y="1231" on="0"/>
        <pt x="544" y="1197" on="1"/>
        <pt x="467" y="908" on="0"/>
        <pt x="467" y="772" on="1"/>
        <pt x="467" y="747" on="0"/>
      </contour>
      <contour>
        <pt x="755" y="1426" on="1"/>
        <pt x="1213" y="1426" on="0"/>
        <pt x="1213" y="1087" on="1"/>
        <pt x="1213" y="1063" on="1"/>
        <pt x="1213" y="955" on="0"/>
        <pt x="1162" y="845" on="1"/>
        <pt x="1112" y="735" on="0"/>
        <pt x="1034" y="674" on="1"/>
        <pt x="879" y="552" on="0"/>
        <pt x="600" y="552" on="1"/>
        <pt x="453" y="552" on="0"/>
        <pt x="422" y="498" on="1"/>
        <pt x="406" y="472" on="0"/>
        <pt x="338" y="91" on="0"/>
        <pt x="332" y="74" on="1"/>
        <pt x="310" y="10" on="0"/>
        <pt x="227" y="10" on="1"/>
        <pt x="161" y="10" on="1"/>
        <pt x="89" y="10" on="0"/>
        <pt x="89" y="47" on="1"/>
        <pt x="172" y="501" on="1"/>
        <pt x="181" y="544" on="1"/>
        <pt x="182" y="550" on="0"/>
        <pt x="306" y="1216" on="0"/>
        <pt x="321" y="1349" on="0"/>
        <pt x="339" y="1408" on="0"/>
        <pt x="434" y="1425" on="0"/>
        <pt x="642" y="1425" on="1"/>
        <pt x="686" y="1426" on="1"/>
      </contour>
    </TTGlyph>
    <TTGlyph name="Q" xMin="132" yMin="-190" xMax="1428" yMax="1436">
      <contour>
        <pt x="379" y="600" on="1"/>
        <pt x="379" y="550" on="1"/>
        <pt x="379" y="381" on="0"/>
        <pt x="546" y="188" on="0"/>
        <pt x="678" y="188" on="1"/>
        <pt x="694" y="188" on="1"/>
        <pt x="763" y="188" on="0"/>
        <pt x="815" y="233" on="0"/>
        <pt x="864" y="303" on="0"/>
        <pt x="927" y="363" on="0"/>
        <pt x="984" y="425" on="0"/>
        <pt x="1005" y="444" on="0"/>
        <pt x="1085" y="494" on="0"/>
        <pt x="1126" y="554" on="0"/>
        <pt x="1180" y="756" on="0"/>
        <pt x="1180" y="863" on="1"/>
        <pt x="1180" y="880" on="1"/>
        <pt x="1180" y="1142" on="0"/>
        <pt x="1002" y="1212" on="1"/>
        <pt x="940" y="1236" on="0"/>
        <pt x="881" y="1237" on="1"/>
        <pt x="864" y="1237" on="1"/>
        <pt x="652" y="1237" on="0"/>
        <pt x="523" y="1049" on="1"/>
        <pt x="453" y="948" on="0"/>
        <pt x="379" y="701" on="0"/>
      </contour>
      <contour>
        <pt x="1428" y="895" on="1"/>
        <pt x="1428" y="842" on="1"/>
        <pt x="1428" y="691" on="0"/>
        <pt x="1319" y="400" on="0"/>
        <pt x="1198" y="236" on="0"/>
        <pt x="1194" y="230" on="1"/>
        <pt x="1162" y="194" on="1"/>
        <pt x="1130" y="158" on="0"/>
        <pt x="1107" y="119" on="0"/>
        <pt x="1107" y="56" on="1"/>
        <pt x="1104" y="25" on="1"/>
        <pt x="1099" y="-3" on="0"/>
        <pt x="1099" y="-46" on="0"/>
        <pt x="1118" y="-118" on="0"/>
        <pt x="1109" y="-118" on="0"/>
        <pt x="1097" y="-130" on="0"/>
        <pt x="1078" y="-143" on="1"/>
        <pt x="1009" y="-190" on="0"/>
        <pt x="933" y="-190" on="1"/>
        <pt x="795" y="-190" on="0"/>
        <pt x="539" y="-65" on="1"/>
        <pt x="417" y="-5" on="0"/>
        <pt x="287" y="117" on="1"/>
        <pt x="213" y="187" on="0"/>
        <pt x="132" y="411" on="0"/>
        <pt x="132" y="530" on="1"/>
        <pt x="132" y="557" on="1"/>
        <pt x="132" y="722" on="0"/>
        <pt x="252" y="1068" on="0"/>
        <pt x="468" y="1316" on="0"/>
        <pt x="731" y="1436" on="0"/>
        <pt x="863" y="1436" on="1"/>
        <pt x="918" y="1436" on="1"/>
        <pt x="1028" y="1436" on="0"/>
        <pt x="1231" y="1358" on="0"/>
        <pt x="1355" y="1223" on="0"/>
        <pt x="1428" y="1017" on="0"/>
      </contour>
    </TTGlyph>
    <TTGlyph name="R" xMin="92" yMin="6" xMax="1212" yMax="1429">
      <contour>
        <pt x="518" y="783" on="1"/>
        <pt x="594" y="783" on="1"/>
        <pt x="602" y="784" on="1"/>
        <pt x="680" y="786" on="1"/>
        <pt x="689" y="787" on="0"/>
        <pt x="697" y="787" on="1"/>
        <pt x="806" y="787" on="0"/>
        <pt x="969" y="937" on="0"/>
        <pt x="969" y="1043" on="1"/>
        <pt x="969" y="1078" on="1"/>
        <pt x="969" y="1149" on="0"/>
        <pt x="856" y="1234" on="0"/>
        <pt x="747" y="1234" on="1"/>
        <pt x="662" y="1234" on="1"/>
        <pt x="654" y="1233" on="1"/>
        <pt x="629" y="1232" on="1"/>
        <pt x="613" y="1232" on="1"/>
        <pt x="597" y="1230" on="0"/>
        <pt x="589" y="1230" on="1"/>
        <pt x="552" y="1230" on="0"/>
        <pt x="541" y="1198" on="1"/>
        <pt x="470" y="985" on="0"/>
        <pt x="470" y="826" on="1"/>
        <pt x="470" y="805" on="1"/>
        <pt x="470" y="783" on="0"/>
      </contour>
      <contour>
        <pt x="508" y="583" on="1"/>
        <pt x="439" y="583" on="0"/>
        <pt x="417" y="523" on="1"/>
        <pt x="413" y="513" on="0"/>
        <pt x="335" y="107" on="0"/>
        <pt x="322" y="81" on="1"/>
        <pt x="288" y="14" on="0"/>
        <pt x="120" y="14" on="0"/>
        <pt x="106" y="28" on="1"/>
        <pt x="92" y="40" on="0"/>
        <pt x="92" y="88" on="0"/>
        <pt x="300" y="1210" on="0"/>
        <pt x="317" y="1367" on="0"/>
        <pt x="325" y="1381" on="1"/>
        <pt x="351" y="1428" on="0"/>
        <pt x="641" y="1428" on="1"/>
        <pt x="729" y="1429" on="1"/>
        <pt x="987" y="1429" on="0"/>
        <pt x="1094" y="1354" on="1"/>
        <pt x="1148" y="1316" on="0"/>
        <pt x="1212" y="1186" on="0"/>
        <pt x="1212" y="1118" on="1"/>
        <pt x="1212" y="1089" on="1"/>
        <pt x="1212" y="864" on="0"/>
        <pt x="1000" y="709" on="1"/>
        <pt x="895" y="632" on="0"/>
        <pt x="895" y="596" on="1"/>
        <pt x="895" y="590" on="0"/>
        <pt x="951" y="470" on="0"/>
        <pt x="1087" y="61" on="0"/>
        <pt x="1087" y="47" on="1"/>
        <pt x="1087" y="6" on="0"/>
        <pt x="986" y="6" on="1"/>
        <pt x="957" y="6" on="1"/>
        <pt x="861" y="6" on="0"/>
        <pt x="827" y="63" on="1"/>
        <pt x="818" y="77" on="0"/>
        <pt x="694" y="478" on="0"/>
        <pt x="610" y="583" on="0"/>
      </contour>
    </TTGlyph>
    <TTGlyph name="S" xMin="73" yMin="-10" xMax="1146" yMax="1433">
      <contour>
        <pt x="1146" y="1341" on="0"/>
        <pt x="1146" y="1226" on="0"/>
        <pt x="1077" y="1148" on="0"/>
        <pt x="1008" y="1148" on="0"/>
        <pt x="765" y="1238" on="0"/>
        <pt x="703" y="1238" on="1"/>
        <pt x="601" y="1238" on="0"/>
        <pt x="489" y="1121" on="0"/>
        <pt x="489" y="1033" on="1"/>
        <pt x="489" y="971" on="0"/>
        <pt x="568" y="913" on="1"/>
        <pt x="596" y="892" on="0"/>
        <pt x="900" y="748" on="0"/>
        <pt x="958" y="693" on="1"/>
        <pt x="1062" y="594" on="0"/>
        <pt x="1062" y="439" on="1"/>
        <pt x="1062" y="344" on="0"/>
        <pt x="1022" y="264" on="1"/>
        <pt x="941" y="103" on="0"/>
        <pt x="759" y="31" on="1"/>
        <pt x="656" y="-10" on="0"/>
        <pt x="542" y="-10" on="1"/>
        <pt x="510" y="-10" on="1"/>
        <pt x="340" y="-10" on="0"/>
        <pt x="73" y="104" on="0"/>
        <pt x="73" y="170" on="1"/>
        <pt x="73" y="223" on="0"/>
        <pt x="148" y="311" on="0"/>
        <pt x="247" y="311" on="0"/>
        <pt x="467" y="192" on="0"/>
        <pt x="663" y="192" on="0"/>
        <pt x="813" y="304" on="0"/>
        <pt x="813" y="487" on="0"/>
        <pt x="735" y="547" on="1"/>
        <pt x="694" y="578" on="0"/>
        <pt x="382" y="721" on="0"/>
        <pt x="245" y="878" on="0"/>
        <pt x="245" y="1023" on="1"/>
        <pt x="245" y="1098" on="0"/>
        <pt x="282" y="1172" on="1"/>
        <pt x="362" y="1331" on="0"/>
        <pt x="543" y="1399" on="1"/>
        <pt x="634" y="1433" on="0"/>
        <pt x="725" y="1433" on="1"/>
        <pt x="791" y="1433" on="1"/>
        <pt x="942" y="1433" on="0"/>
        <pt x="1061" y="1379" on="1"/>
      </contour>
    </TTGlyph>
    <TTGlyph name="Scaron" xMin="120" yMin="89" xMax="1156" yMax="1873">
      <contour>
        <pt x="1156" y="1868" on="1"/>
        <pt x="1156" y="1820" on="0"/>
        <pt x="851" y="1570" on="1"/>
        <pt x="811" y="1537" on="0"/>
        <pt x="754" y="1537" on="1"/>
        <pt x="738" y="1537" on="1"/>
        <pt x="698" y="1537" on="0"/>
        <pt x="509" y="1726" on="0"/>
        <pt x="509" y="1743" on="1"/>
        <pt x="509" y="1756" on="1"/>
        <pt x="510" y="1762" on="1"/>
        <pt x="510" y="1810" on="0"/>
        <pt x="607" y="1810" on="1"/>
        <pt x="636" y="1809" on="1"/>
        <pt x="646" y="1808" on="0"/>
        <pt x="655" y="1808" on="1"/>
        <pt x="721" y="1808" on="0"/>
        <pt x="790" y="1739" on="1"/>
        <pt x="812" y="1717" on="0"/>
        <pt x="822" y="1717" on="0"/>
        <pt x="834" y="1733" on="1"/>
        <pt x="881" y="1799" on="0"/>
        <pt x="990" y="1870" on="0"/>
        <pt x="1078" y="1870" on="1"/>
        <pt x="1108" y="1871" on="1"/>
        <pt x="1120" y="1870" on="0"/>
        <pt x="1138" y="1872" on="1"/>
        <pt x="1142" y="1872" on="0"/>
        <pt x="1144" y="1873" on="1"/>
        <pt x="1156" y="1873" on="0"/>
      </contour>
      <contour>
        <pt x="1082" y="1230" on="0"/>
        <pt x="1038" y="1230" on="0"/>
        <pt x="814" y="1317" on="0"/>
        <pt x="648" y="1317" on="0"/>
        <pt x="540" y="1222" on="0"/>
        <pt x="540" y="1069" on="0"/>
        <pt x="613" y="1012" on="1"/>
        <pt x="659" y="976" on="0"/>
        <pt x="947" y="840" on="0"/>
        <pt x="1084" y="678" on="0"/>
        <pt x="1084" y="562" on="1"/>
        <pt x="1084" y="350" on="0"/>
        <pt x="939" y="221" on="1"/>
        <pt x="874" y="163" on="0"/>
        <pt x="678" y="89" on="0"/>
        <pt x="568" y="89" on="1"/>
        <pt x="536" y="89" on="1"/>
        <pt x="391" y="89" on="0"/>
        <pt x="120" y="199" on="0"/>
        <pt x="120" y="258" on="1"/>
        <pt x="120" y="324" on="0"/>
        <pt x="169" y="388" on="1"/>
        <pt x="190" y="415" on="0"/>
        <pt x="202" y="415" on="1"/>
        <pt x="237" y="415" on="0"/>
        <pt x="495" y="305" on="0"/>
        <pt x="668" y="305" on="0"/>
        <pt x="779" y="407" on="0"/>
        <pt x="779" y="559" on="0"/>
        <pt x="708" y="620" on="1"/>
        <pt x="675" y="648" on="0"/>
        <pt x="389" y="808" on="0"/>
        <pt x="339" y="871" on="1"/>
        <pt x="266" y="964" on="0"/>
        <pt x="266" y="1098" on="1"/>
        <pt x="266" y="1188" on="0"/>
        <pt x="306" y="1267" on="1"/>
        <pt x="380" y="1415" on="0"/>
        <pt x="529" y="1480" on="1"/>
        <pt x="638" y="1528" on="0"/>
        <pt x="743" y="1528" on="1"/>
        <pt x="774" y="1528" on="1"/>
        <pt x="909" y="1528" on="0"/>
        <pt x="1140" y="1435" on="0"/>
        <pt x="1140" y="1384" on="1"/>
        <pt x="1140" y="1312" on="0"/>
        <pt x="1097" y="1251" on="1"/>
      </contour>
    </TTGlyph>
    <TTGlyph name="T" xMin="189" yMin="0" xMax="1270" yMax="1426">
      <contour>
        <pt x="537" y="0" on="1"/>
        <pt x="380" y="0" on="0"/>
        <pt x="380" y="43" on="1"/>
        <pt x="380" y="123" on="0"/>
        <pt x="454" y="448" on="0"/>
        <pt x="562" y="1057" on="0"/>
        <pt x="562" y="1146" on="1"/>
        <pt x="562" y="1208" on="0"/>
        <pt x="472" y="1208" on="1"/>
        <pt x="429" y="1204" on="1"/>
        <pt x="415" y="1203" on="0"/>
        <pt x="292" y="1192" on="0"/>
        <pt x="265" y="1192" on="1"/>
        <pt x="189" y="1192" on="0"/>
        <pt x="189" y="1255" on="1"/>
        <pt x="189" y="1278" on="1"/>
        <pt x="189" y="1340" on="0"/>
        <pt x="222" y="1390" on="0"/>
        <pt x="263" y="1400" on="1"/>
        <pt x="367" y="1426" on="0"/>
        <pt x="815" y="1426" on="1"/>
        <pt x="892" y="1426" on="1"/>
        <pt x="1211" y="1426" on="0"/>
        <pt x="1270" y="1408" on="0"/>
        <pt x="1270" y="1371" on="1"/>
        <pt x="1270" y="1266" on="0"/>
        <pt x="1222" y="1231" on="1"/>
        <pt x="1194" y="1211" on="0"/>
        <pt x="1083" y="1211" on="1"/>
        <pt x="1034" y="1213" on="1"/>
        <pt x="986" y="1213" on="1"/>
        <pt x="941" y="1215" on="1"/>
        <pt x="858" y="1215" on="0"/>
        <pt x="832" y="1142" on="1"/>
        <pt x="811" y="1084" on="0"/>
        <pt x="729" y="618" on="1"/>
        <pt x="711" y="517" on="1"/>
        <pt x="706" y="492" on="1"/>
        <pt x="687" y="384" on="0"/>
        <pt x="637" y="34" on="0"/>
        <pt x="583" y="0" on="0"/>
      </contour>
    </TTGlyph>
    <TTGlyph name="Thorn" xMin="126" yMin="23" xMax="1173" yMax="1442">
      <contour>
        <pt x="923" y="866" on="1"/>
        <pt x="923" y="951" on="0"/>
        <pt x="795" y="1047" on="0"/>
        <pt x="674" y="1047" on="1"/>
        <pt x="649" y="1047" on="1"/>
        <pt x="560" y="1047" on="0"/>
        <pt x="532" y="990" on="0"/>
        <pt x="513" y="834" on="0"/>
        <pt x="492" y="723" on="0"/>
        <pt x="488" y="685" on="0"/>
        <pt x="467" y="575" on="0"/>
        <pt x="467" y="567" on="1"/>
        <pt x="467" y="540" on="0"/>
        <pt x="519" y="540" on="1"/>
        <pt x="569" y="540" on="1"/>
        <pt x="577" y="541" on="1"/>
        <pt x="603" y="542" on="1"/>
        <pt x="646" y="545" on="1"/>
        <pt x="757" y="545" on="0"/>
        <pt x="921" y="709" on="0"/>
        <pt x="921" y="822" on="1"/>
        <pt x="923" y="839" on="1"/>
      </contour>
      <contour>
        <pt x="493" y="1442" on="1"/>
        <pt x="549" y="1442" on="0"/>
        <pt x="565" y="1422" on="0"/>
        <pt x="597" y="1273" on="0"/>
        <pt x="614" y="1264" on="1"/>
        <pt x="621" y="1260" on="0"/>
        <pt x="835" y="1235" on="0"/>
        <pt x="865" y="1227" on="1"/>
        <pt x="1173" y="1143" on="0"/>
        <pt x="1173" y="866" on="1"/>
        <pt x="1173" y="653" on="0"/>
        <pt x="1039" y="519" on="1"/>
        <pt x="959" y="439" on="0"/>
        <pt x="842" y="399" on="1"/>
        <pt x="805" y="386" on="0"/>
        <pt x="491" y="333" on="0"/>
        <pt x="474" y="323" on="1"/>
        <pt x="413" y="287" on="0"/>
        <pt x="344" y="23" on="0"/>
        <pt x="301" y="23" on="1"/>
        <pt x="126" y="23" on="0"/>
        <pt x="126" y="67" on="1"/>
        <pt x="126" y="213" on="0"/>
        <pt x="252" y="879" on="1"/>
        <pt x="272" y="984" on="0"/>
        <pt x="306" y="1359" on="0"/>
        <pt x="340" y="1442" on="0"/>
      </contour>
    </TTGlyph>
    <TTGlyph name="U" xMin="177" yMin="-17" xMax="1396" yMax="1424">
      <contour>
        <pt x="549" y="1337" on="1"/>
        <pt x="549" y="1329" on="0"/>
        <pt x="495" y="932" on="0"/>
        <pt x="487" y="865" on="0"/>
        <pt x="426" y="511" on="0"/>
        <pt x="426" y="318" on="0"/>
        <pt x="488" y="254" on="1"/>
        <pt x="551" y="191" on="0"/>
        <pt x="651" y="191" on="1"/>
        <pt x="653" y="191" on="0"/>
        <pt x="654" y="191" on="1"/>
        <pt x="859" y="191" on="0"/>
        <pt x="949" y="380" on="1"/>
        <pt x="988" y="461" on="0"/>
        <pt x="1150" y="1322" on="0"/>
        <pt x="1160" y="1350" on="1"/>
        <pt x="1187" y="1424" on="0"/>
        <pt x="1328" y="1424" on="1"/>
        <pt x="1361" y="1424" on="1"/>
        <pt x="1396" y="1424" on="0"/>
        <pt x="1396" y="1394" on="1"/>
        <pt x="1396" y="1264" on="0"/>
        <pt x="1249" y="568" on="1"/>
        <pt x="1209" y="379" on="0"/>
        <pt x="1146" y="268" on="1"/>
        <pt x="1066" y="127" on="0"/>
        <pt x="802" y="-17" on="0"/>
        <pt x="660" y="-17" on="1"/>
        <pt x="404" y="-17" on="0"/>
        <pt x="291" y="93" on="1"/>
        <pt x="177" y="203" on="0"/>
        <pt x="177" y="397" on="1"/>
        <pt x="177" y="433" on="1"/>
        <pt x="177" y="591" on="0"/>
        <pt x="280" y="1123" on="1"/>
        <pt x="294" y="1196" on="0"/>
        <pt x="313" y="1376" on="0"/>
        <pt x="317" y="1383" on="1"/>
        <pt x="333" y="1411" on="0"/>
        <pt x="467" y="1411" on="1"/>
        <pt x="549" y="1411" on="0"/>
      </contour>
    </TTGlyph>
    <TTGlyph name="Uacute" xMin="192" yMin="4" xMax="1433" yMax="1918">
      <contour>
        <pt x="833" y="1593" on="1"/>
        <pt x="790" y="1593" on="0"/>
        <pt x="790" y="1615" on="1"/>
        <pt x="790" y="1624" on="1"/>
        <pt x="790" y="1637" on="0"/>
        <pt x="890" y="1804" on="0"/>
        <pt x="978" y="1882" on="1"/>
        <pt x="1019" y="1918" on="0"/>
        <pt x="1141" y="1918" on="1"/>
        <pt x="1202" y="1918" on="1"/>
        <pt x="1233" y="1918" on="0"/>
        <pt x="1233" y="1896" on="1"/>
        <pt x="1233" y="1892" on="1"/>
        <pt x="1233" y="1846" on="0"/>
        <pt x="1144" y="1767" on="1"/>
        <pt x="956" y="1600" on="0"/>
        <pt x="907" y="1600" on="1"/>
        <pt x="877" y="1595" on="0"/>
        <pt x="864" y="1595" on="1"/>
        <pt x="839" y="1593" on="1"/>
      </contour>
      <contour>
        <pt x="547" y="1386" on="1"/>
        <pt x="547" y="1353" on="0"/>
        <pt x="522" y="1119" on="0"/>
        <pt x="501" y="886" on="0"/>
        <pt x="449" y="576" on="0"/>
        <pt x="449" y="356" on="0"/>
        <pt x="582" y="217" on="0"/>
        <pt x="682" y="217" on="1"/>
        <pt x="880" y="217" on="0"/>
        <pt x="980" y="400" on="1"/>
        <pt x="1034" y="500" on="0"/>
        <pt x="1177" y="1345" on="0"/>
        <pt x="1204" y="1428" on="0"/>
        <pt x="1276" y="1478" on="0"/>
        <pt x="1360" y="1478" on="1"/>
        <pt x="1392" y="1478" on="1"/>
        <pt x="1433" y="1478" on="0"/>
        <pt x="1433" y="1449" on="1"/>
        <pt x="1433" y="1292" on="0"/>
        <pt x="1293" y="601" on="1"/>
        <pt x="1259" y="432" on="0"/>
        <pt x="1204" y="324" on="1"/>
        <pt x="1129" y="177" on="0"/>
        <pt x="856" y="4" on="0"/>
        <pt x="438" y="4" on="0"/>
        <pt x="192" y="254" on="0"/>
        <pt x="192" y="473" on="1"/>
        <pt x="192" y="638" on="0"/>
        <pt x="280" y="1166" on="1"/>
        <pt x="293" y="1244" on="0"/>
        <pt x="304" y="1419" on="0"/>
        <pt x="308" y="1427" on="1"/>
        <pt x="324" y="1459" on="0"/>
        <pt x="460" y="1459" on="1"/>
        <pt x="547" y="1459" on="0"/>
      </contour>
    </TTGlyph>
    <TTGlyph name="Ucircumflex" xMin="185" yMin="-3" xMax="1428" yMax="1905">
      <contour>
        <pt x="683" y="1577" on="1"/>
        <pt x="658" y="1577" on="1"/>
        <pt x="619" y="1577" on="0"/>
        <pt x="619" y="1591" on="1"/>
        <pt x="619" y="1598" on="1"/>
        <pt x="619" y="1650" on="0"/>
        <pt x="839" y="1836" on="1"/>
        <pt x="921" y="1905" on="0"/>
        <pt x="979" y="1905" on="1"/>
        <pt x="987" y="1905" on="1"/>
        <pt x="1038" y="1905" on="0"/>
        <pt x="1084" y="1855" on="1"/>
        <pt x="1238" y="1687" on="0"/>
        <pt x="1238" y="1620" on="1"/>
        <pt x="1238" y="1613" on="1"/>
        <pt x="1238" y="1577" on="0"/>
        <pt x="1175" y="1577" on="1"/>
        <pt x="1166" y="1577" on="1"/>
        <pt x="1092" y="1577" on="0"/>
        <pt x="1004" y="1677" on="1"/>
        <pt x="962" y="1723" on="0"/>
        <pt x="944" y="1723" on="0"/>
        <pt x="863" y="1660" on="1"/>
        <pt x="828" y="1635" on="1"/>
        <pt x="747" y="1577" on="0"/>
      </contour>
      <contour>
        <pt x="441" y="490" on="1"/>
        <pt x="441" y="212" on="0"/>
        <pt x="701" y="212" on="1"/>
        <pt x="795" y="212" on="0"/>
        <pt x="935" y="321" on="0"/>
        <pt x="1025" y="495" on="0"/>
        <pt x="1169" y="1333" on="0"/>
        <pt x="1173" y="1347" on="1"/>
        <pt x="1194" y="1416" on="0"/>
        <pt x="1272" y="1465" on="0"/>
        <pt x="1327" y="1465" on="1"/>
        <pt x="1363" y="1465" on="1"/>
        <pt x="1428" y="1465" on="0"/>
        <pt x="1428" y="1428" on="1"/>
        <pt x="1428" y="1291" on="0"/>
        <pt x="1282" y="580" on="1"/>
        <pt x="1247" y="411" on="0"/>
        <pt x="1114" y="165" on="0"/>
        <pt x="842" y="-3" on="0"/>
        <pt x="684" y="-3" on="1"/>
        <pt x="648" y="-3" on="1"/>
        <pt x="427" y="-3" on="0"/>
        <pt x="185" y="249" on="0"/>
        <pt x="185" y="472" on="1"/>
        <pt x="185" y="533" on="0"/>
        <pt x="213" y="719" on="0"/>
        <pt x="235" y="919" on="0"/>
        <pt x="281" y="1201" on="0"/>
        <pt x="301" y="1404" on="0"/>
        <pt x="310" y="1418" on="1"/>
        <pt x="327" y="1445" on="0"/>
        <pt x="465" y="1445" on="1"/>
        <pt x="546" y="1445" on="0"/>
        <pt x="546" y="1368" on="1"/>
        <pt x="546" y="1354" on="0"/>
        <pt x="531" y="1236" on="0"/>
        <pt x="525" y="1177" on="1"/>
        <pt x="501" y="948" on="1"/>
        <pt x="488" y="824" on="0"/>
        <pt x="441" y="568" on="0"/>
      </contour>
    </TTGlyph>
    <TTGlyph name="Udieresis" xMin="194" yMin="1" xMax="1436" yMax="1840">
      <contour>
        <pt x="867" y="1749" on="1"/>
        <pt x="867" y="1733" on="1"/>
        <pt x="867" y="1678" on="0"/>
        <pt x="799" y="1596" on="0"/>
        <pt x="740" y="1596" on="1"/>
        <pt x="719" y="1596" on="1"/>
        <pt x="673" y="1596" on="0"/>
        <pt x="619" y="1641" on="0"/>
        <pt x="619" y="1678" on="1"/>
        <pt x="619" y="1707" on="1"/>
        <pt x="619" y="1758" on="0"/>
        <pt x="664" y="1812" on="1"/>
        <pt x="687" y="1840" on="0"/>
        <pt x="742" y="1840" on="1"/>
        <pt x="770" y="1840" on="1"/>
        <pt x="817" y="1840" on="0"/>
        <pt x="867" y="1790" on="0"/>
      </contour>
      <contour>
        <pt x="1264" y="1732" on="1"/>
        <pt x="1264" y="1677" on="0"/>
        <pt x="1200" y="1600" on="0"/>
        <pt x="1165" y="1600" on="1"/>
        <pt x="1157" y="1598" on="0"/>
        <pt x="1153" y="1598" on="1"/>
        <pt x="1137" y="1596" on="1"/>
        <pt x="1112" y="1596" on="1"/>
        <pt x="1070" y="1596" on="0"/>
        <pt x="1016" y="1641" on="0"/>
        <pt x="1016" y="1687" on="1"/>
        <pt x="1016" y="1703" on="1"/>
        <pt x="1016" y="1758" on="0"/>
        <pt x="1082" y="1837" on="0"/>
        <pt x="1123" y="1837" on="1"/>
        <pt x="1147" y="1840" on="1"/>
        <pt x="1164" y="1840" on="1"/>
        <pt x="1176" y="1837" on="0"/>
        <pt x="1188" y="1837" on="1"/>
        <pt x="1261" y="1837" on="0"/>
        <pt x="1261" y="1769" on="1"/>
        <pt x="1264" y="1745" on="1"/>
      </contour>
      <contour>
        <pt x="450" y="494" on="1"/>
        <pt x="450" y="216" on="0"/>
        <pt x="709" y="216" on="1"/>
        <pt x="889" y="216" on="0"/>
        <pt x="990" y="417" on="1"/>
        <pt x="1035" y="507" on="0"/>
        <pt x="1178" y="1336" on="0"/>
        <pt x="1198" y="1407" on="0"/>
        <pt x="1265" y="1469" on="0"/>
        <pt x="1336" y="1469" on="1"/>
        <pt x="1371" y="1469" on="1"/>
        <pt x="1436" y="1469" on="0"/>
        <pt x="1436" y="1431" on="1"/>
        <pt x="1436" y="1299" on="0"/>
        <pt x="1291" y="584" on="1"/>
        <pt x="1220" y="229" on="0"/>
        <pt x="992" y="87" on="1"/>
        <pt x="855" y="1" on="0"/>
        <pt x="693" y="1" on="1"/>
        <pt x="656" y="1" on="1"/>
        <pt x="348" y="2" on="0"/>
        <pt x="234" y="248" on="1"/>
        <pt x="194" y="334" on="0"/>
        <pt x="194" y="439" on="1"/>
        <pt x="194" y="476" on="1"/>
        <pt x="194" y="512" on="0"/>
        <pt x="296" y="1326" on="0"/>
        <pt x="319" y="1429" on="0"/>
        <pt x="368" y="1449" on="0"/>
        <pt x="473" y="1449" on="1"/>
        <pt x="555" y="1449" on="0"/>
        <pt x="555" y="1372" on="1"/>
        <pt x="555" y="1369" on="0"/>
        <pt x="545" y="1278" on="1"/>
        <pt x="541" y="1246" on="1"/>
        <pt x="534" y="1188" on="0"/>
        <pt x="533" y="1181" on="1"/>
        <pt x="523" y="1082" on="1"/>
        <pt x="516" y="1018" on="0"/>
        <pt x="498" y="850" on="0"/>
        <pt x="450" y="561" on="0"/>
      </contour>
    </TTGlyph>
    <TTGlyph name="Ugrave" xMin="185" yMin="4" xMax="1428" yMax="1913">
      <contour>
        <pt x="935" y="1587" on="1"/>
        <pt x="868" y="1587" on="0"/>
        <pt x="800" y="1665" on="1"/>
        <pt x="660" y="1825" on="0"/>
        <pt x="660" y="1876" on="1"/>
        <pt x="660" y="1885" on="1"/>
        <pt x="660" y="1913" on="0"/>
        <pt x="711" y="1913" on="1"/>
        <pt x="785" y="1913" on="1"/>
        <pt x="813" y="1910" on="1"/>
        <pt x="875" y="1910" on="0"/>
        <pt x="909" y="1871" on="1"/>
        <pt x="922" y="1856" on="0"/>
        <pt x="974" y="1762" on="1"/>
        <pt x="1026" y="1669" on="0"/>
        <pt x="1026" y="1643" on="1"/>
        <pt x="1025" y="1614" on="1"/>
        <pt x="1025" y="1587" on="0"/>
        <pt x="980" y="1587" on="1"/>
        <pt x="969" y="1585" on="1"/>
        <pt x="964" y="1586" on="1"/>
        <pt x="952" y="1586" on="1"/>
        <pt x="946" y="1587" on="1"/>
      </contour>
      <contour>
        <pt x="441" y="496" on="1"/>
        <pt x="441" y="218" on="0"/>
        <pt x="701" y="218" on="1"/>
        <pt x="781" y="218" on="0"/>
        <pt x="929" y="315" on="0"/>
        <pt x="1028" y="507" on="0"/>
        <pt x="1136" y="1145" on="1"/>
        <pt x="1171" y="1353" on="0"/>
        <pt x="1203" y="1429" on="0"/>
        <pt x="1273" y="1472" on="0"/>
        <pt x="1428" y="1472" on="0"/>
        <pt x="1428" y="1434" on="1"/>
        <pt x="1428" y="1297" on="0"/>
        <pt x="1282" y="586" on="1"/>
        <pt x="1247" y="417" on="0"/>
        <pt x="1191" y="313" on="1"/>
        <pt x="1112" y="167" on="0"/>
        <pt x="841" y="4" on="0"/>
        <pt x="684" y="4" on="1"/>
        <pt x="648" y="4" on="1"/>
        <pt x="426" y="4" on="0"/>
        <pt x="185" y="253" on="0"/>
        <pt x="185" y="479" on="1"/>
        <pt x="185" y="541" on="0"/>
        <pt x="209" y="688" on="0"/>
        <pt x="236" y="927" on="0"/>
        <pt x="279" y="1199" on="0"/>
        <pt x="304" y="1414" on="0"/>
        <pt x="310" y="1424" on="1"/>
        <pt x="327" y="1451" on="0"/>
        <pt x="465" y="1451" on="1"/>
        <pt x="546" y="1451" on="0"/>
        <pt x="546" y="1374" on="1"/>
        <pt x="546" y="1359" on="0"/>
        <pt x="532" y="1250" on="0"/>
        <pt x="490" y="849" on="0"/>
        <pt x="441" y="560" on="0"/>
      </contour>
    </TTGlyph>
    <TTGlyph name="V" xMin="195" yMin="8" xMax="1395" yMax="1423">
      <contour>
        <pt x="612" y="331" on="0"/>
        <pt x="639" y="331" on="0"/>
        <pt x="1093" y="1274" on="0"/>
        <pt x="1127" y="1327" on="1"/>
        <pt x="1188" y="1423" on="0"/>
        <pt x="1288" y="1423" on="1"/>
        <pt x="1319" y="1423" on="1"/>
        <pt x="1395" y="1423" on="0"/>
        <pt x="1395" y="1390" on="1"/>
        <pt x="1395" y="1377" on="0"/>
        <pt x="1348" y="1285" on="1"/>
        <pt x="891" y="388" on="0"/>
        <pt x="693" y="46" on="0"/>
        <pt x="646" y="8" on="0"/>
        <pt x="498" y="8" on="0"/>
        <pt x="437" y="36" on="0"/>
        <pt x="405" y="148" on="0"/>
        <pt x="335" y="634" on="0"/>
        <pt x="273" y="928" on="0"/>
        <pt x="237" y="1156" on="0"/>
        <pt x="195" y="1346" on="0"/>
        <pt x="195" y="1362" on="1"/>
        <pt x="195" y="1412" on="0"/>
        <pt x="419" y="1412" on="0"/>
        <pt x="447" y="1341" on="1"/>
        <pt x="498" y="1209" on="0"/>
      </contour>
    </TTGlyph>
    <TTGlyph name="W" xMin="222" yMin="39" xMax="1958" yMax="1395">
      <contour>
        <pt x="1103" y="1355" on="1"/>
        <pt x="1179" y="1355" on="0"/>
        <pt x="1195" y="1286" on="1"/>
        <pt x="1218" y="1187" on="0"/>
        <pt x="1292" y="410" on="0"/>
        <pt x="1316" y="410" on="1"/>
        <pt x="1332" y="440" on="1"/>
        <pt x="1451" y="681" on="0"/>
        <pt x="1683" y="1239" on="0"/>
        <pt x="1756" y="1350" on="0"/>
        <pt x="1857" y="1395" on="0"/>
        <pt x="1958" y="1395" on="0"/>
        <pt x="1958" y="1374" on="1"/>
        <pt x="1958" y="1338" on="0"/>
        <pt x="1834" y="1065" on="0"/>
        <pt x="1471" y="238" on="0"/>
        <pt x="1403" y="107" on="0"/>
        <pt x="1296" y="39" on="0"/>
        <pt x="1248" y="39" on="1"/>
        <pt x="1200" y="40" on="0"/>
        <pt x="1180" y="60" on="1"/>
        <pt x="1142" y="98" on="0"/>
        <pt x="1104" y="367" on="1"/>
        <pt x="1091" y="471" on="1"/>
        <pt x="1036" y="907" on="0"/>
        <pt x="1013" y="907" on="1"/>
        <pt x="928" y="733" on="1"/>
        <pt x="766" y="398" on="0"/>
        <pt x="650" y="195" on="1"/>
        <pt x="568" y="52" on="0"/>
        <pt x="515" y="52" on="1"/>
        <pt x="430" y="52" on="0"/>
        <pt x="374" y="109" on="1"/>
        <pt x="349" y="134" on="0"/>
        <pt x="334" y="216" on="0"/>
        <pt x="308" y="524" on="0"/>
        <pt x="280" y="740" on="0"/>
        <pt x="222" y="1256" on="0"/>
        <pt x="222" y="1298" on="1"/>
        <pt x="222" y="1384" on="0"/>
        <pt x="308" y="1384" on="1"/>
        <pt x="431" y="1384" on="0"/>
        <pt x="468" y="1234" on="1"/>
        <pt x="491" y="1143" on="0"/>
        <pt x="552" y="424" on="0"/>
        <pt x="569" y="424" on="1"/>
        <pt x="593" y="424" on="0"/>
        <pt x="822" y="937" on="0"/>
        <pt x="934" y="1263" on="0"/>
        <pt x="943" y="1283" on="1"/>
        <pt x="964" y="1324" on="1"/>
        <pt x="992" y="1355" on="0"/>
      </contour>
    </TTGlyph>
    <TTGlyph name="X" xMin="21" yMin="-1" xMax="1361" yMax="1404">
      <contour>
        <pt x="878" y="697" on="1"/>
        <pt x="878" y="680" on="0"/>
        <pt x="1143" y="52" on="0"/>
        <pt x="1143" y="39" on="1"/>
        <pt x="1143" y="-1" on="0"/>
        <pt x="981" y="-1" on="1"/>
        <pt x="910" y="-1" on="0"/>
        <pt x="845" y="85" on="0"/>
        <pt x="684" y="527" on="0"/>
        <pt x="664" y="527" on="1"/>
        <pt x="659" y="527" on="0"/>
        <pt x="468" y="277" on="0"/>
        <pt x="356" y="118" on="0"/>
        <pt x="317" y="76" on="1"/>
        <pt x="253" y="8" on="0"/>
        <pt x="158" y="8" on="1"/>
        <pt x="21" y="8" on="0"/>
        <pt x="21" y="34" on="1"/>
        <pt x="21" y="40" on="0"/>
        <pt x="533" y="726" on="0"/>
        <pt x="533" y="769" on="1"/>
        <pt x="533" y="791" on="0"/>
        <pt x="269" y="1358" on="0"/>
        <pt x="269" y="1401" on="0"/>
        <pt x="417" y="1401" on="1"/>
        <pt x="507" y="1401" on="0"/>
        <pt x="545" y="1344" on="1"/>
        <pt x="553" y="1332" on="0"/>
        <pt x="726" y="939" on="0"/>
        <pt x="734" y="939" on="1"/>
        <pt x="747" y="939" on="0"/>
        <pt x="947" y="1188" on="0"/>
        <pt x="1056" y="1333" on="0"/>
        <pt x="1076" y="1349" on="1"/>
        <pt x="1142" y="1404" on="0"/>
        <pt x="1287" y="1404" on="1"/>
        <pt x="1321" y="1404" on="1"/>
        <pt x="1361" y="1404" on="0"/>
        <pt x="1361" y="1378" on="0"/>
        <pt x="925" y="820" on="0"/>
        <pt x="920" y="813" on="1"/>
        <pt x="878" y="748" on="0"/>
      </contour>
    </TTGlyph>
    <TTGlyph name="Y" xMin="206" yMin="8" xMax="1318" yMax="1406">
      <contour>
        <pt x="206" y="1319" on="1"/>
        <pt x="206" y="1338" on="1"/>
        <pt x="206" y="1393" on="0"/>
        <pt x="320" y="1393" on="1"/>
        <pt x="387" y="1393" on="0"/>
        <pt x="429" y="1368" on="1"/>
        <pt x="449" y="1356" on="0"/>
        <pt x="485" y="1300" on="1"/>
        <pt x="488" y="1295" on="0"/>
        <pt x="660" y="846" on="0"/>
        <pt x="664" y="846" on="1"/>
        <pt x="698" y="846" on="0"/>
        <pt x="861" y="1064" on="1"/>
        <pt x="930" y="1156" on="0"/>
        <pt x="1045" y="1331" on="0"/>
        <pt x="1068" y="1351" on="1"/>
        <pt x="1130" y="1406" on="0"/>
        <pt x="1250" y="1406" on="1"/>
        <pt x="1275" y="1406" on="1"/>
        <pt x="1318" y="1406" on="0"/>
        <pt x="1318" y="1369" on="0"/>
        <pt x="827" y="671" on="0"/>
        <pt x="745" y="526" on="0"/>
        <pt x="678" y="162" on="0"/>
        <pt x="642" y="69" on="1"/>
        <pt x="618" y="8" on="0"/>
        <pt x="566" y="8" on="1"/>
        <pt x="465" y="8" on="0"/>
        <pt x="403" y="32" on="0"/>
        <pt x="403" y="67" on="1"/>
        <pt x="488" y="524" on="1"/>
        <pt x="488" y="618" on="0"/>
        <pt x="454" y="722" on="1"/>
        <pt x="448" y="739" on="0"/>
        <pt x="364" y="919" on="0"/>
        <pt x="325" y="1022" on="1"/>
        <pt x="271" y="1159" on="1"/>
        <pt x="248" y="1220" on="0"/>
        <pt x="206" y="1318" on="0"/>
      </contour>
    </TTGlyph>
    <TTGlyph name="Yacute" xMin="186" yMin="30" xMax="1343" yMax="1933">
      <contour>
        <pt x="740" y="1598" on="1"/>
        <pt x="702" y="1598" on="0"/>
        <pt x="702" y="1624" on="1"/>
        <pt x="702" y="1629" on="1"/>
        <pt x="702" y="1707" on="0"/>
        <pt x="875" y="1880" on="1"/>
        <pt x="921" y="1926" on="0"/>
        <pt x="990" y="1926" on="1"/>
        <pt x="997" y="1927" on="1"/>
        <pt x="1003" y="1928" on="1"/>
        <pt x="1028" y="1930" on="1"/>
        <pt x="1034" y="1931" on="1"/>
        <pt x="1066" y="1933" on="1"/>
        <pt x="1103" y="1933" on="1"/>
        <pt x="1146" y="1933" on="0"/>
        <pt x="1146" y="1910" on="1"/>
        <pt x="1146" y="1901" on="1"/>
        <pt x="1146" y="1851" on="0"/>
        <pt x="1052" y="1767" on="1"/>
        <pt x="867" y="1603" on="0"/>
        <pt x="810" y="1603" on="1"/>
        <pt x="796" y="1601" on="0"/>
        <pt x="791" y="1601" on="1"/>
        <pt x="752" y="1598" on="1"/>
      </contour>
      <contour>
        <pt x="680" y="880" on="0"/>
        <pt x="687" y="880" on="0"/>
        <pt x="875" y="1112" on="1"/>
        <pt x="965" y="1223" on="1"/>
        <pt x="973" y="1233" on="0"/>
        <pt x="1070" y="1375" on="0"/>
        <pt x="1074" y="1379" on="1"/>
        <pt x="1142" y="1459" on="0"/>
        <pt x="1248" y="1459" on="1"/>
        <pt x="1299" y="1459" on="1"/>
        <pt x="1343" y="1459" on="0"/>
        <pt x="1343" y="1442" on="1"/>
        <pt x="1343" y="1415" on="0"/>
        <pt x="839" y="706" on="0"/>
        <pt x="812" y="651" on="1"/>
        <pt x="759" y="543" on="0"/>
        <pt x="694" y="147" on="0"/>
        <pt x="643" y="30" on="0"/>
        <pt x="581" y="30" on="1"/>
        <pt x="490" y="30" on="0"/>
        <pt x="430" y="51" on="0"/>
        <pt x="430" y="91" on="1"/>
        <pt x="430" y="93" on="0"/>
        <pt x="492" y="520" on="0"/>
        <pt x="492" y="578" on="1"/>
        <pt x="492" y="694" on="0"/>
        <pt x="423" y="863" on="1"/>
        <pt x="298" y="1132" on="1"/>
        <pt x="186" y="1385" on="0"/>
        <pt x="186" y="1403" on="0"/>
        <pt x="251" y="1443" on="0"/>
        <pt x="307" y="1443" on="1"/>
        <pt x="398" y="1443" on="0"/>
        <pt x="442" y="1381" on="1"/>
        <pt x="505" y="1292" on="0"/>
        <pt x="645" y="962" on="1"/>
      </contour>
    </TTGlyph>
    <TTGlyph name="Ydieresis" xMin="219" yMin="32" xMax="1310" yMax="1832">
      <contour>
        <pt x="760" y="1754" on="1"/>
        <pt x="760" y="1745" on="1"/>
        <pt x="760" y="1662" on="0"/>
        <pt x="713" y="1606" on="1"/>
        <pt x="692" y="1581" on="0"/>
        <pt x="627" y="1581" on="1"/>
        <pt x="602" y="1581" on="1"/>
        <pt x="574" y="1585" on="1"/>
        <pt x="522" y="1585" on="0"/>
        <pt x="522" y="1623" on="1"/>
        <pt x="520" y="1631" on="0"/>
        <pt x="520" y="1635" on="1"/>
        <pt x="518" y="1654" on="1"/>
        <pt x="518" y="1671" on="1"/>
        <pt x="518" y="1741" on="0"/>
        <pt x="580" y="1828" on="0"/>
        <pt x="626" y="1828" on="1"/>
        <pt x="634" y="1830" on="0"/>
        <pt x="638" y="1830" on="1"/>
        <pt x="659" y="1832" on="1"/>
        <pt x="676" y="1832" on="1"/>
        <pt x="707" y="1827" on="1"/>
        <pt x="760" y="1827" on="0"/>
      </contour>
      <contour>
        <pt x="986" y="1584" on="1"/>
        <pt x="932" y="1584" on="0"/>
        <pt x="932" y="1625" on="1"/>
        <pt x="929" y="1644" on="1"/>
        <pt x="929" y="1682" on="1"/>
        <pt x="934" y="1717" on="1"/>
        <pt x="934" y="1771" on="0"/>
        <pt x="1007" y="1832" on="0"/>
        <pt x="1072" y="1832" on="1"/>
        <pt x="1080" y="1832" on="1"/>
        <pt x="1167" y="1832" on="0"/>
        <pt x="1167" y="1783" on="1"/>
        <pt x="1170" y="1760" on="1"/>
        <pt x="1170" y="1739" on="1"/>
        <pt x="1169" y="1734" on="1"/>
        <pt x="1169" y="1730" on="1"/>
        <pt x="1166" y="1704" on="1"/>
        <pt x="1166" y="1669" on="0"/>
        <pt x="1127" y="1611" on="1"/>
        <pt x="1110" y="1586" on="0"/>
        <pt x="1068" y="1586" on="1"/>
        <pt x="1056" y="1583" on="0"/>
        <pt x="1052" y="1583" on="1"/>
        <pt x="1031" y="1581" on="1"/>
        <pt x="1006" y="1581" on="1"/>
        <pt x="994" y="1584" on="0"/>
      </contour>
      <contour>
        <pt x="679" y="880" on="1"/>
        <pt x="708" y="880" on="0"/>
        <pt x="878" y="1109" on="1"/>
        <pt x="939" y="1190" on="0"/>
        <pt x="1031" y="1341" on="0"/>
        <pt x="1067" y="1373" on="1"/>
        <pt x="1129" y="1428" on="0"/>
        <pt x="1247" y="1428" on="1"/>
        <pt x="1272" y="1428" on="1"/>
        <pt x="1310" y="1428" on="0"/>
        <pt x="1310" y="1408" on="1"/>
        <pt x="1310" y="1378" on="0"/>
        <pt x="863" y="744" on="0"/>
        <pt x="755" y="556" on="0"/>
        <pt x="688" y="196" on="0"/>
        <pt x="623" y="32" on="0"/>
        <pt x="478" y="32" on="0"/>
        <pt x="430" y="44" on="1"/>
        <pt x="403" y="51" on="0"/>
        <pt x="403" y="102" on="0"/>
        <pt x="494" y="524" on="0"/>
        <pt x="494" y="699" on="0"/>
        <pt x="370" y="947" on="0"/>
        <pt x="330" y="1056" on="1"/>
        <pt x="279" y="1192" on="1"/>
        <pt x="263" y="1236" on="0"/>
        <pt x="219" y="1322" on="0"/>
        <pt x="219" y="1355" on="1"/>
        <pt x="219" y="1419" on="0"/>
        <pt x="372" y="1419" on="1"/>
        <pt x="446" y="1419" on="0"/>
        <pt x="496" y="1338" on="1"/>
        <pt x="512" y="1313" on="0"/>
        <pt x="662" y="880" on="0"/>
      </contour>
    </TTGlyph>
    <TTGlyph name="Z" xMin="42" yMin="0" xMax="1275" yMax="1425">
      <contour>
        <pt x="1275" y="1397" on="1"/>
        <pt x="1275" y="1313" on="0"/>
        <pt x="1206" y="1223" on="1"/>
        <pt x="1186" y="1196" on="0"/>
        <pt x="897" y="842" on="0"/>
        <pt x="416" y="238" on="0"/>
        <pt x="416" y="199" on="0"/>
        <pt x="686" y="199" on="0"/>
        <pt x="886" y="218" on="0"/>
        <pt x="1030" y="218" on="0"/>
        <pt x="1064" y="166" on="0"/>
        <pt x="1064" y="48" on="0"/>
        <pt x="1004" y="0" on="0"/>
        <pt x="810" y="0" on="1"/>
        <pt x="189" y="0" on="1"/>
        <pt x="42" y="0" on="0"/>
        <pt x="42" y="51" on="1"/>
        <pt x="42" y="117" on="0"/>
        <pt x="186" y="309" on="0"/>
        <pt x="395" y="561" on="0"/>
        <pt x="897" y="1192" on="0"/>
        <pt x="897" y="1206" on="1"/>
        <pt x="897" y="1228" on="0"/>
        <pt x="655" y="1228" on="0"/>
        <pt x="410" y="1205" on="0"/>
        <pt x="376" y="1205" on="1"/>
        <pt x="295" y="1205" on="0"/>
        <pt x="295" y="1282" on="1"/>
        <pt x="295" y="1379" on="0"/>
        <pt x="350" y="1425" on="0"/>
        <pt x="480" y="1425" on="1"/>
        <pt x="511" y="1424" on="1"/>
        <pt x="579" y="1425" on="1"/>
        <pt x="1200" y="1425" on="1"/>
        <pt x="1275" y="1425" on="0"/>
      </contour>
    </TTGlyph>
    <TTGlyph name="Zcaron" xMin="40" yMin="16" xMax="1264" yMax="1890">
      <contour>
        <pt x="560" y="1829" on="1"/>
        <pt x="560" y="1845" on="1"/>
        <pt x="560" y="1887" on="0"/>
        <pt x="705" y="1887" on="0"/>
        <pt x="759" y="1828" on="1"/>
        <pt x="842" y="1738" on="0"/>
        <pt x="861" y="1738" on="0"/>
        <pt x="983" y="1834" on="1"/>
        <pt x="1054" y="1890" on="0"/>
        <pt x="1130" y="1890" on="1"/>
        <pt x="1138" y="1890" on="1"/>
        <pt x="1184" y="1890" on="0"/>
        <pt x="1184" y="1863" on="1"/>
        <pt x="1184" y="1857" on="1"/>
        <pt x="1184" y="1814" on="0"/>
        <pt x="976" y="1638" on="1"/>
        <pt x="881" y="1558" on="0"/>
        <pt x="820" y="1558" on="1"/>
        <pt x="803" y="1558" on="1"/>
        <pt x="795" y="1559" on="1"/>
        <pt x="759" y="1559" on="0"/>
        <pt x="725" y="1593" on="1"/>
        <pt x="560" y="1758" on="0"/>
      </contour>
      <contour>
        <pt x="1264" y="1417" on="1"/>
        <pt x="1264" y="1349" on="0"/>
        <pt x="1188" y="1246" on="1"/>
        <pt x="1168" y="1219" on="0"/>
        <pt x="1000" y="1003" on="1"/>
        <pt x="958" y="950" on="1"/>
        <pt x="904" y="882" on="0"/>
        <pt x="894" y="869" on="1"/>
        <pt x="789" y="734" on="1"/>
        <pt x="423" y="263" on="0"/>
        <pt x="423" y="213" on="0"/>
        <pt x="646" y="213" on="0"/>
        <pt x="904" y="238" on="0"/>
        <pt x="989" y="238" on="0"/>
        <pt x="1045" y="208" on="0"/>
        <pt x="1045" y="158" on="1"/>
        <pt x="1045" y="65" on="0"/>
        <pt x="981" y="16" on="0"/>
        <pt x="788" y="16" on="1"/>
        <pt x="172" y="16" on="1"/>
        <pt x="40" y="16" on="0"/>
        <pt x="40" y="48" on="1"/>
        <pt x="40" y="74" on="1"/>
        <pt x="40" y="128" on="0"/>
        <pt x="222" y="373" on="0"/>
        <pt x="362" y="545" on="0"/>
        <pt x="879" y="1210" on="0"/>
        <pt x="879" y="1251" on="0"/>
        <pt x="640" y="1251" on="0"/>
        <pt x="434" y="1224" on="0"/>
        <pt x="288" y="1224" on="0"/>
        <pt x="288" y="1296" on="1"/>
        <pt x="288" y="1388" on="0"/>
        <pt x="363" y="1446" on="0"/>
        <pt x="577" y="1446" on="1"/>
        <pt x="1125" y="1446" on="1"/>
        <pt x="1264" y="1446" on="0"/>
      </contour>
    </TTGlyph>
    <TTGlyph name="a" xMin="84" yMin="-1" xMax="1060" yMax="1012">
      <contour>
        <pt x="333" y="412" on="1"/>
        <pt x="333" y="384" on="1"/>
        <pt x="333" y="295" on="0"/>
        <pt x="408" y="186" on="0"/>
        <pt x="466" y="186" on="1"/>
        <pt x="484" y="186" on="1"/>
        <pt x="530" y="186" on="0"/>
        <pt x="642" y="258" on="0"/>
        <pt x="683" y="327" on="1"/>
        <pt x="769" y="470" on="0"/>
        <pt x="769" y="670" on="1"/>
        <pt x="769" y="697" on="1"/>
        <pt x="769" y="781" on="0"/>
        <pt x="720" y="839" on="0"/>
        <pt x="652" y="839" on="1"/>
        <pt x="634" y="839" on="1"/>
        <pt x="625" y="838" on="1"/>
        <pt x="581" y="838" on="0"/>
        <pt x="472" y="773" on="0"/>
        <pt x="427" y="707" on="1"/>
        <pt x="333" y="570" on="0"/>
      </contour>
      <contour>
        <pt x="1060" y="957" on="0"/>
        <pt x="1060" y="860" on="0"/>
        <pt x="963" y="423" on="0"/>
        <pt x="963" y="281" on="1"/>
        <pt x="963" y="239" on="0"/>
        <pt x="981" y="166" on="0"/>
        <pt x="981" y="159" on="1"/>
        <pt x="981" y="17" on="0"/>
        <pt x="845" y="17" on="1"/>
        <pt x="798" y="17" on="0"/>
        <pt x="769" y="53" on="1"/>
        <pt x="716" y="119" on="0"/>
        <pt x="715" y="119" on="1"/>
        <pt x="707" y="119" on="0"/>
        <pt x="631" y="60" on="0"/>
        <pt x="447" y="-1" on="0"/>
        <pt x="384" y="-1" on="1"/>
        <pt x="251" y="-1" on="0"/>
        <pt x="84" y="202" on="0"/>
        <pt x="84" y="353" on="1"/>
        <pt x="84" y="392" on="1"/>
        <pt x="84" y="503" on="0"/>
        <pt x="130" y="619" on="1"/>
        <pt x="228" y="862" on="0"/>
        <pt x="415" y="959" on="1"/>
        <pt x="518" y="1012" on="0"/>
        <pt x="610" y="1012" on="1"/>
        <pt x="647" y="1012" on="1"/>
        <pt x="727" y="1012" on="0"/>
        <pt x="842" y="967" on="0"/>
        <pt x="861" y="967" on="1"/>
        <pt x="966" y="986" on="1"/>
        <pt x="1013" y="986" on="0"/>
      </contour>
    </TTGlyph>
    <TTGlyph name="aacute" xMin="98" yMin="39" xMax="1073" yMax="1559">
      <contour>
        <pt x="351" y="474" on="1"/>
        <pt x="351" y="417" on="1"/>
        <pt x="351" y="338" on="0"/>
        <pt x="423" y="225" on="0"/>
        <pt x="484" y="225" on="1"/>
        <pt x="502" y="225" on="1"/>
        <pt x="542" y="225" on="0"/>
        <pt x="656" y="293" on="0"/>
        <pt x="693" y="355" on="1"/>
        <pt x="785" y="508" on="0"/>
        <pt x="785" y="692" on="1"/>
        <pt x="787" y="711" on="1"/>
        <pt x="787" y="764" on="1"/>
        <pt x="787" y="844" on="0"/>
        <pt x="731" y="891" on="0"/>
        <pt x="671" y="891" on="1"/>
        <pt x="653" y="891" on="1"/>
        <pt x="603" y="891" on="0"/>
        <pt x="492" y="824" on="0"/>
        <pt x="450" y="763" on="1"/>
        <pt x="351" y="619" on="0"/>
      </contour>
      <contour>
        <pt x="1038" y="1543" on="1"/>
        <pt x="1038" y="1535" on="1"/>
        <pt x="1038" y="1485" on="0"/>
        <pt x="833" y="1280" on="1"/>
        <pt x="761" y="1208" on="0"/>
        <pt x="697" y="1208" on="1"/>
        <pt x="659" y="1208" on="1"/>
        <pt x="614" y="1208" on="0"/>
        <pt x="614" y="1248" on="0"/>
        <pt x="698" y="1415" on="0"/>
        <pt x="773" y="1500" on="1"/>
        <pt x="822" y="1555" on="0"/>
        <pt x="894" y="1555" on="1"/>
        <pt x="900" y="1556" on="1"/>
        <pt x="907" y="1557" on="1"/>
        <pt x="950" y="1559" on="1"/>
        <pt x="1005" y="1559" on="1"/>
        <pt x="1038" y="1559" on="0"/>
      </contour>
      <contour>
        <pt x="985" y="1036" on="1"/>
        <pt x="1073" y="1036" on="0"/>
        <pt x="1073" y="960" on="1"/>
        <pt x="1073" y="922" on="0"/>
        <pt x="982" y="442" on="0"/>
        <pt x="982" y="305" on="1"/>
        <pt x="982" y="264" on="0"/>
        <pt x="994" y="208" on="1"/>
        <pt x="994" y="137" on="0"/>
        <pt x="972" y="108" on="1"/>
        <pt x="934" y="58" on="0"/>
        <pt x="853" y="58" on="1"/>
        <pt x="808" y="58" on="0"/>
        <pt x="780" y="95" on="1"/>
        <pt x="733" y="157" on="0"/>
        <pt x="720" y="157" on="0"/>
        <pt x="637" y="95" on="0"/>
        <pt x="448" y="39" on="0"/>
        <pt x="410" y="39" on="1"/>
        <pt x="392" y="39" on="1"/>
        <pt x="259" y="39" on="0"/>
        <pt x="98" y="249" on="0"/>
        <pt x="98" y="401" on="1"/>
        <pt x="99" y="421" on="1"/>
        <pt x="99" y="440" on="1"/>
        <pt x="99" y="442" on="0"/>
        <pt x="99" y="444" on="1"/>
        <pt x="99" y="538" on="0"/>
        <pt x="142" y="656" on="1"/>
        <pt x="233" y="908" on="0"/>
        <pt x="447" y="1018" on="1"/>
        <pt x="536" y="1064" on="0"/>
        <pt x="625" y="1064" on="1"/>
        <pt x="644" y="1064" on="1"/>
        <pt x="680" y="1062" on="0"/>
        <pt x="729" y="1062" on="0"/>
        <pt x="809" y="1045" on="0"/>
        <pt x="861" y="1023" on="0"/>
        <pt x="881" y="1023" on="1"/>
      </contour>
    </TTGlyph>
    <TTGlyph name="acircumflex" xMin="101" yMin="26" xMax="1076" yMax="1543">
      <contour>
        <pt x="350" y="448" on="1"/>
        <pt x="350" y="411" on="1"/>
        <pt x="350" y="321" on="0"/>
        <pt x="425" y="212" on="0"/>
        <pt x="492" y="212" on="1"/>
        <pt x="501" y="213" on="1"/>
        <pt x="549" y="213" on="0"/>
        <pt x="661" y="288" on="0"/>
        <pt x="691" y="338" on="1"/>
        <pt x="786" y="496" on="0"/>
        <pt x="786" y="706" on="1"/>
        <pt x="786" y="723" on="1"/>
        <pt x="786" y="807" on="0"/>
        <pt x="738" y="866" on="0"/>
        <pt x="660" y="866" on="1"/>
        <pt x="651" y="865" on="1"/>
        <pt x="540" y="865" on="0"/>
        <pt x="455" y="749" on="1"/>
        <pt x="350" y="606" on="0"/>
      </contour>
      <contour>
        <pt x="492" y="1183" on="1"/>
        <pt x="475" y="1183" on="1"/>
        <pt x="467" y="1184" on="1"/>
        <pt x="435" y="1184" on="0"/>
        <pt x="435" y="1203" on="1"/>
        <pt x="435" y="1210" on="1"/>
        <pt x="435" y="1259" on="0"/>
        <pt x="671" y="1477" on="1"/>
        <pt x="743" y="1543" on="0"/>
        <pt x="848" y="1543" on="0"/>
        <pt x="892" y="1486" on="1"/>
        <pt x="1036" y="1299" on="0"/>
        <pt x="1036" y="1222" on="1"/>
        <pt x="1036" y="1183" on="0"/>
        <pt x="993" y="1183" on="1"/>
        <pt x="976" y="1183" on="1"/>
        <pt x="924" y="1183" on="0"/>
        <pt x="868" y="1231" on="0"/>
        <pt x="774" y="1352" on="0"/>
        <pt x="761" y="1352" on="0"/>
        <pt x="696" y="1293" on="0"/>
        <pt x="658" y="1262" on="0"/>
        <pt x="614" y="1222" on="0"/>
        <pt x="549" y="1183" on="0"/>
      </contour>
      <contour>
        <pt x="101" y="380" on="1"/>
        <pt x="101" y="419" on="1"/>
        <pt x="101" y="520" on="0"/>
        <pt x="144" y="636" on="1"/>
        <pt x="235" y="881" on="0"/>
        <pt x="432" y="986" on="1"/>
        <pt x="532" y="1039" on="0"/>
        <pt x="627" y="1039" on="1"/>
        <pt x="645" y="1039" on="1"/>
        <pt x="755" y="1039" on="0"/>
        <pt x="857" y="994" on="0"/>
        <pt x="898" y="994" on="0"/>
        <pt x="968" y="1012" on="0"/>
        <pt x="998" y="1012" on="1"/>
        <pt x="1076" y="1012" on="0"/>
        <pt x="1076" y="936" on="1"/>
        <pt x="1076" y="920" on="1"/>
        <pt x="1076" y="889" on="0"/>
        <pt x="980" y="445" on="0"/>
        <pt x="980" y="294" on="1"/>
        <pt x="980" y="255" on="0"/>
        <pt x="998" y="197" on="0"/>
        <pt x="998" y="186" on="1"/>
        <pt x="998" y="120" on="0"/>
        <pt x="930" y="43" on="0"/>
        <pt x="813" y="43" on="0"/>
        <pt x="786" y="79" on="1"/>
        <pt x="735" y="146" on="0"/>
        <pt x="731" y="146" on="0"/>
        <pt x="632" y="82" on="0"/>
        <pt x="464" y="26" on="0"/>
        <pt x="401" y="26" on="1"/>
        <pt x="264" y="26" on="0"/>
        <pt x="101" y="231" on="0"/>
      </contour>
    </TTGlyph>
    <TTGlyph name="acute" xMin="273" yMin="1074" xMax="702" yMax="1416">
      <contour>
        <pt x="674" y="1416" on="1"/>
        <pt x="702" y="1416" on="0"/>
        <pt x="702" y="1398" on="1"/>
        <pt x="702" y="1331" on="0"/>
        <pt x="488" y="1138" on="1"/>
        <pt x="417" y="1074" on="0"/>
        <pt x="355" y="1074" on="1"/>
        <pt x="306" y="1074" on="1"/>
        <pt x="273" y="1074" on="0"/>
        <pt x="273" y="1088" on="1"/>
        <pt x="273" y="1093" on="1"/>
        <pt x="273" y="1177" on="0"/>
        <pt x="441" y="1366" on="1"/>
        <pt x="483" y="1413" on="0"/>
        <pt x="552" y="1413" on="1"/>
        <pt x="564" y="1414" on="1"/>
        <pt x="571" y="1415" on="1"/>
        <pt x="601" y="1416" on="1"/>
      </contour>
    </TTGlyph>
    <TTGlyph name="adieresis" xMin="112" yMin="30" xMax="1088" yMax="1456">
      <contour>
        <pt x="362" y="461" on="1"/>
        <pt x="362" y="405" on="1"/>
        <pt x="362" y="329" on="0"/>
        <pt x="435" y="216" on="0"/>
        <pt x="495" y="216" on="1"/>
        <pt x="512" y="216" on="1"/>
        <pt x="554" y="216" on="0"/>
        <pt x="668" y="285" on="0"/>
        <pt x="707" y="349" on="1"/>
        <pt x="797" y="499" on="0"/>
        <pt x="797" y="691" on="1"/>
        <pt x="797" y="736" on="1"/>
        <pt x="797" y="821" on="0"/>
        <pt x="739" y="869" on="0"/>
        <pt x="680" y="869" on="1"/>
        <pt x="653" y="869" on="1"/>
        <pt x="552" y="869" on="0"/>
        <pt x="362" y="610" on="0"/>
      </contour>
      <contour>
        <pt x="696" y="1346" on="1"/>
        <pt x="691" y="1309" on="1"/>
        <pt x="691" y="1282" on="0"/>
        <pt x="630" y="1209" on="0"/>
        <pt x="590" y="1209" on="1"/>
        <pt x="565" y="1206" on="1"/>
        <pt x="548" y="1206" on="1"/>
        <pt x="501" y="1206" on="0"/>
        <pt x="451" y="1248" on="0"/>
        <pt x="451" y="1275" on="1"/>
        <pt x="448" y="1295" on="1"/>
        <pt x="448" y="1320" on="1"/>
        <pt x="448" y="1374" on="0"/>
        <pt x="492" y="1427" on="1"/>
        <pt x="516" y="1456" on="0"/>
        <pt x="570" y="1456" on="1"/>
        <pt x="600" y="1456" on="1"/>
        <pt x="696" y="1456" on="0"/>
        <pt x="696" y="1363" on="1"/>
      </contour>
      <contour>
        <pt x="936" y="1206" on="1"/>
        <pt x="893" y="1206" on="0"/>
        <pt x="843" y="1248" on="0"/>
        <pt x="843" y="1274" on="1"/>
        <pt x="840" y="1294" on="1"/>
        <pt x="840" y="1319" on="1"/>
        <pt x="845" y="1344" on="0"/>
        <pt x="845" y="1381" on="0"/>
        <pt x="905" y="1453" on="0"/>
        <pt x="946" y="1453" on="1"/>
        <pt x="970" y="1456" on="1"/>
        <pt x="987" y="1456" on="1"/>
        <pt x="1088" y="1456" on="0"/>
        <pt x="1088" y="1359" on="1"/>
        <pt x="1088" y="1350" on="1"/>
        <pt x="1088" y="1294" on="0"/>
        <pt x="1029" y="1211" on="0"/>
        <pt x="994" y="1211" on="1"/>
        <pt x="982" y="1208" on="1"/>
        <pt x="961" y="1206" on="1"/>
      </contour>
      <contour>
        <pt x="1088" y="940" on="1"/>
        <pt x="1088" y="923" on="1"/>
        <pt x="1088" y="912" on="0"/>
        <pt x="1059" y="759" on="0"/>
        <pt x="1054" y="739" on="1"/>
        <pt x="1046" y="702" on="1"/>
        <pt x="991" y="443" on="0"/>
        <pt x="991" y="280" on="0"/>
        <pt x="1009" y="195" on="0"/>
        <pt x="1009" y="189" on="1"/>
        <pt x="1009" y="47" on="0"/>
        <pt x="874" y="47" on="1"/>
        <pt x="826" y="47" on="0"/>
        <pt x="797" y="83" on="1"/>
        <pt x="744" y="149" on="0"/>
        <pt x="743" y="149" on="1"/>
        <pt x="734" y="149" on="0"/>
        <pt x="656" y="90" on="0"/>
        <pt x="486" y="30" on="0"/>
        <pt x="431" y="30" on="1"/>
        <pt x="394" y="30" on="1"/>
        <pt x="274" y="30" on="0"/>
        <pt x="112" y="236" on="0"/>
        <pt x="112" y="384" on="1"/>
        <pt x="112" y="403" on="1"/>
        <pt x="112" y="519" on="0"/>
        <pt x="154" y="635" on="1"/>
        <pt x="244" y="884" on="0"/>
        <pt x="444" y="989" on="1"/>
        <pt x="546" y="1043" on="0"/>
        <pt x="638" y="1043" on="1"/>
        <pt x="657" y="1043" on="1"/>
        <pt x="749" y="1043" on="0"/>
        <pt x="871" y="998" on="0"/>
        <pt x="889" y="998" on="1"/>
        <pt x="1009" y="1016" on="1"/>
        <pt x="1088" y="1016" on="0"/>
      </contour>
    </TTGlyph>
    <TTGlyph name="ae" xMin="133" yMin="7" xMax="1770" yMax="1119">
      <contour>
        <pt x="401" y="470" on="1"/>
        <pt x="401" y="429" on="1"/>
        <pt x="401" y="330" on="0"/>
        <pt x="486" y="222" on="0"/>
        <pt x="544" y="222" on="1"/>
        <pt x="563" y="222" on="1"/>
        <pt x="614" y="222" on="0"/>
        <pt x="750" y="298" on="0"/>
        <pt x="770" y="338" on="1"/>
        <pt x="777" y="351" on="0"/>
        <pt x="831" y="607" on="0"/>
        <pt x="840" y="643" on="0"/>
        <pt x="849" y="688" on="0"/>
        <pt x="852" y="698" on="1"/>
        <pt x="890" y="854" on="1"/>
        <pt x="890" y="862" on="0"/>
        <pt x="827" y="907" on="0"/>
        <pt x="752" y="907" on="1"/>
        <pt x="713" y="907" on="1"/>
        <pt x="668" y="907" on="0"/>
        <pt x="548" y="836" on="0"/>
        <pt x="502" y="770" on="1"/>
        <pt x="401" y="623" on="0"/>
      </contour>
      <contour>
        <pt x="1123" y="669" on="0"/>
        <pt x="1123" y="654" on="0"/>
        <pt x="1145" y="654" on="1"/>
        <pt x="1157" y="654" on="1"/>
        <pt x="1163" y="655" on="1"/>
        <pt x="1272" y="664" on="1"/>
        <pt x="1293" y="666" on="1"/>
        <pt x="1318" y="671" on="0"/>
        <pt x="1334" y="671" on="1"/>
        <pt x="1362" y="675" on="1"/>
        <pt x="1393" y="680" on="1"/>
        <pt x="1457" y="680" on="0"/>
        <pt x="1536" y="729" on="0"/>
        <pt x="1536" y="736" on="1"/>
        <pt x="1536" y="765" on="1"/>
        <pt x="1534" y="777" on="0"/>
        <pt x="1534" y="782" on="1"/>
        <pt x="1534" y="831" on="0"/>
        <pt x="1448" y="917" on="0"/>
        <pt x="1384" y="917" on="1"/>
        <pt x="1360" y="917" on="1"/>
        <pt x="1289" y="917" on="0"/>
        <pt x="1118" y="765" on="0"/>
        <pt x="1118" y="693" on="1"/>
        <pt x="1118" y="689" on="1"/>
      </contour>
      <contour>
        <pt x="1247" y="7" on="1"/>
        <pt x="1215" y="7" on="1"/>
        <pt x="1083" y="7" on="0"/>
        <pt x="988" y="70" on="1"/>
        <pt x="964" y="88" on="1"/>
        <pt x="942" y="108" on="1"/>
        <pt x="886" y="146" on="0"/>
        <pt x="844" y="146" on="0"/>
        <pt x="589" y="9" on="0"/>
        <pt x="482" y="9" on="1"/>
        <pt x="331" y="9" on="0"/>
        <pt x="133" y="215" on="0"/>
        <pt x="133" y="409" on="1"/>
        <pt x="133" y="439" on="1"/>
        <pt x="133" y="561" on="0"/>
        <pt x="234" y="812" on="0"/>
        <pt x="318" y="908" on="1"/>
        <pt x="493" y="1109" on="0"/>
        <pt x="728" y="1109" on="1"/>
        <pt x="751" y="1109" on="0"/>
        <pt x="788" y="1104" on="1"/>
        <pt x="818" y="1099" on="1"/>
        <pt x="846" y="1093" on="1"/>
        <pt x="871" y="1098" on="1"/>
        <pt x="891" y="1101" on="0"/>
        <pt x="1008" y="1101" on="0"/>
        <pt x="1066" y="1059" on="1"/>
        <pt x="1106" y="1028" on="1"/>
        <pt x="1108" y="1028" on="0"/>
        <pt x="1202" y="1079" on="0"/>
        <pt x="1321" y="1119" on="0"/>
        <pt x="1417" y="1119" on="1"/>
        <pt x="1574" y="1119" on="0"/>
        <pt x="1770" y="938" on="0"/>
        <pt x="1770" y="767" on="1"/>
        <pt x="1770" y="636" on="0"/>
        <pt x="1658" y="576" on="1"/>
        <pt x="1592" y="540" on="0"/>
        <pt x="1284" y="487" on="0"/>
        <pt x="1227" y="487" on="1"/>
        <pt x="1133" y="481" on="1"/>
        <pt x="1081" y="471" on="0"/>
        <pt x="1081" y="318" on="0"/>
        <pt x="1223" y="225" on="0"/>
        <pt x="1328" y="225" on="1"/>
        <pt x="1364" y="225" on="0"/>
        <pt x="1534" y="266" on="0"/>
        <pt x="1563" y="266" on="1"/>
        <pt x="1630" y="266" on="0"/>
        <pt x="1630" y="223" on="1"/>
        <pt x="1630" y="134" on="0"/>
        <pt x="1552" y="75" on="0"/>
        <pt x="1351" y="7" on="0"/>
      </contour>
    </TTGlyph>
    <TTGlyph name="agrave" xMin="98" yMin="41" xMax="1073" yMax="1553">
      <contour>
        <pt x="347" y="463" on="1"/>
        <pt x="347" y="416" on="1"/>
        <pt x="347" y="336" on="0"/>
        <pt x="422" y="227" on="0"/>
        <pt x="489" y="227" on="1"/>
        <pt x="498" y="228" on="1"/>
        <pt x="546" y="228" on="0"/>
        <pt x="657" y="302" on="0"/>
        <pt x="683" y="346" on="1"/>
        <pt x="779" y="506" on="0"/>
        <pt x="779" y="666" on="1"/>
        <pt x="782" y="694" on="1"/>
        <pt x="782" y="756" on="1"/>
        <pt x="782" y="831" on="0"/>
        <pt x="723" y="881" on="0"/>
        <pt x="656" y="881" on="1"/>
        <pt x="647" y="881" on="1"/>
        <pt x="538" y="881" on="0"/>
        <pt x="347" y="621" on="0"/>
      </contour>
      <contour>
        <pt x="799" y="1198" on="1"/>
        <pt x="759" y="1198" on="1"/>
        <pt x="703" y="1198" on="0"/>
        <pt x="651" y="1258" on="1"/>
        <pt x="498" y="1433" on="0"/>
        <pt x="498" y="1518" on="1"/>
        <pt x="499" y="1523" on="1"/>
        <pt x="499" y="1527" on="1"/>
        <pt x="499" y="1553" on="0"/>
        <pt x="549" y="1553" on="1"/>
        <pt x="560" y="1553" on="1"/>
        <pt x="566" y="1552" on="1"/>
        <pt x="646" y="1550" on="1"/>
        <pt x="652" y="1549" on="0"/>
        <pt x="657" y="1549" on="1"/>
        <pt x="712" y="1549" on="0"/>
        <pt x="743" y="1500" on="1"/>
        <pt x="839" y="1346" on="0"/>
        <pt x="839" y="1266" on="1"/>
        <pt x="842" y="1238" on="1"/>
        <pt x="842" y="1228" on="1"/>
        <pt x="842" y="1198" on="0"/>
      </contour>
      <contour>
        <pt x="98" y="375" on="1"/>
        <pt x="98" y="434" on="1"/>
        <pt x="98" y="528" on="0"/>
        <pt x="179" y="763" on="0"/>
        <pt x="335" y="951" on="0"/>
        <pt x="529" y="1054" on="0"/>
        <pt x="623" y="1054" on="1"/>
        <pt x="642" y="1054" on="1"/>
        <pt x="748" y="1054" on="0"/>
        <pt x="855" y="1009" on="0"/>
        <pt x="896" y="1009" on="0"/>
        <pt x="964" y="1027" on="0"/>
        <pt x="994" y="1027" on="1"/>
        <pt x="1073" y="1027" on="0"/>
        <pt x="1073" y="951" on="1"/>
        <pt x="1073" y="935" on="1"/>
        <pt x="1073" y="904" on="0"/>
        <pt x="977" y="460" on="0"/>
        <pt x="977" y="309" on="1"/>
        <pt x="977" y="260" on="0"/>
        <pt x="995" y="209" on="0"/>
        <pt x="995" y="201" on="1"/>
        <pt x="995" y="135" on="0"/>
        <pt x="927" y="58" on="0"/>
        <pt x="812" y="58" on="0"/>
        <pt x="782" y="95" on="1"/>
        <pt x="729" y="161" on="0"/>
        <pt x="728" y="161" on="1"/>
        <pt x="721" y="161" on="0"/>
        <pt x="639" y="101" on="0"/>
        <pt x="461" y="41" on="0"/>
        <pt x="398" y="41" on="1"/>
        <pt x="270" y="41" on="0"/>
        <pt x="98" y="234" on="0"/>
      </contour>
    </TTGlyph>
    <TTGlyph name="ampersand" xMin="123" yMin="-18" xMax="1336" yMax="1450">
      <contour>
        <pt x="705" y="914" on="1"/>
        <pt x="713" y="914" on="1"/>
        <pt x="763" y="914" on="0"/>
        <pt x="878" y="1029" on="1"/>
        <pt x="938" y="1089" on="0"/>
        <pt x="938" y="1156" on="1"/>
        <pt x="938" y="1183" on="1"/>
        <pt x="938" y="1224" on="0"/>
        <pt x="877" y="1276" on="0"/>
        <pt x="835" y="1276" on="1"/>
        <pt x="812" y="1276" on="1"/>
        <pt x="744" y="1276" on="0"/>
        <pt x="639" y="1171" on="0"/>
        <pt x="639" y="1096" on="1"/>
        <pt x="639" y="1069" on="1"/>
        <pt x="639" y="994" on="0"/>
        <pt x="684" y="934" on="1"/>
        <pt x="699" y="914" on="0"/>
      </contour>
      <contour>
        <pt x="586" y="637" on="1"/>
        <pt x="574" y="637" on="1"/>
        <pt x="515" y="637" on="0"/>
        <pt x="424" y="512" on="1"/>
        <pt x="364" y="429" on="0"/>
        <pt x="364" y="357" on="1"/>
        <pt x="364" y="327" on="1"/>
        <pt x="364" y="255" on="0"/>
        <pt x="468" y="162" on="0"/>
        <pt x="552" y="162" on="1"/>
        <pt x="585" y="162" on="1"/>
        <pt x="670" y="162" on="0"/>
        <pt x="841" y="254" on="0"/>
        <pt x="841" y="314" on="0"/>
        <pt x="599" y="637" on="0"/>
      </contour>
      <contour>
        <pt x="852" y="1450" on="1"/>
        <pt x="994" y="1450" on="0"/>
        <pt x="1070" y="1384" on="1"/>
        <pt x="1146" y="1320" on="0"/>
        <pt x="1147" y="1214" on="1"/>
        <pt x="1147" y="1030" on="0"/>
        <pt x="948" y="877" on="1"/>
        <pt x="831" y="788" on="0"/>
        <pt x="831" y="697" on="0"/>
        <pt x="925" y="560" on="1"/>
        <pt x="975" y="488" on="0"/>
        <pt x="1046" y="488" on="0"/>
        <pt x="1183" y="712" on="0"/>
        <pt x="1241" y="712" on="1"/>
        <pt x="1336" y="712" on="0"/>
        <pt x="1336" y="664" on="1"/>
        <pt x="1336" y="603" on="0"/>
        <pt x="1157" y="315" on="0"/>
        <pt x="1157" y="252" on="0"/>
        <pt x="1270" y="123" on="0"/>
        <pt x="1270" y="77" on="1"/>
        <pt x="1270" y="15" on="0"/>
        <pt x="1131" y="15" on="0"/>
        <pt x="986" y="94" on="0"/>
        <pt x="944" y="94" on="1"/>
        <pt x="940" y="94" on="0"/>
        <pt x="649" y="-18" on="0"/>
        <pt x="534" y="-18" on="1"/>
        <pt x="502" y="-18" on="1"/>
        <pt x="328" y="-18" on="0"/>
        <pt x="124" y="142" on="0"/>
        <pt x="123" y="281" on="1"/>
        <pt x="123" y="505" on="0"/>
        <pt x="326" y="680" on="1"/>
        <pt x="469" y="804" on="0"/>
        <pt x="469" y="853" on="0"/>
        <pt x="417" y="1011" on="0"/>
        <pt x="417" y="1080" on="1"/>
        <pt x="417" y="1230" on="0"/>
        <pt x="653" y="1450" on="0"/>
      </contour>
    </TTGlyph>
    <TTGlyph name="aring" xMin="100" yMin="41" xMax="1075" yMax="1598">
      <contour>
        <pt x="742" y="1483" on="0"/>
        <pt x="712" y="1483" on="0"/>
        <pt x="659" y="1416" on="0"/>
        <pt x="659" y="1395" on="1"/>
        <pt x="657" y="1382" on="1"/>
        <pt x="657" y="1363" on="1"/>
        <pt x="658" y="1360" on="1"/>
        <pt x="658" y="1353" on="1"/>
        <pt x="661" y="1344" on="0"/>
        <pt x="661" y="1341" on="1"/>
        <pt x="661" y="1290" on="0"/>
        <pt x="716" y="1290" on="1"/>
        <pt x="731" y="1287" on="1"/>
        <pt x="751" y="1287" on="1"/>
        <pt x="763" y="1291" on="0"/>
        <pt x="794" y="1291" on="0"/>
        <pt x="846" y="1355" on="0"/>
        <pt x="846" y="1378" on="1"/>
        <pt x="848" y="1394" on="1"/>
        <pt x="848" y="1410" on="1"/>
        <pt x="848" y="1483" on="0"/>
        <pt x="789" y="1483" on="1"/>
        <pt x="773" y="1486" on="1"/>
        <pt x="751" y="1486" on="1"/>
      </contour>
      <contour>
        <pt x="349" y="463" on="1"/>
        <pt x="349" y="416" on="1"/>
        <pt x="349" y="336" on="0"/>
        <pt x="424" y="228" on="0"/>
        <pt x="473" y="228" on="1"/>
        <pt x="508" y="228" on="1"/>
        <pt x="542" y="228" on="0"/>
        <pt x="655" y="296" on="0"/>
        <pt x="685" y="346" on="1"/>
        <pt x="782" y="508" on="0"/>
        <pt x="782" y="676" on="1"/>
        <pt x="784" y="694" on="1"/>
        <pt x="784" y="756" on="1"/>
        <pt x="784" y="831" on="0"/>
        <pt x="725" y="881" on="0"/>
        <pt x="658" y="881" on="1"/>
        <pt x="649" y="881" on="1"/>
        <pt x="540" y="881" on="0"/>
        <pt x="349" y="621" on="0"/>
      </contour>
      <contour>
        <pt x="531" y="1352" on="1"/>
        <pt x="531" y="1380" on="1"/>
        <pt x="531" y="1464" on="0"/>
        <pt x="680" y="1598" on="0"/>
        <pt x="770" y="1598" on="1"/>
        <pt x="784" y="1598" on="1"/>
        <pt x="858" y="1598" on="0"/>
        <pt x="973" y="1494" on="0"/>
        <pt x="973" y="1415" on="1"/>
        <pt x="973" y="1401" on="1"/>
        <pt x="973" y="1310" on="0"/>
        <pt x="826" y="1177" on="0"/>
        <pt x="741" y="1177" on="1"/>
        <pt x="720" y="1177" on="1"/>
        <pt x="639" y="1177" on="0"/>
        <pt x="531" y="1285" on="0"/>
      </contour>
      <contour>
        <pt x="626" y="1054" on="1"/>
        <pt x="663" y="1054" on="1"/>
        <pt x="745" y="1054" on="0"/>
        <pt x="856" y="1009" on="0"/>
        <pt x="892" y="1009" on="0"/>
        <pt x="971" y="1027" on="0"/>
        <pt x="997" y="1027" on="1"/>
        <pt x="1075" y="1027" on="0"/>
        <pt x="1075" y="951" on="1"/>
        <pt x="1075" y="935" on="1"/>
        <pt x="1075" y="904" on="0"/>
        <pt x="979" y="460" on="0"/>
        <pt x="979" y="309" on="1"/>
        <pt x="979" y="260" on="0"/>
        <pt x="997" y="209" on="0"/>
        <pt x="997" y="201" on="1"/>
        <pt x="997" y="135" on="0"/>
        <pt x="929" y="58" on="0"/>
        <pt x="812" y="58" on="0"/>
        <pt x="784" y="95" on="1"/>
        <pt x="734" y="161" on="0"/>
        <pt x="724" y="161" on="0"/>
        <pt x="639" y="100" on="0"/>
        <pt x="463" y="41" on="0"/>
        <pt x="400" y="41" on="1"/>
        <pt x="272" y="41" on="0"/>
        <pt x="100" y="234" on="0"/>
        <pt x="100" y="376" on="1"/>
        <pt x="100" y="434" on="1"/>
        <pt x="100" y="536" on="0"/>
        <pt x="187" y="771" on="0"/>
        <pt x="337" y="951" on="0"/>
        <pt x="531" y="1054" on="0"/>
      </contour>
    </TTGlyph>
    <TTGlyph name="asciicircum" xMin="238" yMin="774" xMax="1024" yMax="1413">
      <contour>
        <pt x="725" y="1413" on="1"/>
        <pt x="738" y="1413" on="1"/>
        <pt x="783" y="1413" on="0"/>
        <pt x="831" y="1308" on="1"/>
        <pt x="1024" y="890" on="0"/>
        <pt x="1024" y="816" on="1"/>
        <pt x="1024" y="774" on="0"/>
        <pt x="934" y="774" on="1"/>
        <pt x="879" y="774" on="0"/>
        <pt x="825" y="863" on="1"/>
        <pt x="800" y="904" on="0"/>
        <pt x="689" y="1176" on="0"/>
        <pt x="679" y="1176" on="1"/>
        <pt x="677" y="1176" on="0"/>
        <pt x="442" y="845" on="0"/>
        <pt x="423" y="826" on="1"/>
        <pt x="372" y="775" on="0"/>
        <pt x="238" y="775" on="0"/>
        <pt x="238" y="809" on="1"/>
        <pt x="238" y="821" on="0"/>
        <pt x="268" y="871" on="1"/>
        <pt x="425" y="1133" on="0"/>
        <pt x="595" y="1350" on="1"/>
        <pt x="644" y="1413" on="0"/>
      </contour>
    </TTGlyph>
    <TTGlyph name="asciitilde" xMin="162" yMin="555" xMax="1035" yMax="854">
      <contour>
        <pt x="1035" y="809" on="1"/>
        <pt x="1035" y="790" on="1"/>
        <pt x="1035" y="701" on="0"/>
        <pt x="929" y="614" on="1"/>
        <pt x="857" y="555" on="0"/>
        <pt x="703" y="555" on="0"/>
        <pt x="457" y="684" on="0"/>
        <pt x="432" y="684" on="1"/>
        <pt x="380" y="684" on="0"/>
        <pt x="274" y="578" on="0"/>
        <pt x="162" y="578" on="0"/>
        <pt x="162" y="607" on="1"/>
        <pt x="162" y="695" on="0"/>
        <pt x="332" y="854" on="0"/>
        <pt x="424" y="854" on="1"/>
        <pt x="446" y="854" on="1"/>
        <pt x="506" y="854" on="0"/>
        <pt x="736" y="727" on="0"/>
        <pt x="819" y="727" on="0"/>
        <pt x="930" y="830" on="0"/>
        <pt x="1035" y="830" on="0"/>
      </contour>
    </TTGlyph>
    <TTGlyph name="asterisk" xMin="227" yMin="718" xMax="908" yMax="1400">
      <contour>
        <pt x="286" y="858" on="0"/>
        <pt x="264" y="858" on="0"/>
        <pt x="257" y="868" on="1"/>
        <pt x="227" y="911" on="0"/>
        <pt x="227" y="960" on="0"/>
        <pt x="285" y="1039" on="0"/>
        <pt x="295" y="1045" on="1"/>
        <pt x="329" y="1065" on="0"/>
        <pt x="329" y="1067" on="1"/>
        <pt x="314" y="1085" on="0"/>
        <pt x="307" y="1117" on="0"/>
        <pt x="275" y="1172" on="0"/>
        <pt x="275" y="1211" on="0"/>
        <pt x="322" y="1272" on="0"/>
        <pt x="335" y="1272" on="1"/>
        <pt x="375" y="1272" on="0"/>
        <pt x="434" y="1246" on="1"/>
        <pt x="448" y="1242" on="1"/>
        <pt x="460" y="1238" on="1"/>
        <pt x="471" y="1233" on="1"/>
        <pt x="491" y="1222" on="1"/>
        <pt x="497" y="1222" on="0"/>
        <pt x="537" y="1349" on="0"/>
        <pt x="553" y="1362" on="1"/>
        <pt x="598" y="1400" on="0"/>
        <pt x="670" y="1400" on="1"/>
        <pt x="699" y="1400" on="0"/>
        <pt x="699" y="1268" on="0"/>
        <pt x="664" y="1173" on="0"/>
        <pt x="672" y="1173" on="1"/>
        <pt x="825" y="1227" on="1"/>
        <pt x="840" y="1227" on="0"/>
        <pt x="908" y="1170" on="0"/>
        <pt x="908" y="1108" on="0"/>
        <pt x="835" y="1048" on="0"/>
        <pt x="725" y="1018" on="0"/>
        <pt x="725" y="998" on="1"/>
        <pt x="725" y="986" on="0"/>
        <pt x="785" y="913" on="0"/>
        <pt x="785" y="801" on="0"/>
        <pt x="756" y="777" on="0"/>
        <pt x="668" y="777" on="0"/>
        <pt x="602" y="817" on="0"/>
        <pt x="566" y="817" on="0"/>
        <pt x="558" y="808" on="0"/>
        <pt x="540" y="776" on="0"/>
        <pt x="534" y="771" on="1"/>
        <pt x="470" y="718" on="0"/>
        <pt x="409" y="718" on="1"/>
        <pt x="369" y="718" on="0"/>
        <pt x="369" y="785" on="1"/>
        <pt x="375" y="839" on="1"/>
        <pt x="375" y="862" on="0"/>
        <pt x="304" y="862" on="1"/>
      </contour>
    </TTGlyph>
    <TTGlyph name="at" xMin="164" yMin="-219" xMax="1694" yMax="1381">
      <contour>
        <pt x="1032" y="843" on="1"/>
        <pt x="1012" y="843" on="1"/>
        <pt x="977" y="843" on="0"/>
        <pt x="863" y="782" on="0"/>
        <pt x="828" y="731" on="1"/>
        <pt x="716" y="569" on="0"/>
        <pt x="716" y="443" on="1"/>
        <pt x="716" y="406" on="1"/>
        <pt x="716" y="358" on="0"/>
        <pt x="761" y="306" on="0"/>
        <pt x="786" y="306" on="1"/>
        <pt x="799" y="306" on="1"/>
        <pt x="950" y="306" on="0"/>
        <pt x="1055" y="600" on="1"/>
        <pt x="1097" y="718" on="0"/>
        <pt x="1097" y="776" on="1"/>
        <pt x="1097" y="796" on="1"/>
        <pt x="1097" y="843" on="0"/>
      </contour>
      <contour>
        <pt x="1694" y="806" on="1"/>
        <pt x="1694" y="532" on="0"/>
        <pt x="1569" y="359" on="1"/>
        <pt x="1501" y="265" on="0"/>
        <pt x="1328" y="177" on="0"/>
        <pt x="1209" y="177" on="0"/>
        <pt x="1086" y="240" on="0"/>
        <pt x="1055" y="240" on="0"/>
        <pt x="896" y="167" on="0"/>
        <pt x="828" y="167" on="1"/>
        <pt x="727" y="167" on="0"/>
        <pt x="592" y="330" on="0"/>
        <pt x="592" y="455" on="1"/>
        <pt x="592" y="627" on="0"/>
        <pt x="694" y="779" on="1"/>
        <pt x="762" y="880" on="0"/>
        <pt x="908" y="972" on="0"/>
        <pt x="974" y="972" on="1"/>
        <pt x="1016" y="970" on="1"/>
        <pt x="1077" y="967" on="0"/>
        <pt x="1093" y="967" on="1"/>
        <pt x="1166" y="977" on="1"/>
        <pt x="1202" y="977" on="0"/>
        <pt x="1251" y="926" on="0"/>
        <pt x="1251" y="805" on="0"/>
        <pt x="1192" y="529" on="0"/>
        <pt x="1192" y="498" on="1"/>
        <pt x="1192" y="406" on="0"/>
        <pt x="1296" y="406" on="0"/>
        <pt x="1378" y="582" on="0"/>
        <pt x="1378" y="696" on="1"/>
        <pt x="1378" y="893" on="0"/>
        <pt x="1164" y="1098" on="0"/>
        <pt x="897" y="1098" on="0"/>
        <pt x="813" y="1062" on="1"/>
        <pt x="730" y="1026" on="0"/>
        <pt x="644" y="936" on="1"/>
        <pt x="468" y="750" on="0"/>
        <pt x="467" y="493" on="1"/>
        <pt x="467" y="369" on="0"/>
        <pt x="503" y="186" on="0"/>
        <pt x="618" y="14" on="0"/>
        <pt x="785" y="-76" on="0"/>
        <pt x="919" y="-76" on="0"/>
        <pt x="962" y="-71" on="1"/>
        <pt x="1005" y="-65" on="1"/>
        <pt x="1073" y="-56" on="0"/>
        <pt x="1084" y="-56" on="1"/>
        <pt x="1149" y="-56" on="0"/>
        <pt x="1149" y="-90" on="1"/>
        <pt x="1149" y="-138" on="0"/>
        <pt x="1070" y="-172" on="1"/>
        <pt x="961" y="-219" on="0"/>
        <pt x="648" y="-219" on="0"/>
        <pt x="537" y="-174" on="1"/>
        <pt x="319" y="-86" on="0"/>
        <pt x="225" y="123" on="1"/>
        <pt x="164" y="259" on="0"/>
        <pt x="164" y="393" on="1"/>
        <pt x="164" y="449" on="1"/>
        <pt x="164" y="641" on="0"/>
        <pt x="242" y="818" on="1"/>
        <pt x="399" y="1176" on="0"/>
        <pt x="725" y="1312" on="1"/>
        <pt x="891" y="1381" on="0"/>
        <pt x="1060" y="1381" on="1"/>
        <pt x="1368" y="1381" on="0"/>
        <pt x="1539" y="1212" on="1"/>
        <pt x="1615" y="1137" on="0"/>
        <pt x="1694" y="921" on="0"/>
      </contour>
    </TTGlyph>
    <TTGlyph name="atilde" xMin="96" yMin="16" xMax="1098" yMax="1434">
      <contour>
        <pt x="345" y="429" on="1"/>
        <pt x="345" y="410" on="1"/>
        <pt x="345" y="316" on="0"/>
        <pt x="418" y="202" on="0"/>
        <pt x="478" y="202" on="1"/>
        <pt x="496" y="202" on="1"/>
        <pt x="538" y="202" on="0"/>
        <pt x="651" y="270" on="0"/>
        <pt x="695" y="343" on="1"/>
        <pt x="781" y="486" on="0"/>
        <pt x="781" y="687" on="1"/>
        <pt x="781" y="722" on="1"/>
        <pt x="779" y="740" on="0"/>
        <pt x="779" y="797" on="0"/>
        <pt x="736" y="855" on="0"/>
        <pt x="673" y="855" on="1"/>
        <pt x="637" y="855" on="1"/>
        <pt x="602" y="855" on="0"/>
        <pt x="485" y="793" on="0"/>
        <pt x="434" y="716" on="1"/>
        <pt x="345" y="582" on="0"/>
      </contour>
      <contour>
        <pt x="615" y="1434" on="1"/>
        <pt x="641" y="1434" on="1"/>
        <pt x="691" y="1434" on="0"/>
        <pt x="844" y="1344" on="0"/>
        <pt x="914" y="1344" on="0"/>
        <pt x="1002" y="1417" on="0"/>
        <pt x="1098" y="1417" on="0"/>
        <pt x="1098" y="1388" on="1"/>
        <pt x="1098" y="1304" on="0"/>
        <pt x="953" y="1182" on="0"/>
        <pt x="877" y="1182" on="1"/>
        <pt x="868" y="1182" on="1"/>
        <pt x="859" y="1183" on="1"/>
        <pt x="804" y="1183" on="0"/>
        <pt x="650" y="1274" on="0"/>
        <pt x="580" y="1274" on="0"/>
        <pt x="490" y="1198" on="0"/>
        <pt x="394" y="1198" on="0"/>
        <pt x="394" y="1225" on="1"/>
        <pt x="394" y="1234" on="1"/>
        <pt x="394" y="1311" on="0"/>
        <pt x="540" y="1434" on="0"/>
      </contour>
      <contour>
        <pt x="1072" y="926" on="1"/>
        <pt x="1072" y="884" on="0"/>
        <pt x="975" y="436" on="0"/>
        <pt x="975" y="298" on="1"/>
        <pt x="975" y="256" on="0"/>
        <pt x="993" y="183" on="0"/>
        <pt x="993" y="176" on="1"/>
        <pt x="993" y="33" on="0"/>
        <pt x="857" y="33" on="1"/>
        <pt x="808" y="33" on="0"/>
        <pt x="781" y="69" on="1"/>
        <pt x="730" y="136" on="0"/>
        <pt x="720" y="136" on="0"/>
        <pt x="642" y="77" on="0"/>
        <pt x="462" y="16" on="0"/>
        <pt x="415" y="16" on="1"/>
        <pt x="396" y="16" on="1"/>
        <pt x="259" y="16" on="0"/>
        <pt x="96" y="221" on="0"/>
        <pt x="96" y="370" on="1"/>
        <pt x="96" y="389" on="1"/>
        <pt x="96" y="506" on="0"/>
        <pt x="184" y="749" on="0"/>
        <pt x="258" y="835" on="1"/>
        <pt x="425" y="1029" on="0"/>
        <pt x="622" y="1029" on="1"/>
        <pt x="640" y="1029" on="1"/>
        <pt x="735" y="1029" on="0"/>
        <pt x="857" y="984" on="0"/>
        <pt x="873" y="984" on="1"/>
        <pt x="993" y="1002" on="1"/>
        <pt x="1072" y="1002" on="0"/>
      </contour>
    </TTGlyph>
    <TTGlyph name="b" xMin="89" yMin="-9" xMax="1056" yMax="1479">
      <contour>
        <pt x="511" y="171" on="1"/>
        <pt x="539" y="171" on="1"/>
        <pt x="590" y="171" on="0"/>
        <pt x="691" y="232" on="0"/>
        <pt x="724" y="281" on="1"/>
        <pt x="824" y="431" on="0"/>
        <pt x="824" y="605" on="1"/>
        <pt x="824" y="633" on="1"/>
        <pt x="824" y="727" on="0"/>
        <pt x="750" y="834" on="0"/>
        <pt x="675" y="834" on="1"/>
        <pt x="665" y="833" on="1"/>
        <pt x="608" y="833" on="0"/>
        <pt x="499" y="767" on="0"/>
        <pt x="435" y="661" on="0"/>
        <pt x="369" y="424" on="0"/>
        <pt x="369" y="325" on="1"/>
        <pt x="369" y="288" on="1"/>
        <pt x="369" y="232" on="0"/>
        <pt x="454" y="171" on="0"/>
      </contour>
      <contour>
        <pt x="660" y="-9" on="0"/>
        <pt x="482" y="-9" on="0"/>
        <pt x="422" y="14" on="1"/>
        <pt x="382" y="33" on="1"/>
        <pt x="363" y="43" on="1"/>
        <pt x="322" y="63" on="0"/>
        <pt x="302" y="63" on="0"/>
        <pt x="225" y="11" on="0"/>
        <pt x="124" y="11" on="0"/>
        <pt x="89" y="43" on="0"/>
        <pt x="89" y="114" on="0"/>
        <pt x="132" y="338" on="0"/>
        <pt x="150" y="442" on="0"/>
        <pt x="184" y="618" on="0"/>
        <pt x="314" y="1364" on="0"/>
        <pt x="353" y="1479" on="0"/>
        <pt x="454" y="1479" on="1"/>
        <pt x="477" y="1479" on="1"/>
        <pt x="556" y="1479" on="0"/>
        <pt x="556" y="1425" on="1"/>
        <pt x="556" y="1384" on="0"/>
        <pt x="485" y="967" on="0"/>
        <pt x="485" y="952" on="1"/>
        <pt x="484" y="937" on="0"/>
        <pt x="494" y="937" on="1"/>
        <pt x="504" y="938" on="0"/>
        <pt x="543" y="956" on="1"/>
        <pt x="662" y="1012" on="0"/>
        <pt x="905" y="1012" on="0"/>
        <pt x="1056" y="810" on="0"/>
        <pt x="1056" y="650" on="1"/>
        <pt x="1056" y="626" on="1"/>
        <pt x="1056" y="511" on="0"/>
        <pt x="1016" y="391" on="1"/>
        <pt x="932" y="138" on="0"/>
        <pt x="747" y="38" on="1"/>
      </contour>
    </TTGlyph>
    <TTGlyph name="backslash" xMin="197" yMin="-155" xMax="743" yMax="1475">
      <contour>
        <pt x="743" y="-117" on="1"/>
        <pt x="743" y="-155" on="0"/>
        <pt x="605" y="-155" on="1"/>
        <pt x="540" y="-155" on="0"/>
        <pt x="522" y="-93" on="1"/>
        <pt x="522" y="-91" on="0"/>
        <pt x="512" y="-46" on="1"/>
        <pt x="494" y="35" on="1"/>
        <pt x="486" y="71" on="0"/>
        <pt x="479" y="108" on="1"/>
        <pt x="463" y="181" on="1"/>
        <pt x="403" y="459" on="0"/>
        <pt x="390" y="515" on="0"/>
        <pt x="385" y="545" on="1"/>
        <pt x="349" y="709" on="1"/>
        <pt x="306" y="909" on="1"/>
        <pt x="302" y="930" on="0"/>
        <pt x="197" y="1416" on="0"/>
        <pt x="197" y="1437" on="1"/>
        <pt x="197" y="1475" on="0"/>
        <pt x="335" y="1475" on="1"/>
        <pt x="401" y="1475" on="0"/>
        <pt x="417" y="1413" on="1"/>
        <pt x="449" y="1290" on="0"/>
        <pt x="505" y="999" on="0"/>
        <pt x="576" y="681" on="0"/>
        <pt x="589" y="613" on="0"/>
        <pt x="622" y="465" on="1"/>
        <pt x="630" y="429" on="1"/>
        <pt x="637" y="392" on="1"/>
        <pt x="645" y="355" on="0"/>
        <pt x="665" y="265" on="0"/>
        <pt x="673" y="228" on="1"/>
        <pt x="681" y="192" on="1"/>
        <pt x="690" y="148" on="0"/>
        <pt x="743" y="-93" on="0"/>
      </contour>
    </TTGlyph>
    <TTGlyph name="bar" xMin="136" yMin="-363" xMax="558" yMax="1522">
      <contour>
        <pt x="259" y="-363" on="1"/>
        <pt x="199" y="-363" on="1"/>
        <pt x="136" y="-363" on="0"/>
        <pt x="136" y="-346" on="1"/>
        <pt x="136" y="-307" on="1"/>
        <pt x="180" y="48" on="1"/>
        <pt x="183" y="69" on="1"/>
        <pt x="198" y="194" on="1"/>
        <pt x="201" y="215" on="1"/>
        <pt x="340" y="1378" on="0"/>
        <pt x="355" y="1467" on="1"/>
        <pt x="365" y="1522" on="0"/>
        <pt x="415" y="1522" on="1"/>
        <pt x="494" y="1522" on="1"/>
        <pt x="558" y="1522" on="0"/>
        <pt x="558" y="1505" on="1"/>
        <pt x="558" y="1486" on="1"/>
        <pt x="558" y="1485" on="0"/>
        <pt x="526" y="1216" on="1"/>
        <pt x="524" y="1195" on="1"/>
        <pt x="498" y="986" on="1"/>
        <pt x="495" y="965" on="1"/>
        <pt x="490" y="923" on="1"/>
        <pt x="352" y="-234" on="0"/>
        <pt x="339" y="-308" on="1"/>
        <pt x="329" y="-363" on="0"/>
      </contour>
    </TTGlyph>
    <TTGlyph name="braceleft" xMin="118" yMin="-345" xMax="874" yMax="1517">
      <contour>
        <pt x="568" y="-241" on="1"/>
        <pt x="568" y="-345" on="0"/>
        <pt x="477" y="-345" on="1"/>
        <pt x="332" y="-345" on="0"/>
        <pt x="180" y="-210" on="0"/>
        <pt x="180" y="-54" on="1"/>
        <pt x="180" y="-7" on="0"/>
        <pt x="240" y="299" on="0"/>
        <pt x="240" y="436" on="0"/>
        <pt x="199" y="474" on="1"/>
        <pt x="118" y="550" on="0"/>
        <pt x="118" y="561" on="1"/>
        <pt x="118" y="643" on="0"/>
        <pt x="236" y="705" on="0"/>
        <pt x="239" y="707" on="1"/>
        <pt x="298" y="747" on="0"/>
        <pt x="325" y="815" on="1"/>
        <pt x="332" y="834" on="0"/>
        <pt x="415" y="1283" on="0"/>
        <pt x="529" y="1441" on="0"/>
        <pt x="700" y="1517" on="0"/>
        <pt x="789" y="1517" on="1"/>
        <pt x="815" y="1517" on="1"/>
        <pt x="874" y="1517" on="0"/>
        <pt x="874" y="1474" on="1"/>
        <pt x="874" y="1452" on="1"/>
        <pt x="874" y="1382" on="0"/>
        <pt x="830" y="1352" on="1"/>
        <pt x="820" y="1345" on="0"/>
        <pt x="748" y="1322" on="0"/>
        <pt x="725" y="1311" on="1"/>
        <pt x="674" y="1288" on="0"/>
        <pt x="609" y="1179" on="0"/>
        <pt x="545" y="808" on="0"/>
        <pt x="483" y="676" on="0"/>
        <pt x="369" y="592" on="0"/>
        <pt x="369" y="582" on="0"/>
        <pt x="418" y="526" on="0"/>
        <pt x="458" y="451" on="0"/>
        <pt x="458" y="320" on="0"/>
        <pt x="406" y="55" on="0"/>
        <pt x="406" y="-88" on="0"/>
        <pt x="468" y="-130" on="1"/>
        <pt x="568" y="-198" on="0"/>
      </contour>
    </TTGlyph>
    <TTGlyph name="braceright" xMin="-26" yMin="-343" xMax="712" yMax="1518">
      <contour>
        <pt x="353" y="1518" on="1"/>
        <pt x="649" y="1518" on="0"/>
        <pt x="649" y="1220" on="1"/>
        <pt x="649" y="1140" on="0"/>
        <pt x="599" y="885" on="0"/>
        <pt x="599" y="765" on="0"/>
        <pt x="633" y="721" on="1"/>
        <pt x="634" y="720" on="0"/>
        <pt x="712" y="654" on="0"/>
        <pt x="712" y="630" on="1"/>
        <pt x="712" y="607" on="1"/>
        <pt x="712" y="537" on="0"/>
        <pt x="557" y="456" on="0"/>
        <pt x="502" y="344" on="0"/>
        <pt x="425" y="-93" on="0"/>
        <pt x="316" y="-249" on="0"/>
        <pt x="149" y="-343" on="0"/>
        <pt x="66" y="-343" on="1"/>
        <pt x="43" y="-343" on="1"/>
        <pt x="-26" y="-343" on="0"/>
        <pt x="-26" y="-295" on="1"/>
        <pt x="-26" y="-239" on="0"/>
        <pt x="17" y="-193" on="1"/>
        <pt x="113" y="-145" on="1"/>
        <pt x="171" y="-116" on="0"/>
        <pt x="236" y="-14" on="0"/>
        <pt x="268" y="174" on="1"/>
        <pt x="300" y="360" on="0"/>
        <pt x="322" y="412" on="1"/>
        <pt x="357" y="497" on="0"/>
        <pt x="438" y="552" on="1"/>
        <pt x="489" y="586" on="0"/>
        <pt x="489" y="591" on="1"/>
        <pt x="488" y="596" on="0"/>
        <pt x="464" y="620" on="1"/>
        <pt x="389" y="695" on="0"/>
        <pt x="389" y="800" on="1"/>
        <pt x="389" y="847" on="0"/>
        <pt x="444" y="1127" on="0"/>
        <pt x="444" y="1279" on="0"/>
        <pt x="289" y="1363" on="0"/>
        <pt x="289" y="1420" on="1"/>
        <pt x="289" y="1518" on="0"/>
      </contour>
    </TTGlyph>
    <TTGlyph name="bracketleft" xMin="72" yMin="-331" xMax="877" yMax="1518">
      <contour>
        <pt x="564" y="-241" on="1"/>
        <pt x="564" y="-331" on="0"/>
        <pt x="478" y="-331" on="1"/>
        <pt x="161" y="-331" on="1"/>
        <pt x="72" y="-331" on="0"/>
        <pt x="72" y="-270" on="1"/>
        <pt x="72" y="-247" on="1"/>
        <pt x="72" y="-201" on="0"/>
        <pt x="152" y="215" on="0"/>
        <pt x="213" y="569" on="0"/>
        <pt x="270" y="864" on="0"/>
        <pt x="345" y="1300" on="0"/>
        <pt x="380" y="1456" on="0"/>
        <pt x="444" y="1518" on="0"/>
        <pt x="518" y="1518" on="1"/>
        <pt x="835" y="1518" on="1"/>
        <pt x="877" y="1518" on="0"/>
        <pt x="877" y="1485" on="1"/>
        <pt x="877" y="1389" on="0"/>
        <pt x="828" y="1355" on="1"/>
        <pt x="797" y="1334" on="0"/>
        <pt x="685" y="1334" on="1"/>
        <pt x="623" y="1334" on="0"/>
        <pt x="588" y="1292" on="1"/>
        <pt x="575" y="1276" on="0"/>
        <pt x="524" y="1091" on="0"/>
        <pt x="332" y="-22" on="0"/>
        <pt x="332" y="-108" on="0"/>
        <pt x="374" y="-130" on="1"/>
        <pt x="392" y="-139" on="0"/>
        <pt x="525" y="-150" on="0"/>
        <pt x="564" y="-185" on="0"/>
      </contour>
    </TTGlyph>
</ttFont>
